%TF.GenerationSoftware,KiCad,Pcbnew,8.0.5*%
%TF.CreationDate,2026-01-01T16:10:54+02:00*%
%TF.ProjectId,scheme,73636865-6d65-42e6-9b69-6361645f7063,rev?*%
%TF.SameCoordinates,Original*%
%TF.FileFunction,Copper,L1,Top*%
%TF.FilePolarity,Positive*%
%FSLAX46Y46*%
G04 Gerber Fmt 4.6, Leading zero omitted, Abs format (unit mm)*
G04 Created by KiCad (PCBNEW 8.0.5) date 2026-01-01 16:10:54*
%MOMM*%
%LPD*%
G01*
G04 APERTURE LIST*
G04 Aperture macros list*
%AMRoundRect*
0 Rectangle with rounded corners*
0 $1 Rounding radius*
0 $2 $3 $4 $5 $6 $7 $8 $9 X,Y pos of 4 corners*
0 Add a 4 corners polygon primitive as box body*
4,1,4,$2,$3,$4,$5,$6,$7,$8,$9,$2,$3,0*
0 Add four circle primitives for the rounded corners*
1,1,$1+$1,$2,$3*
1,1,$1+$1,$4,$5*
1,1,$1+$1,$6,$7*
1,1,$1+$1,$8,$9*
0 Add four rect primitives between the rounded corners*
20,1,$1+$1,$2,$3,$4,$5,0*
20,1,$1+$1,$4,$5,$6,$7,0*
20,1,$1+$1,$6,$7,$8,$9,0*
20,1,$1+$1,$8,$9,$2,$3,0*%
G04 Aperture macros list end*
%TA.AperFunction,ComponentPad*%
%ADD10R,1.800000X1.800000*%
%TD*%
%TA.AperFunction,ComponentPad*%
%ADD11C,1.800000*%
%TD*%
%TA.AperFunction,SMDPad,CuDef*%
%ADD12RoundRect,0.250000X-0.262500X-0.450000X0.262500X-0.450000X0.262500X0.450000X-0.262500X0.450000X0*%
%TD*%
%TA.AperFunction,SMDPad,CuDef*%
%ADD13RoundRect,0.250000X-0.450000X0.262500X-0.450000X-0.262500X0.450000X-0.262500X0.450000X0.262500X0*%
%TD*%
%TA.AperFunction,SMDPad,CuDef*%
%ADD14RoundRect,0.250000X0.262500X0.450000X-0.262500X0.450000X-0.262500X-0.450000X0.262500X-0.450000X0*%
%TD*%
%TA.AperFunction,SMDPad,CuDef*%
%ADD15RoundRect,0.050000X0.050000X-0.225000X0.050000X0.225000X-0.050000X0.225000X-0.050000X-0.225000X0*%
%TD*%
%TA.AperFunction,SMDPad,CuDef*%
%ADD16RoundRect,0.050000X0.225000X0.050000X-0.225000X0.050000X-0.225000X-0.050000X0.225000X-0.050000X0*%
%TD*%
%TA.AperFunction,ComponentPad*%
%ADD17C,2.000000*%
%TD*%
%TA.AperFunction,ComponentPad*%
%ADD18C,1.778000*%
%TD*%
%TA.AperFunction,ComponentPad*%
%ADD19C,2.286000*%
%TD*%
%TA.AperFunction,SMDPad,CuDef*%
%ADD20R,0.550000X0.800000*%
%TD*%
%TA.AperFunction,ComponentPad*%
%ADD21R,1.700000X1.700000*%
%TD*%
%TA.AperFunction,ComponentPad*%
%ADD22O,1.700000X1.700000*%
%TD*%
%TA.AperFunction,SMDPad,CuDef*%
%ADD23RoundRect,0.250000X0.475000X-0.250000X0.475000X0.250000X-0.475000X0.250000X-0.475000X-0.250000X0*%
%TD*%
%TA.AperFunction,SMDPad,CuDef*%
%ADD24RoundRect,0.250000X0.250000X0.475000X-0.250000X0.475000X-0.250000X-0.475000X0.250000X-0.475000X0*%
%TD*%
%TA.AperFunction,SMDPad,CuDef*%
%ADD25RoundRect,0.075000X-0.650000X-0.075000X0.650000X-0.075000X0.650000X0.075000X-0.650000X0.075000X0*%
%TD*%
%TA.AperFunction,SMDPad,CuDef*%
%ADD26RoundRect,0.150000X0.587500X0.150000X-0.587500X0.150000X-0.587500X-0.150000X0.587500X-0.150000X0*%
%TD*%
%TA.AperFunction,SMDPad,CuDef*%
%ADD27RoundRect,0.150000X0.512500X0.150000X-0.512500X0.150000X-0.512500X-0.150000X0.512500X-0.150000X0*%
%TD*%
%TA.AperFunction,SMDPad,CuDef*%
%ADD28RoundRect,0.250000X-0.350000X-0.450000X0.350000X-0.450000X0.350000X0.450000X-0.350000X0.450000X0*%
%TD*%
%TA.AperFunction,SMDPad,CuDef*%
%ADD29RoundRect,0.250000X0.350000X0.450000X-0.350000X0.450000X-0.350000X-0.450000X0.350000X-0.450000X0*%
%TD*%
%TA.AperFunction,SMDPad,CuDef*%
%ADD30RoundRect,0.250000X-0.250000X-0.475000X0.250000X-0.475000X0.250000X0.475000X-0.250000X0.475000X0*%
%TD*%
%TA.AperFunction,SMDPad,CuDef*%
%ADD31R,1.000000X2.500000*%
%TD*%
%TA.AperFunction,SMDPad,CuDef*%
%ADD32RoundRect,0.100000X0.100000X-0.712500X0.100000X0.712500X-0.100000X0.712500X-0.100000X-0.712500X0*%
%TD*%
%TA.AperFunction,ComponentPad*%
%ADD33O,4.140000X2.070000*%
%TD*%
%TA.AperFunction,ComponentPad*%
%ADD34R,2.000000X2.000000*%
%TD*%
%TA.AperFunction,ViaPad*%
%ADD35C,0.600000*%
%TD*%
%TA.AperFunction,Conductor*%
%ADD36C,0.150000*%
%TD*%
G04 APERTURE END LIST*
D10*
%TO.P,D2,1,K*%
%TO.N,Net-(D1-K)*%
X125400000Y-46800000D03*
D11*
%TO.P,D2,2,A*%
%TO.N,Net-(D1-A)*%
X122860000Y-46800000D03*
%TD*%
D12*
%TO.P,R4,1*%
%TO.N,/tx*%
X152387500Y-136900000D03*
%TO.P,R4,2*%
%TO.N,/tx-out*%
X154212500Y-136900000D03*
%TD*%
D13*
%TO.P,R13,1*%
%TO.N,Net-(D1-A)*%
X152800000Y-65187500D03*
%TO.P,R13,2*%
%TO.N,+3.3V*%
X152800000Y-67012500D03*
%TD*%
D14*
%TO.P,R14,1*%
%TO.N,Net-(U7-SDO{slash}AD0)*%
X159112500Y-131600000D03*
%TO.P,R14,2*%
%TO.N,GND*%
X157287500Y-131600000D03*
%TD*%
D15*
%TO.P,U7,1,NC*%
%TO.N,unconnected-(U7-NC-Pad1)*%
X124300000Y-96300000D03*
%TO.P,U7,2,NC*%
%TO.N,unconnected-(U7-NC-Pad2)*%
X124700000Y-96300000D03*
%TO.P,U7,3,NC*%
%TO.N,unconnected-(U7-NC-Pad3)*%
X125100000Y-96300000D03*
%TO.P,U7,4,NC*%
%TO.N,unconnected-(U7-NC-Pad4)*%
X125500000Y-96300000D03*
%TO.P,U7,5,NC*%
%TO.N,unconnected-(U7-NC-Pad5)*%
X125900000Y-96300000D03*
%TO.P,U7,6,NC*%
%TO.N,unconnected-(U7-NC-Pad6)*%
X126300000Y-96300000D03*
D16*
%TO.P,U7,7,AUX_CL*%
%TO.N,/aux_cl*%
X126800000Y-95800000D03*
%TO.P,U7,8,VDDIO*%
%TO.N,+1.8V*%
X126800000Y-95400000D03*
%TO.P,U7,9,SDO/AD0*%
%TO.N,Net-(U7-SDO{slash}AD0)*%
X126800000Y-95000000D03*
%TO.P,U7,10,REGOUT*%
%TO.N,Net-(U7-REGOUT)*%
X126800000Y-94600000D03*
%TO.P,U7,11,FSYNC*%
%TO.N,Net-(ICM-conn1-Pin_1)*%
X126800000Y-94200000D03*
%TO.P,U7,12,INT1*%
%TO.N,Net-(ICM-conn1-Pin_2)*%
X126800000Y-93800000D03*
D15*
%TO.P,U7,13,VDD*%
%TO.N,+3.3V*%
X126300000Y-93300000D03*
%TO.P,U7,14,NC*%
%TO.N,unconnected-(U7-NC-Pad14)*%
X125900000Y-93300000D03*
%TO.P,U7,15,NC*%
%TO.N,unconnected-(U7-NC-Pad15)*%
X125500000Y-93300000D03*
%TO.P,U7,16,NC*%
%TO.N,unconnected-(U7-NC-Pad16)*%
X125100000Y-93300000D03*
%TO.P,U7,17,NC*%
%TO.N,unconnected-(U7-NC-Pad17)*%
X124700000Y-93300000D03*
%TO.P,U7,18,GND*%
%TO.N,GND*%
X124300000Y-93300000D03*
D16*
%TO.P,U7,19,RESV*%
%TO.N,unconnected-(U7-RESV-Pad19)*%
X123800000Y-93800000D03*
%TO.P,U7,20,GND*%
%TO.N,GND*%
X123800000Y-94200000D03*
%TO.P,U7,21,AUX_DA*%
%TO.N,/aux-da*%
X123800000Y-94600000D03*
%TO.P,U7,22,~{CS}*%
%TO.N,Net-(U7-~{CS})*%
X123800000Y-95000000D03*
%TO.P,U7,23,SCL/SCLK*%
%TO.N,/SCL_1.8*%
X123800000Y-95400000D03*
%TO.P,U7,24,SDA/SDI*%
%TO.N,/SDA_1.8*%
X123800000Y-95800000D03*
%TD*%
D17*
%TO.P,SW3,1,C*%
%TO.N,GND*%
X128550000Y-80350000D03*
X135050000Y-80350000D03*
%TO.P,SW3,2,D*%
%TO.N,/btnA*%
X128550000Y-84850000D03*
X135050000Y-84850000D03*
%TD*%
D18*
%TO.P,U1,B1A,B1A*%
%TO.N,/btn_103-530*%
X153318700Y-51575000D03*
%TO.P,U1,B1B,B1B*%
%TO.N,unconnected-(U1-PadB1B)*%
X153318700Y-57925000D03*
%TO.P,U1,B2A,B2A*%
%TO.N,GND*%
X148238700Y-51575000D03*
%TO.P,U1,B2B,B2B*%
%TO.N,unconnected-(U1-PadB2B)*%
X148238700Y-57925000D03*
%TO.P,U1,H1,H+*%
%TO.N,GND*%
X130458700Y-52210000D03*
%TO.P,U1,H2,H*%
%TO.N,/analog0*%
X130458700Y-54750000D03*
%TO.P,U1,H3,H-*%
%TO.N,+3.3V*%
X130458700Y-57290000D03*
D19*
%TO.P,U1,S1,SHIELD*%
%TO.N,GND*%
X147286200Y-47130000D03*
X133951200Y-47130000D03*
X147286200Y-62370000D03*
X133951200Y-62370000D03*
D18*
%TO.P,U1,V1,V+*%
%TO.N,+3.3V*%
X143158700Y-44590000D03*
%TO.P,U1,V2,V*%
%TO.N,/analog1*%
X140618700Y-44590000D03*
%TO.P,U1,V3,V-*%
%TO.N,GND*%
X138078700Y-44590000D03*
%TD*%
D10*
%TO.P,D3,1,K*%
%TO.N,Net-(D1-K)*%
X159675000Y-65400000D03*
D11*
%TO.P,D3,2,A*%
%TO.N,Net-(D1-A)*%
X157135000Y-65400000D03*
%TD*%
D20*
%TO.P,U4,1,VIN*%
%TO.N,+4.2V*%
X158650000Y-85100000D03*
%TO.P,U4,2,GND*%
%TO.N,GND*%
X159600000Y-85100000D03*
%TO.P,U4,3,EN*%
%TO.N,+4.2V*%
X160550000Y-85100000D03*
%TO.P,U4,4,NC*%
%TO.N,unconnected-(U4-NC-Pad4)*%
X160550000Y-82700000D03*
%TO.P,U4,5,VOUT*%
%TO.N,+3.3V*%
X158650000Y-82700000D03*
%TD*%
D21*
%TO.P,J1,1,Pin_1*%
%TO.N,Net-(J1-Pin_1)*%
X123325000Y-141700000D03*
D22*
%TO.P,J1,2,Pin_2*%
%TO.N,GND*%
X125865000Y-141700000D03*
%TD*%
D23*
%TO.P,C9,1*%
%TO.N,Net-(U7-REGOUT)*%
X130400000Y-94750000D03*
%TO.P,C9,2*%
%TO.N,GND*%
X130400000Y-92850000D03*
%TD*%
D24*
%TO.P,C8,1*%
%TO.N,+3.3V*%
X125450000Y-105700000D03*
%TO.P,C8,2*%
%TO.N,GND*%
X123550000Y-105700000D03*
%TD*%
D12*
%TO.P,R7,1*%
%TO.N,/btnA*%
X157287500Y-125533300D03*
%TO.P,R7,2*%
%TO.N,+3.3V*%
X159112500Y-125533300D03*
%TD*%
D24*
%TO.P,C3,1*%
%TO.N,+3.3V*%
X125450000Y-108750000D03*
%TO.P,C3,2*%
%TO.N,GND*%
X123550000Y-108750000D03*
%TD*%
D25*
%TO.P,U5,1,ADDR*%
%TO.N,GND*%
X124900000Y-72000000D03*
%TO.P,U5,2,ALERT/RDY*%
%TO.N,Net-(U5-ALERT{slash}RDY)*%
X124900000Y-72500000D03*
%TO.P,U5,3,GND*%
%TO.N,GND*%
X124900000Y-73000000D03*
%TO.P,U5,4,AIN0*%
%TO.N,/analog0*%
X124900000Y-73500000D03*
%TO.P,U5,5,AIN1*%
%TO.N,/analog1*%
X124900000Y-74000000D03*
%TO.P,U5,6,AIN2*%
%TO.N,unconnected-(U5-AIN2-Pad6)*%
X129300000Y-74000000D03*
%TO.P,U5,7,AIN3*%
%TO.N,unconnected-(U5-AIN3-Pad7)*%
X129300000Y-73500000D03*
%TO.P,U5,8,VDD*%
%TO.N,+3.3V*%
X129300000Y-73000000D03*
%TO.P,U5,9,SDA*%
%TO.N,/SDA*%
X129300000Y-72500000D03*
%TO.P,U5,10,SCL*%
%TO.N,/SCL*%
X129300000Y-72000000D03*
%TD*%
D26*
%TO.P,Q1,1,B*%
%TO.N,Net-(Q1-B)*%
X125037500Y-81150000D03*
%TO.P,Q1,2,E*%
%TO.N,GND*%
X125037500Y-79250000D03*
%TO.P,Q1,3,C*%
%TO.N,Net-(D1-K)*%
X123162500Y-80200000D03*
%TD*%
D27*
%TO.P,U6,1,V_{IN}*%
%TO.N,+4.2V*%
X154137500Y-125050000D03*
%TO.P,U6,2,V_{SS}*%
%TO.N,GND*%
X154137500Y-124100000D03*
%TO.P,U6,3,CE*%
%TO.N,+4.2V*%
X154137500Y-123150000D03*
%TO.P,U6,4,NC*%
%TO.N,unconnected-(U6-NC-Pad4)*%
X151862500Y-123150000D03*
%TO.P,U6,5,V_{OUT}*%
%TO.N,+1.8V*%
X151862500Y-125050000D03*
%TD*%
D28*
%TO.P,R1,1*%
%TO.N,+3.3V*%
X131100000Y-103400000D03*
%TO.P,R1,2*%
%TO.N,Net-(U2-EN)*%
X133100000Y-103400000D03*
%TD*%
D17*
%TO.P,SW4,1,C*%
%TO.N,GND*%
X138550000Y-88150000D03*
X145050000Y-88150000D03*
%TO.P,SW4,2,D*%
%TO.N,Net-(SW4-D)*%
X138550000Y-92650000D03*
X145050000Y-92650000D03*
%TD*%
D21*
%TO.P,ICM-conn1,1,Pin_1*%
%TO.N,Net-(ICM-conn1-Pin_1)*%
X128200000Y-102000000D03*
D22*
%TO.P,ICM-conn1,2,Pin_2*%
%TO.N,Net-(ICM-conn1-Pin_2)*%
X128200000Y-104540000D03*
%TO.P,ICM-conn1,3,Pin_3*%
%TO.N,/aux-da*%
X128200000Y-107080000D03*
%TO.P,ICM-conn1,4,Pin_4*%
%TO.N,/aux_cl*%
X128200000Y-109620000D03*
%TD*%
D12*
%TO.P,R5,1*%
%TO.N,/rx*%
X152387500Y-134500000D03*
%TO.P,R5,2*%
%TO.N,/rx-out*%
X154212500Y-134500000D03*
%TD*%
D29*
%TO.P,R3,1*%
%TO.N,+1.8V*%
X133100000Y-112025000D03*
%TO.P,R3,2*%
%TO.N,/SDA_1.8*%
X131100000Y-112025000D03*
%TD*%
D30*
%TO.P,C4,1*%
%TO.N,+3.3V*%
X150950000Y-95185000D03*
%TO.P,C4,2*%
%TO.N,GND*%
X152850000Y-95185000D03*
%TD*%
D28*
%TO.P,R10,1*%
%TO.N,+3.3V*%
X131100000Y-114900000D03*
%TO.P,R10,2*%
%TO.N,/SCL*%
X133100000Y-114900000D03*
%TD*%
D13*
%TO.P,R12,1*%
%TO.N,+3.3V*%
X124900000Y-99487500D03*
%TO.P,R12,2*%
%TO.N,Net-(U5-ALERT{slash}RDY)*%
X124900000Y-101312500D03*
%TD*%
D31*
%TO.P,U2,1,~{RST}*%
%TO.N,Net-(J1-Pin_1)*%
X152850000Y-103500000D03*
%TO.P,U2,2,ADC*%
%TO.N,Net-(SW4-D)*%
X150850000Y-103500000D03*
%TO.P,U2,3,EN*%
%TO.N,Net-(U2-EN)*%
X148850000Y-103500000D03*
%TO.P,U2,4,GPIO16*%
%TO.N,/btnB*%
X146850000Y-103500000D03*
%TO.P,U2,5,GPIO14*%
%TO.N,/btnX*%
X144850000Y-103500000D03*
%TO.P,U2,6,GPIO12*%
%TO.N,/led-output*%
X142850000Y-103500000D03*
%TO.P,U2,7,GPIO13*%
%TO.N,/btnY*%
X140850000Y-103500000D03*
%TO.P,U2,8,VCC*%
%TO.N,+3.3V*%
X138850000Y-103500000D03*
%TO.P,U2,15,GND*%
%TO.N,GND*%
X138850000Y-118700000D03*
%TO.P,U2,16,GPIO15*%
%TO.N,Net-(U2-GPIO15)*%
X140850000Y-118700000D03*
%TO.P,U2,17,GPIO2*%
%TO.N,/btn_103-530*%
X142850000Y-118700000D03*
%TO.P,U2,18,GPIO0*%
%TO.N,/btnA*%
X144850000Y-118700000D03*
%TO.P,U2,19,GPIO4*%
%TO.N,/SDA*%
X146850000Y-118700000D03*
%TO.P,U2,20,GPIO5*%
%TO.N,/SCL*%
X148850000Y-118700000D03*
%TO.P,U2,21,GPIO3/RXD*%
%TO.N,/rx*%
X150850000Y-118700000D03*
%TO.P,U2,22,GPIO1/TXD*%
%TO.N,/tx*%
X152850000Y-118700000D03*
%TD*%
D29*
%TO.P,R9,1*%
%TO.N,+3.3V*%
X133100000Y-106275000D03*
%TO.P,R9,2*%
%TO.N,/SDA*%
X131100000Y-106275000D03*
%TD*%
D24*
%TO.P,C2,1*%
%TO.N,+1.8V*%
X125450000Y-111800000D03*
%TO.P,C2,2*%
%TO.N,GND*%
X123550000Y-111800000D03*
%TD*%
D13*
%TO.P,R11,1*%
%TO.N,Net-(Q1-B)*%
X143000000Y-98687500D03*
%TO.P,R11,2*%
%TO.N,/led-output*%
X143000000Y-100512500D03*
%TD*%
D10*
%TO.P,D1,1,K*%
%TO.N,Net-(D1-K)*%
X159675000Y-46800000D03*
D11*
%TO.P,D1,2,A*%
%TO.N,Net-(D1-A)*%
X157135000Y-46800000D03*
%TD*%
D32*
%TO.P,U3,1,GND*%
%TO.N,GND*%
X157525000Y-99212500D03*
%TO.P,U3,2,VREF1*%
%TO.N,+1.8V*%
X158175000Y-99212500D03*
%TO.P,U3,3,SCL1*%
%TO.N,/SCL_1.8*%
X158825000Y-99212500D03*
%TO.P,U3,4,SDA1*%
%TO.N,/SDA_1.8*%
X159475000Y-99212500D03*
%TO.P,U3,5,SDA2*%
%TO.N,/SDA*%
X159475000Y-94987500D03*
%TO.P,U3,6,SCL2*%
%TO.N,/SCL*%
X158825000Y-94987500D03*
%TO.P,U3,7,VREF2*%
%TO.N,+3.3V*%
X158175000Y-94987500D03*
%TO.P,U3,8,EN*%
X157525000Y-94987500D03*
%TD*%
D10*
%TO.P,D4,1,K*%
%TO.N,Net-(D1-K)*%
X125400000Y-65400000D03*
D11*
%TO.P,D4,2,A*%
%TO.N,Net-(D1-A)*%
X122860000Y-65400000D03*
%TD*%
D30*
%TO.P,C1,1*%
%TO.N,+4.2V*%
X152330000Y-141900000D03*
%TO.P,C1,2*%
%TO.N,GND*%
X154230000Y-141900000D03*
%TD*%
D17*
%TO.P,TP4056-module1,1,dc+*%
%TO.N,+5C*%
X124195000Y-124305000D03*
%TO.P,TP4056-module1,2,dc-*%
%TO.N,GND*%
X124195000Y-138305000D03*
%TO.P,TP4056-module1,3,out+*%
%TO.N,+4.2V*%
X147195000Y-124305000D03*
%TO.P,TP4056-module1,4,out-*%
%TO.N,GND*%
X147195000Y-138305000D03*
%TO.P,TP4056-module1,5,b+*%
%TO.N,Net-(TP4056-module1-b+)*%
X147195000Y-126845000D03*
%TO.P,TP4056-module1,6,b-*%
%TO.N,Net-(TP4056-module1-b-)*%
X147195000Y-135765000D03*
%TD*%
D14*
%TO.P,R15,1*%
%TO.N,+3.3V*%
X126012500Y-90000000D03*
%TO.P,R15,2*%
%TO.N,Net-(U7-~{CS})*%
X124187500Y-90000000D03*
%TD*%
D17*
%TO.P,SW2,1,C*%
%TO.N,GND*%
X148500000Y-80400000D03*
X155000000Y-80400000D03*
%TO.P,SW2,2,D*%
%TO.N,/btnY*%
X148500000Y-84900000D03*
X155000000Y-84900000D03*
%TD*%
D28*
%TO.P,R2,1*%
%TO.N,+1.8V*%
X131100000Y-109150000D03*
%TO.P,R2,2*%
%TO.N,/SCL_1.8*%
X133100000Y-109150000D03*
%TD*%
D12*
%TO.P,R8,1*%
%TO.N,/btn_103-530*%
X157287500Y-128566700D03*
%TO.P,R8,2*%
%TO.N,+3.3V*%
X159112500Y-128566700D03*
%TD*%
D30*
%TO.P,C5,1*%
%TO.N,+3.3V*%
X150950000Y-98000000D03*
%TO.P,C5,2*%
%TO.N,GND*%
X152850000Y-98000000D03*
%TD*%
%TO.P,C10,1*%
%TO.N,+3.3V*%
X130550000Y-120800000D03*
%TO.P,C10,2*%
%TO.N,GND*%
X132450000Y-120800000D03*
%TD*%
D17*
%TO.P,SW1,1,C*%
%TO.N,GND*%
X138550000Y-72650000D03*
X145050000Y-72650000D03*
%TO.P,SW1,2,D*%
%TO.N,/btnX*%
X138550000Y-77150000D03*
X145050000Y-77150000D03*
%TD*%
D12*
%TO.P,R6,1*%
%TO.N,Net-(U2-GPIO15)*%
X157287500Y-122500000D03*
%TO.P,R6,2*%
%TO.N,GND*%
X159112500Y-122500000D03*
%TD*%
D33*
%TO.P,BT1,+*%
%TO.N,Net-(TP4056-module1-b+)*%
X142300000Y-68600000D03*
%TO.P,BT1,-*%
%TO.N,Net-(TP4056-module1-b-)*%
X142300000Y-141500000D03*
%TD*%
D21*
%TO.P,prog1,1,Pin_1*%
%TO.N,+5C*%
X160200000Y-142000000D03*
D22*
%TO.P,prog1,2,Pin_2*%
%TO.N,GND*%
X160200000Y-139460000D03*
%TO.P,prog1,3,Pin_3*%
%TO.N,/tx-out*%
X160200000Y-136920000D03*
%TO.P,prog1,4,Pin_4*%
%TO.N,/rx-out*%
X160200000Y-134380000D03*
%TD*%
D17*
%TO.P,SW5,1,C*%
%TO.N,GND*%
X156050000Y-70050000D03*
X156050000Y-76550000D03*
%TO.P,SW5,2,D*%
%TO.N,/btnB*%
X160550000Y-70050000D03*
X160550000Y-76550000D03*
%TD*%
D34*
%TO.P,C7,1*%
%TO.N,+3.3V*%
X124482300Y-117800000D03*
D17*
%TO.P,C7,2*%
%TO.N,GND*%
X127982300Y-117800000D03*
%TD*%
D35*
%TO.N,+3.3V*%
X137103800Y-119026700D03*
X151517700Y-59752300D03*
X157645600Y-120602800D03*
%TO.N,GND*%
X130400000Y-89078600D03*
X125967200Y-80291500D03*
X124600000Y-91800000D03*
X122990800Y-115464500D03*
%TO.N,/tx-out*%
X154055700Y-135700000D03*
%TO.N,/rx-out*%
X154893400Y-132576500D03*
%TO.N,Net-(J1-Pin_1)*%
X152099100Y-132696800D03*
%TO.N,/SCL*%
X148600500Y-115810400D03*
X156641300Y-94972800D03*
X134562700Y-115602500D03*
X133300000Y-95800900D03*
X149307800Y-97091400D03*
%TO.N,/SDA*%
X130174100Y-99853800D03*
X159378600Y-101478300D03*
X146134300Y-107431600D03*
%TO.N,/btnA*%
X146497600Y-95167800D03*
X157021200Y-124379100D03*
X146277232Y-120822768D03*
%TO.N,/btn_103-530*%
X148091050Y-120808950D03*
X156223600Y-122932500D03*
%TO.N,/btnB*%
X149210300Y-86752500D03*
%TO.N,+4.2V*%
X149565500Y-89078600D03*
X158526400Y-89078600D03*
%TO.N,+1.8V*%
X126107800Y-97829800D03*
X151991800Y-127389700D03*
X130569800Y-119562400D03*
X154654500Y-97185700D03*
X127987500Y-97655600D03*
%TO.N,/SCL_1.8*%
X156641300Y-99680000D03*
X122838600Y-97680100D03*
X131411900Y-104834200D03*
%TO.N,/SDA_1.8*%
X159792000Y-97423000D03*
X129994000Y-98634800D03*
X123697200Y-98359100D03*
%TO.N,Net-(Q1-B)*%
X125758350Y-92041650D03*
X143143900Y-95080500D03*
%TO.N,Net-(U7-REGOUT)*%
X128461000Y-95940500D03*
X129994000Y-95773100D03*
%TO.N,/aux-da*%
X123500000Y-91700000D03*
%TO.N,Net-(U2-EN)*%
X148963900Y-100821700D03*
X133632600Y-99561100D03*
%TO.N,Net-(U2-GPIO15)*%
X156112900Y-128258700D03*
X140164800Y-124443800D03*
%TO.N,Net-(U7-SDO{slash}AD0)*%
X159177800Y-120357800D03*
X127059000Y-106245300D03*
%TO.N,Net-(SW4-D)*%
X150500000Y-92900000D03*
%TD*%
D36*
%TO.N,+3.3V*%
X152870100Y-80797200D02*
X152870100Y-80684600D01*
X126300000Y-90287500D02*
X126300000Y-93300000D01*
X150950000Y-95185000D02*
X150950000Y-94319000D01*
X158980200Y-120884500D02*
X159881300Y-121785600D01*
X125450000Y-105700000D02*
X125832100Y-105317900D01*
X126012500Y-90000000D02*
X126495300Y-89517200D01*
X158148300Y-82700000D02*
X157999700Y-82848600D01*
X125832100Y-100419600D02*
X124900000Y-99487500D01*
X159881300Y-124764500D02*
X159112500Y-125533300D01*
X157999700Y-94987500D02*
X157525000Y-94987500D01*
X152870100Y-80684600D02*
X154947300Y-78607400D01*
X152800000Y-67012500D02*
X151517700Y-65730200D01*
X152800000Y-75925300D02*
X152800000Y-67012500D01*
X158148300Y-82700000D02*
X158148300Y-81808500D01*
X157645600Y-120602800D02*
X157927300Y-120884500D01*
X136285100Y-77793000D02*
X129320100Y-70827900D01*
X138850000Y-114396200D02*
X137103800Y-116142400D01*
X126012500Y-90000000D02*
X126300000Y-90287500D01*
X125450000Y-108750000D02*
X125450000Y-105700000D01*
X151071700Y-82595600D02*
X152870100Y-80797200D01*
X154947200Y-78607400D02*
X154947200Y-78072500D01*
X158175000Y-94987500D02*
X157999700Y-94987500D01*
X150950000Y-94319000D02*
X151071700Y-94197300D01*
X128315400Y-72719200D02*
X128315400Y-71832600D01*
X133100000Y-106275000D02*
X134398300Y-104976700D01*
X130458700Y-69689300D02*
X130458700Y-57290000D01*
X158148300Y-81808500D02*
X154947300Y-78607400D01*
X157645600Y-120602800D02*
X157927300Y-120884500D01*
X150950000Y-98000000D02*
X150950000Y-95185000D01*
X157999700Y-82848600D02*
X157999700Y-94987500D01*
X125832100Y-105317900D02*
X125832100Y-100419600D01*
X131100000Y-116142400D02*
X131100000Y-120250000D01*
X131100000Y-114900000D02*
X131100000Y-116142400D01*
X126495300Y-89517200D02*
X126495300Y-75100900D01*
X136285100Y-104976700D02*
X136285100Y-77793000D01*
X154947300Y-78607400D02*
X154947200Y-78607400D01*
X134398300Y-104976700D02*
X136285100Y-104976700D01*
X128596200Y-73000000D02*
X128315400Y-72719200D01*
X157927300Y-120884500D02*
X157645600Y-120602800D01*
X124482300Y-117800000D02*
X124482300Y-109717700D01*
X133100000Y-105400000D02*
X133100000Y-106275000D01*
X151071700Y-94197300D02*
X151071700Y-82595600D01*
X154947200Y-78072500D02*
X152800000Y-75925300D01*
X138850000Y-103500000D02*
X138850000Y-104976700D01*
X157927300Y-120884500D02*
X158980200Y-120884500D01*
X128315400Y-71832600D02*
X129320100Y-70827900D01*
X138850000Y-104976700D02*
X138850000Y-114396200D01*
X131100000Y-120250000D02*
X130550000Y-120800000D01*
X158650000Y-82700000D02*
X158148300Y-82700000D01*
X137103800Y-116142400D02*
X131100000Y-116142400D01*
X137103800Y-116142400D02*
X137103800Y-119026700D01*
X126495300Y-75100900D02*
X128596200Y-73000000D01*
X128596200Y-73000000D02*
X129300000Y-73000000D01*
X159881300Y-121785600D02*
X159881300Y-124764500D01*
X129320100Y-70827900D02*
X130458700Y-69689300D01*
X136285100Y-104976700D02*
X138850000Y-104976700D01*
X124482300Y-109717700D02*
X125450000Y-108750000D01*
X151517700Y-65730200D02*
X151517700Y-59752300D01*
X131100000Y-103400000D02*
X133100000Y-105400000D01*
X159112500Y-128566700D02*
X159112500Y-125533300D01*
%TO.N,GND*%
X124600000Y-91800000D02*
X124300000Y-92100000D01*
X123550000Y-105700000D02*
X123550000Y-108750000D01*
X130400000Y-89786900D02*
X130400000Y-89817900D01*
X152850000Y-95185000D02*
X152850000Y-82550000D01*
X159600000Y-85100000D02*
X159600000Y-85726700D01*
X160065400Y-138383300D02*
X158050000Y-136367900D01*
X153892200Y-120519000D02*
X155028000Y-121654800D01*
X153892200Y-99042200D02*
X153892200Y-99153300D01*
X155586200Y-124659700D02*
X155586200Y-131452900D01*
X155733300Y-131600000D02*
X157287500Y-131600000D01*
X154230000Y-141900000D02*
X155733300Y-140396700D01*
X123606700Y-93300000D02*
X124300000Y-93300000D01*
X152850000Y-98000000D02*
X152850000Y-95185000D01*
X127982300Y-134517700D02*
X127982300Y-121757600D01*
X124300000Y-91634700D02*
X124667000Y-91267700D01*
X124300000Y-92100000D02*
X124300000Y-93300000D01*
X161051700Y-81551700D02*
X156050000Y-76550000D01*
X145050000Y-83850000D02*
X148500000Y-80400000D01*
X158050000Y-123562500D02*
X158050000Y-131600000D01*
X155026500Y-124100000D02*
X155586200Y-124659700D01*
X156050000Y-70050000D02*
X156050000Y-76550000D01*
X130400000Y-89817900D02*
X130400000Y-92850000D01*
X123550000Y-114905300D02*
X123550000Y-111800000D01*
X147286200Y-47130000D02*
X148238700Y-48082500D01*
X138850000Y-120176700D02*
X133073300Y-120176700D01*
X123550000Y-108750000D02*
X123550000Y-111800000D01*
X123283600Y-93972200D02*
X123283600Y-93623100D01*
X157525000Y-99212500D02*
X157465800Y-99153300D01*
X152850000Y-98000000D02*
X153892200Y-99042200D01*
X131492400Y-121757600D02*
X127982300Y-121757600D01*
X125865000Y-141700000D02*
X125865000Y-139975000D01*
X161051700Y-85610800D02*
X161051700Y-81551700D01*
X152850000Y-82550000D02*
X155000000Y-80400000D01*
X123283600Y-93623100D02*
X123606700Y-93300000D01*
X125037500Y-79361800D02*
X125967200Y-80291500D01*
X155028000Y-124098500D02*
X155026500Y-124100000D01*
X159112500Y-122500000D02*
X158050000Y-123562500D01*
X128550000Y-80350000D02*
X130400000Y-82200000D01*
X147286200Y-62370000D02*
X145050000Y-64606200D01*
X124667000Y-91267700D02*
X124300000Y-91634700D01*
X155733300Y-140396700D02*
X155733300Y-131600000D01*
X130400000Y-89078600D02*
X130698900Y-89078600D01*
X125037500Y-79250000D02*
X123947800Y-78160300D01*
X158050000Y-136367900D02*
X158050000Y-131600000D01*
X154137500Y-124100000D02*
X155026500Y-124100000D01*
X160935800Y-85726700D02*
X161051700Y-85610800D01*
X123947800Y-73000000D02*
X123947800Y-72222300D01*
X148238700Y-51575000D02*
X147079300Y-52734400D01*
X157465800Y-99153300D02*
X153892200Y-99153300D01*
X123947800Y-78160300D02*
X123947800Y-73000000D01*
X123947800Y-72222300D02*
X124170100Y-72000000D01*
X132450000Y-120800000D02*
X131492400Y-121757600D01*
X123947800Y-73000000D02*
X124900000Y-73000000D01*
X133073300Y-120176700D02*
X132450000Y-120800000D01*
X125037500Y-79250000D02*
X125037500Y-79361800D01*
X155028000Y-121654800D02*
X155028000Y-124098500D01*
X160200000Y-138383300D02*
X160065400Y-138383300D01*
X123800000Y-94200000D02*
X123511400Y-94200000D01*
X153892200Y-99153300D02*
X153892200Y-120519000D01*
X138850000Y-118700000D02*
X138850000Y-120176700D01*
X160200000Y-139460000D02*
X160200000Y-138383300D01*
X158050000Y-131600000D02*
X157287500Y-131600000D01*
X130400000Y-82200000D02*
X130400000Y-89078600D01*
X147079300Y-62163100D02*
X147286200Y-62370000D01*
X145050000Y-64606200D02*
X145050000Y-72650000D01*
X147079300Y-52734400D02*
X147079300Y-62163100D01*
X130400000Y-89078600D02*
X130400000Y-89519000D01*
X130400000Y-89519000D02*
X130400000Y-89786900D01*
X155586200Y-131452900D02*
X155733300Y-131600000D01*
X125865000Y-139975000D02*
X124195000Y-138305000D01*
X124170100Y-72000000D02*
X124900000Y-72000000D01*
X145050000Y-88150000D02*
X145050000Y-83850000D01*
X159600000Y-85726700D02*
X160935800Y-85726700D01*
X123511400Y-94200000D02*
X123283600Y-93972200D01*
X130698900Y-89078600D02*
X130400000Y-89078600D01*
X148238700Y-48082500D02*
X148238700Y-51575000D01*
X122990800Y-115464500D02*
X123550000Y-114905300D01*
X124195000Y-138305000D02*
X127982300Y-134517700D01*
X127982300Y-121757600D02*
X127982300Y-117800000D01*
%TO.N,/tx-out*%
X154094900Y-135739200D02*
X154055700Y-135700000D01*
X154212500Y-135856800D02*
X154212500Y-136900000D01*
X154055700Y-135700000D02*
X154212500Y-135856800D01*
X154055700Y-135700000D02*
X154094900Y-135739200D01*
%TO.N,Net-(D1-K)*%
X159675000Y-65400000D02*
X159675000Y-46800000D01*
X125400000Y-66526700D02*
X123162500Y-68764200D01*
X123162500Y-68764200D02*
X123162500Y-80200000D01*
X125400000Y-65400000D02*
X125400000Y-66526700D01*
X125400000Y-65400000D02*
X125400000Y-46800000D01*
%TO.N,/rx-out*%
X154212500Y-134500000D02*
X154893400Y-133819100D01*
X154893400Y-133819100D02*
X154893400Y-132576500D01*
%TO.N,Net-(TP4056-module1-b+)*%
X140064000Y-114395600D02*
X141576700Y-115908300D01*
X142300000Y-68600000D02*
X142300000Y-69861700D01*
X141576700Y-121226700D02*
X147195000Y-126845000D01*
X142300000Y-69861700D02*
X140064000Y-72097700D01*
X141576700Y-115908300D02*
X141576700Y-121226700D01*
X140064000Y-72097700D02*
X140064000Y-114395600D01*
%TO.N,Net-(J1-Pin_1)*%
X150925000Y-131522700D02*
X152099100Y-132696800D01*
X152123300Y-105703400D02*
X152123300Y-120987600D01*
X152850000Y-104976700D02*
X152123300Y-105703400D01*
X151090100Y-131687800D02*
X152099100Y-132696800D01*
X152099100Y-132696800D02*
X151090100Y-131687800D01*
X152123300Y-120987600D02*
X150925000Y-122185900D01*
X150925000Y-122185900D02*
X150925000Y-131522700D01*
X152850000Y-103500000D02*
X152850000Y-104976700D01*
%TO.N,/tx*%
X153131200Y-136156300D02*
X152387500Y-136900000D01*
X152850000Y-118700000D02*
X152850000Y-125299600D01*
X152850000Y-125299600D02*
X153131200Y-125580800D01*
X153131200Y-125580800D02*
X153131200Y-136156300D01*
%TO.N,/SCL*%
X148094700Y-115304600D02*
X148094700Y-98304500D01*
X134167500Y-115207300D02*
X134562700Y-115602500D01*
X148850000Y-118700000D02*
X148850000Y-116059900D01*
X134562700Y-115602500D02*
X134167500Y-115207300D01*
X148850000Y-116059900D02*
X148600500Y-115810400D01*
X158419200Y-96027100D02*
X157270100Y-96027100D01*
X133860200Y-114900000D02*
X134562700Y-115602500D01*
X158825000Y-95621300D02*
X158419200Y-96027100D01*
X132209600Y-74203700D02*
X130005900Y-72000000D01*
X130005900Y-72000000D02*
X129300000Y-72000000D01*
X148094700Y-98304500D02*
X149307800Y-97091400D01*
X156641300Y-95398300D02*
X156641300Y-94972800D01*
X133300000Y-95800900D02*
X132209600Y-94710500D01*
X157270100Y-96027100D02*
X156641300Y-95398300D01*
X148600500Y-115810400D02*
X148094700Y-115304600D01*
X133100000Y-114900000D02*
X133860200Y-114900000D01*
X132209600Y-94710500D02*
X132209600Y-74203700D01*
X158825000Y-94987500D02*
X158825000Y-95621300D01*
%TO.N,/SDA*%
X159475000Y-94987500D02*
X160344100Y-95856600D01*
X146850000Y-118700000D02*
X146850000Y-108147300D01*
X129952000Y-72500000D02*
X131358200Y-73906200D01*
X160344100Y-100512800D02*
X159378600Y-101478300D01*
X130174100Y-105349100D02*
X130174100Y-99853800D01*
X160344100Y-95856600D02*
X160344100Y-100512800D01*
X131100000Y-106275000D02*
X130174100Y-105349100D01*
X131358200Y-73906200D02*
X131358200Y-98669700D01*
X131358200Y-98669700D02*
X130174100Y-99853800D01*
X146850000Y-108147300D02*
X146134300Y-107431600D01*
X129300000Y-72500000D02*
X129952000Y-72500000D01*
%TO.N,/btnA*%
X146107100Y-105677400D02*
X144850000Y-106934500D01*
X144850000Y-106934500D02*
X144850000Y-118700000D01*
X157287500Y-124645400D02*
X157021200Y-124379100D01*
X145631164Y-120176700D02*
X144850000Y-120176700D01*
X144850000Y-120176700D02*
X144850000Y-118700000D01*
X157287500Y-125533300D02*
X157287500Y-124645400D01*
X146497600Y-95167800D02*
X146107100Y-95558300D01*
X146107100Y-95558300D02*
X146107100Y-105677400D01*
X146277232Y-120822768D02*
X145631164Y-120176700D01*
%TO.N,/btn_103-530*%
X150143700Y-87444200D02*
X150143700Y-54750000D01*
X147782100Y-120500000D02*
X147782100Y-97872300D01*
X156494400Y-127773600D02*
X156494400Y-123203300D01*
X142850000Y-120176700D02*
X142850000Y-118700000D01*
X149038800Y-96615600D02*
X149038800Y-88549100D01*
X157287500Y-128566700D02*
X156494400Y-127773600D01*
X147782100Y-97872300D02*
X149038800Y-96615600D01*
X150143700Y-54750000D02*
X153318700Y-51575000D01*
X144173300Y-121500000D02*
X142850000Y-120176700D01*
X147400000Y-121500000D02*
X144173300Y-121500000D01*
X149038800Y-88549100D02*
X150143700Y-87444200D01*
X148091050Y-120808950D02*
X147782100Y-120500000D01*
X148091050Y-120808950D02*
X147400000Y-121500000D01*
X156494400Y-123203300D02*
X156223600Y-122932500D01*
X156308200Y-123017100D02*
X156223600Y-122932500D01*
X156223600Y-122932500D02*
X156308200Y-123017100D01*
%TO.N,/btnY*%
X145488700Y-104976700D02*
X140850000Y-104976700D01*
X148435400Y-90999500D02*
X145576700Y-93858200D01*
X145576700Y-93858200D02*
X145576700Y-104888700D01*
X148435400Y-84964600D02*
X148435400Y-90999500D01*
X145576700Y-104888700D02*
X145488700Y-104976700D01*
X140850000Y-103500000D02*
X140850000Y-104976700D01*
X148500000Y-84900000D02*
X148435400Y-84964600D01*
%TO.N,/btnB*%
X146850000Y-103500000D02*
X146850000Y-102023300D01*
X148737100Y-96490600D02*
X146850000Y-98377700D01*
X160550000Y-76550000D02*
X160550000Y-70050000D01*
X146850000Y-98377700D02*
X146850000Y-102023300D01*
X148737100Y-87225700D02*
X148737100Y-96490600D01*
X149210300Y-86752500D02*
X148737100Y-87225700D01*
%TO.N,/btnX*%
X145050000Y-79333100D02*
X143807500Y-80575600D01*
X143807500Y-96456200D02*
X144850000Y-97498700D01*
X143807500Y-80575600D02*
X143807500Y-96456200D01*
X144850000Y-97498700D02*
X144850000Y-103500000D01*
X145050000Y-77150000D02*
X145050000Y-79333100D01*
%TO.N,/analog0*%
X126948200Y-72126300D02*
X126948200Y-58260500D01*
X126948200Y-58260500D02*
X130458700Y-54750000D01*
X124900000Y-73500000D02*
X125574500Y-73500000D01*
X125574500Y-73500000D02*
X126948200Y-72126300D01*
%TO.N,/analog1*%
X130146200Y-56020000D02*
X128282800Y-57883400D01*
X128282800Y-71320700D02*
X125603500Y-74000000D01*
X128282800Y-57883400D02*
X128282800Y-71320700D01*
X125603500Y-74000000D02*
X124900000Y-74000000D01*
X140618700Y-46235200D02*
X130833900Y-56020000D01*
X140618700Y-44590000D02*
X140618700Y-46235200D01*
X130833900Y-56020000D02*
X130146200Y-56020000D01*
%TO.N,Net-(D1-A)*%
X156922500Y-65187500D02*
X157135000Y-65400000D01*
X157135000Y-46800000D02*
X157135000Y-64975000D01*
X122860000Y-65400000D02*
X122860000Y-46800000D01*
X157135000Y-64975000D02*
X156922500Y-65187500D01*
X152800000Y-65187500D02*
X156922500Y-65187500D01*
%TO.N,+4.2V*%
X158650000Y-84473300D02*
X160550000Y-84473300D01*
X158650000Y-88955000D02*
X158650000Y-85100000D01*
X153457500Y-125050000D02*
X153215900Y-124808400D01*
X147195000Y-124305000D02*
X149834500Y-121665500D01*
X158650000Y-85100000D02*
X158650000Y-84473300D01*
X153215900Y-123747000D02*
X153812900Y-123150000D01*
X153457500Y-125050000D02*
X153457500Y-140772500D01*
X153812900Y-123150000D02*
X154137500Y-123150000D01*
X158526400Y-89078600D02*
X158650000Y-88955000D01*
X150107100Y-139677100D02*
X152330000Y-141900000D01*
X160550000Y-85100000D02*
X160550000Y-84473300D01*
X149834500Y-89347600D02*
X149565500Y-89078600D01*
X149834500Y-121665500D02*
X149834500Y-89347600D01*
X147195000Y-124305000D02*
X150107100Y-127217100D01*
X150107100Y-127217100D02*
X150107100Y-139677100D01*
X153457500Y-140772500D02*
X152330000Y-141900000D01*
X154137500Y-125050000D02*
X153457500Y-125050000D01*
X153215900Y-124808400D02*
X153215900Y-123747000D01*
%TO.N,+1.8V*%
X156797000Y-97185700D02*
X154654500Y-97185700D01*
X126107800Y-97829800D02*
X126191800Y-97913800D01*
X126191800Y-97913800D02*
X126191800Y-111800000D01*
X151991700Y-127389700D02*
X151991800Y-127389700D01*
X158175000Y-99212500D02*
X158175000Y-98563700D01*
X131100000Y-109150000D02*
X133100000Y-111150000D01*
X158175000Y-98563700D02*
X156797000Y-97185700D01*
X130569800Y-119562400D02*
X130272300Y-119264900D01*
X127632600Y-95965500D02*
X127632600Y-97300700D01*
X133100000Y-111150000D02*
X133100000Y-112025000D01*
X131861400Y-113263600D02*
X133100000Y-112025000D01*
X130272300Y-119264900D02*
X130272300Y-113263600D01*
X130272300Y-113263600D02*
X131861400Y-113263600D01*
X126800000Y-95400000D02*
X127067100Y-95400000D01*
X151991700Y-125179200D02*
X151991700Y-127389700D01*
X128808700Y-111800000D02*
X126191800Y-111800000D01*
X126191800Y-111800000D02*
X125450000Y-111800000D01*
X130272300Y-113263600D02*
X128808700Y-111800000D01*
X127067100Y-95400000D02*
X127632600Y-95965500D01*
X151862500Y-125050000D02*
X151991700Y-125179200D01*
X127632600Y-97300700D02*
X127987500Y-97655600D01*
%TO.N,/SCL_1.8*%
X131411900Y-104834200D02*
X132100000Y-105522300D01*
X132100000Y-105522300D02*
X132100000Y-108150000D01*
X158825000Y-99852000D02*
X158400100Y-100276900D01*
X132100000Y-108150000D02*
X133100000Y-109150000D01*
X158400100Y-100276900D02*
X157238200Y-100276900D01*
X158825000Y-99212500D02*
X158825000Y-99852000D01*
X122838600Y-97680100D02*
X122838600Y-96060900D01*
X122838600Y-96060900D02*
X123499500Y-95400000D01*
X123499500Y-95400000D02*
X123800000Y-95400000D01*
X157238200Y-100276900D02*
X156641300Y-99680000D01*
%TO.N,/SDA_1.8*%
X129586700Y-99042100D02*
X129994000Y-98634800D01*
X159792000Y-97423000D02*
X159475000Y-97740000D01*
X129586700Y-100011300D02*
X129586700Y-99042100D01*
X129973400Y-98655400D02*
X129994000Y-98634800D01*
X159475000Y-97740000D02*
X159475000Y-99212500D01*
X129857100Y-110782100D02*
X129857100Y-100281700D01*
X131100000Y-112025000D02*
X129857100Y-110782100D01*
X123697200Y-98359100D02*
X123800000Y-98256300D01*
X123800000Y-98256300D02*
X123800000Y-95800000D01*
X129857100Y-100281700D02*
X129586700Y-100011300D01*
X129994000Y-98634800D02*
X129973400Y-98655400D01*
%TO.N,/rx*%
X150548300Y-132660800D02*
X152387500Y-134500000D01*
X150850000Y-118700000D02*
X150850000Y-120176700D01*
X150548300Y-120478400D02*
X150548300Y-132660800D01*
X150850000Y-120176700D02*
X150548300Y-120478400D01*
%TO.N,Net-(Q1-B)*%
X125193700Y-81306200D02*
X125037500Y-81150000D01*
X125366000Y-91649300D02*
X125193700Y-91477000D01*
X125758350Y-92041650D02*
X125193700Y-91477000D01*
X125193700Y-91477000D02*
X125193700Y-81306200D01*
X143000000Y-98687500D02*
X143143900Y-98543600D01*
X125366000Y-91649300D02*
X125193700Y-91477000D01*
X143143900Y-98543600D02*
X143143900Y-95080500D01*
%TO.N,/led-output*%
X142850000Y-100662500D02*
X142850000Y-103500000D01*
X143000000Y-100512500D02*
X142850000Y-100662500D01*
%TO.N,Net-(U7-REGOUT)*%
X128461000Y-95940500D02*
X128461000Y-95787300D01*
X129994000Y-95156000D02*
X130400000Y-94750000D01*
X128461000Y-95787300D02*
X127273700Y-94600000D01*
X129994000Y-95773100D02*
X129994000Y-95156000D01*
X128461000Y-95825600D02*
X128461000Y-95940500D01*
X127273700Y-94600000D02*
X126800000Y-94600000D01*
X128461000Y-95940500D02*
X128461000Y-95825600D01*
%TO.N,/aux_cl*%
X128200000Y-109620000D02*
X128200000Y-108543300D01*
X128065400Y-108543300D02*
X128200000Y-108543300D01*
X126675000Y-104755000D02*
X126532300Y-104897700D01*
X126800000Y-95800000D02*
X126675000Y-95925000D01*
X126675000Y-95925000D02*
X126675000Y-104755000D01*
X126532300Y-104897700D02*
X126532300Y-107010200D01*
X126532300Y-107010200D02*
X128065400Y-108543300D01*
%TO.N,Net-(ICM-conn1-Pin_2)*%
X127512700Y-93800000D02*
X126800000Y-93800000D01*
X129244600Y-98868400D02*
X129378800Y-98734200D01*
X129244600Y-100095900D02*
X129244600Y-98868400D01*
X129378800Y-98734200D02*
X129378800Y-95666100D01*
X128788800Y-103463300D02*
X129323700Y-102928400D01*
X128200000Y-103463300D02*
X128788800Y-103463300D01*
X129323700Y-102928400D02*
X129323700Y-100175000D01*
X128200000Y-104540000D02*
X128200000Y-103463300D01*
X129378800Y-95666100D02*
X127512700Y-93800000D01*
X129323700Y-100175000D02*
X129244600Y-100095900D01*
%TO.N,/aux-da*%
X123149700Y-92851700D02*
X123632100Y-92369300D01*
X123500000Y-91700000D02*
X122960900Y-92239100D01*
X122960900Y-94090500D02*
X123470400Y-94600000D01*
X123500000Y-92501400D02*
X123149700Y-92851700D01*
X123500000Y-91700000D02*
X123500000Y-92501400D01*
X122960900Y-92239100D02*
X122960900Y-94090500D01*
X123470400Y-94600000D02*
X123800000Y-94600000D01*
%TO.N,Net-(ICM-conn1-Pin_1)*%
X129015500Y-95729500D02*
X129015500Y-98520600D01*
X126800000Y-94200000D02*
X127486000Y-94200000D01*
X127486000Y-94200000D02*
X129015500Y-95729500D01*
X129015500Y-98520600D02*
X128200000Y-99336100D01*
X128200000Y-99336100D02*
X128200000Y-102000000D01*
%TO.N,Net-(U2-EN)*%
X133632600Y-102867400D02*
X133100000Y-103400000D01*
X133632600Y-99561100D02*
X133632600Y-102867400D01*
X148963900Y-101909400D02*
X148963900Y-100821700D01*
X148850000Y-102023300D02*
X148963900Y-101909400D01*
X148850000Y-103500000D02*
X148850000Y-102023300D01*
%TO.N,Net-(U2-GPIO15)*%
X140164800Y-124443800D02*
X140850000Y-123758600D01*
X156112900Y-123978400D02*
X156112900Y-128258700D01*
X157178900Y-122391400D02*
X156015500Y-122391400D01*
X155696900Y-123562400D02*
X156112900Y-123978400D01*
X157287500Y-122500000D02*
X157178900Y-122391400D01*
X140850000Y-123758600D02*
X140850000Y-118700000D01*
X156015500Y-122391400D02*
X155696900Y-122710000D01*
X155696900Y-122710000D02*
X155696900Y-123562400D01*
%TO.N,Net-(U5-ALERT{slash}RDY)*%
X124127300Y-79610900D02*
X124127300Y-80519600D01*
X123626000Y-72117400D02*
X123626000Y-79109600D01*
X122273300Y-98685800D02*
X124900000Y-101312500D01*
X122273300Y-82373600D02*
X122273300Y-98685800D01*
X125618100Y-72500000D02*
X125898900Y-72219200D01*
X125898900Y-71835800D02*
X125651300Y-71588200D01*
X125898900Y-72219200D02*
X125898900Y-71835800D01*
X123626000Y-79109600D02*
X124127300Y-79610900D01*
X125651300Y-71588200D02*
X124155200Y-71588200D01*
X124127300Y-80519600D02*
X122273300Y-82373600D01*
X124900000Y-72500000D02*
X125618100Y-72500000D01*
X124155200Y-71588200D02*
X123626000Y-72117400D01*
%TO.N,Net-(U7-SDO{slash}AD0)*%
X127934300Y-96158600D02*
X128583100Y-96807400D01*
X128583100Y-96807400D02*
X128583100Y-98321600D01*
X159177800Y-119931000D02*
X159177800Y-120357800D01*
X127934300Y-95757100D02*
X127934300Y-96158600D01*
X159112500Y-131600000D02*
X160193100Y-130519400D01*
X127059000Y-99845700D02*
X127059000Y-106245300D01*
X127177200Y-95000000D02*
X127934300Y-95757100D01*
X159177800Y-120357800D02*
X159177800Y-119931000D01*
X160193100Y-130519400D02*
X160193100Y-121373100D01*
X126800000Y-95000000D02*
X127177200Y-95000000D01*
X128583100Y-98321600D02*
X127059000Y-99845700D01*
X160193100Y-121373100D02*
X159177800Y-120357800D01*
%TO.N,Net-(U7-~{CS})*%
X123395600Y-95000000D02*
X123800000Y-95000000D01*
X122617900Y-94222300D02*
X123395600Y-95000000D01*
X122617900Y-91569600D02*
X122617900Y-94222300D01*
X124187500Y-90000000D02*
X122617900Y-91569600D01*
%TO.N,Net-(SW4-D)*%
X150222300Y-93177700D02*
X150222300Y-101395600D01*
X150500000Y-92900000D02*
X150222300Y-93177700D01*
X150222300Y-101395600D02*
X150850000Y-102023300D01*
X150850000Y-102023300D02*
X150850000Y-103500000D01*
%TD*%
M02*
