%TF.GenerationSoftware,KiCad,Pcbnew,8.0.5*%
%TF.CreationDate,2026-01-01T16:10:54+02:00*%
%TF.ProjectId,scheme,73636865-6d65-42e6-9b69-6361645f7063,rev?*%
%TF.SameCoordinates,Original*%
%TF.FileFunction,Copper,L2,Bot*%
%TF.FilePolarity,Positive*%
%FSLAX46Y46*%
G04 Gerber Fmt 4.6, Leading zero omitted, Abs format (unit mm)*
G04 Created by KiCad (PCBNEW 8.0.5) date 2026-01-01 16:10:54*
%MOMM*%
%LPD*%
G01*
G04 APERTURE LIST*
%TA.AperFunction,ComponentPad*%
%ADD10R,1.800000X1.800000*%
%TD*%
%TA.AperFunction,ComponentPad*%
%ADD11C,1.800000*%
%TD*%
%TA.AperFunction,ComponentPad*%
%ADD12C,2.000000*%
%TD*%
%TA.AperFunction,ComponentPad*%
%ADD13C,1.778000*%
%TD*%
%TA.AperFunction,ComponentPad*%
%ADD14C,2.286000*%
%TD*%
%TA.AperFunction,ComponentPad*%
%ADD15R,1.700000X1.700000*%
%TD*%
%TA.AperFunction,ComponentPad*%
%ADD16O,1.700000X1.700000*%
%TD*%
%TA.AperFunction,ComponentPad*%
%ADD17O,4.140000X2.070000*%
%TD*%
%TA.AperFunction,ComponentPad*%
%ADD18R,2.000000X2.000000*%
%TD*%
%TA.AperFunction,ViaPad*%
%ADD19C,0.600000*%
%TD*%
%TA.AperFunction,Conductor*%
%ADD20C,0.150000*%
%TD*%
G04 APERTURE END LIST*
D10*
%TO.P,D2,1,K*%
%TO.N,Net-(D1-K)*%
X125400000Y-46800000D03*
D11*
%TO.P,D2,2,A*%
%TO.N,Net-(D1-A)*%
X122860000Y-46800000D03*
%TD*%
D12*
%TO.P,SW3,1,C*%
%TO.N,GND*%
X128550000Y-80350000D03*
X135050000Y-80350000D03*
%TO.P,SW3,2,D*%
%TO.N,/btnA*%
X128550000Y-84850000D03*
X135050000Y-84850000D03*
%TD*%
D13*
%TO.P,U1,B1A,B1A*%
%TO.N,/btn_103-530*%
X153318700Y-51575000D03*
%TO.P,U1,B1B,B1B*%
%TO.N,unconnected-(U1-PadB1B)*%
X153318700Y-57925000D03*
%TO.P,U1,B2A,B2A*%
%TO.N,GND*%
X148238700Y-51575000D03*
%TO.P,U1,B2B,B2B*%
%TO.N,unconnected-(U1-PadB2B)*%
X148238700Y-57925000D03*
%TO.P,U1,H1,H+*%
%TO.N,GND*%
X130458700Y-52210000D03*
%TO.P,U1,H2,H*%
%TO.N,/analog0*%
X130458700Y-54750000D03*
%TO.P,U1,H3,H-*%
%TO.N,+3.3V*%
X130458700Y-57290000D03*
D14*
%TO.P,U1,S1,SHIELD*%
%TO.N,GND*%
X147286200Y-47130000D03*
X133951200Y-47130000D03*
X147286200Y-62370000D03*
X133951200Y-62370000D03*
D13*
%TO.P,U1,V1,V+*%
%TO.N,+3.3V*%
X143158700Y-44590000D03*
%TO.P,U1,V2,V*%
%TO.N,/analog1*%
X140618700Y-44590000D03*
%TO.P,U1,V3,V-*%
%TO.N,GND*%
X138078700Y-44590000D03*
%TD*%
D10*
%TO.P,D3,1,K*%
%TO.N,Net-(D1-K)*%
X159675000Y-65400000D03*
D11*
%TO.P,D3,2,A*%
%TO.N,Net-(D1-A)*%
X157135000Y-65400000D03*
%TD*%
D15*
%TO.P,J1,1,Pin_1*%
%TO.N,Net-(J1-Pin_1)*%
X123325000Y-141700000D03*
D16*
%TO.P,J1,2,Pin_2*%
%TO.N,GND*%
X125865000Y-141700000D03*
%TD*%
D12*
%TO.P,SW4,1,C*%
%TO.N,GND*%
X138550000Y-88150000D03*
X145050000Y-88150000D03*
%TO.P,SW4,2,D*%
%TO.N,Net-(SW4-D)*%
X138550000Y-92650000D03*
X145050000Y-92650000D03*
%TD*%
D15*
%TO.P,ICM-conn1,1,Pin_1*%
%TO.N,Net-(ICM-conn1-Pin_1)*%
X128200000Y-102000000D03*
D16*
%TO.P,ICM-conn1,2,Pin_2*%
%TO.N,Net-(ICM-conn1-Pin_2)*%
X128200000Y-104540000D03*
%TO.P,ICM-conn1,3,Pin_3*%
%TO.N,/aux-da*%
X128200000Y-107080000D03*
%TO.P,ICM-conn1,4,Pin_4*%
%TO.N,/aux_cl*%
X128200000Y-109620000D03*
%TD*%
D10*
%TO.P,D1,1,K*%
%TO.N,Net-(D1-K)*%
X159675000Y-46800000D03*
D11*
%TO.P,D1,2,A*%
%TO.N,Net-(D1-A)*%
X157135000Y-46800000D03*
%TD*%
D10*
%TO.P,D4,1,K*%
%TO.N,Net-(D1-K)*%
X125400000Y-65400000D03*
D11*
%TO.P,D4,2,A*%
%TO.N,Net-(D1-A)*%
X122860000Y-65400000D03*
%TD*%
D12*
%TO.P,TP4056-module1,1,dc+*%
%TO.N,+5C*%
X124195000Y-124305000D03*
%TO.P,TP4056-module1,2,dc-*%
%TO.N,GND*%
X124195000Y-138305000D03*
%TO.P,TP4056-module1,3,out+*%
%TO.N,+4.2V*%
X147195000Y-124305000D03*
%TO.P,TP4056-module1,4,out-*%
%TO.N,GND*%
X147195000Y-138305000D03*
%TO.P,TP4056-module1,5,b+*%
%TO.N,Net-(TP4056-module1-b+)*%
X147195000Y-126845000D03*
%TO.P,TP4056-module1,6,b-*%
%TO.N,Net-(TP4056-module1-b-)*%
X147195000Y-135765000D03*
%TD*%
%TO.P,SW2,1,C*%
%TO.N,GND*%
X148500000Y-80400000D03*
X155000000Y-80400000D03*
%TO.P,SW2,2,D*%
%TO.N,/btnY*%
X148500000Y-84900000D03*
X155000000Y-84900000D03*
%TD*%
%TO.P,SW1,1,C*%
%TO.N,GND*%
X138550000Y-72650000D03*
X145050000Y-72650000D03*
%TO.P,SW1,2,D*%
%TO.N,/btnX*%
X138550000Y-77150000D03*
X145050000Y-77150000D03*
%TD*%
D17*
%TO.P,BT1,+*%
%TO.N,Net-(TP4056-module1-b+)*%
X142300000Y-68600000D03*
%TO.P,BT1,-*%
%TO.N,Net-(TP4056-module1-b-)*%
X142300000Y-141500000D03*
%TD*%
D15*
%TO.P,prog1,1,Pin_1*%
%TO.N,+5C*%
X160200000Y-142000000D03*
D16*
%TO.P,prog1,2,Pin_2*%
%TO.N,GND*%
X160200000Y-139460000D03*
%TO.P,prog1,3,Pin_3*%
%TO.N,/tx-out*%
X160200000Y-136920000D03*
%TO.P,prog1,4,Pin_4*%
%TO.N,/rx-out*%
X160200000Y-134380000D03*
%TD*%
D12*
%TO.P,SW5,1,C*%
%TO.N,GND*%
X156050000Y-70050000D03*
X156050000Y-76550000D03*
%TO.P,SW5,2,D*%
%TO.N,/btnB*%
X160550000Y-70050000D03*
X160550000Y-76550000D03*
%TD*%
D18*
%TO.P,C7,1*%
%TO.N,+3.3V*%
X124482300Y-117800000D03*
D12*
%TO.P,C7,2*%
%TO.N,GND*%
X127982300Y-117800000D03*
%TD*%
D19*
%TO.N,+3.3V*%
X137103800Y-119026700D03*
X151517700Y-59752300D03*
X157645600Y-120602800D03*
%TO.N,GND*%
X130400000Y-89078600D03*
X125967200Y-80291500D03*
X124600000Y-91800000D03*
X122990800Y-115464500D03*
%TO.N,/tx-out*%
X154055700Y-135700000D03*
%TO.N,/rx-out*%
X154893400Y-132576500D03*
%TO.N,Net-(J1-Pin_1)*%
X152099100Y-132696800D03*
%TO.N,/SCL*%
X148600500Y-115810400D03*
X156641300Y-94972800D03*
X134562700Y-115602500D03*
X133300000Y-95800900D03*
X149307800Y-97091400D03*
%TO.N,/SDA*%
X130174100Y-99853800D03*
X159378600Y-101478300D03*
X146134300Y-107431600D03*
%TO.N,/btnA*%
X146497600Y-95167800D03*
X157021200Y-124379100D03*
X146277232Y-120822768D03*
%TO.N,/btn_103-530*%
X148091050Y-120808950D03*
X156223600Y-122932500D03*
%TO.N,/btnB*%
X149210300Y-86752500D03*
%TO.N,+4.2V*%
X149565500Y-89078600D03*
X158526400Y-89078600D03*
%TO.N,+1.8V*%
X126107800Y-97829800D03*
X151991800Y-127389700D03*
X130569800Y-119562400D03*
X154654500Y-97185700D03*
X127987500Y-97655600D03*
%TO.N,/SCL_1.8*%
X156641300Y-99680000D03*
X122838600Y-97680100D03*
X131411900Y-104834200D03*
%TO.N,/SDA_1.8*%
X159792000Y-97423000D03*
X129994000Y-98634800D03*
X123697200Y-98359100D03*
%TO.N,Net-(Q1-B)*%
X125758350Y-92041650D03*
X143143900Y-95080500D03*
%TO.N,Net-(U7-REGOUT)*%
X128461000Y-95940500D03*
X129994000Y-95773100D03*
%TO.N,/aux-da*%
X123500000Y-91700000D03*
%TO.N,Net-(U2-EN)*%
X148963900Y-100821700D03*
X133632600Y-99561100D03*
%TO.N,Net-(U2-GPIO15)*%
X156112900Y-128258700D03*
X140164800Y-124443800D03*
%TO.N,Net-(U7-SDO{slash}AD0)*%
X159177800Y-120357800D03*
X127059000Y-106245300D03*
%TO.N,Net-(SW4-D)*%
X150500000Y-92900000D03*
%TD*%
D20*
%TO.N,+3.3V*%
X157645600Y-120602800D02*
X157927300Y-120884500D01*
X149215500Y-119026700D02*
X137103800Y-119026700D01*
X124482300Y-117800000D02*
X125709000Y-117800000D01*
X142574100Y-53853500D02*
X139137600Y-57290000D01*
X143158700Y-44590000D02*
X146712000Y-44590000D01*
X157927300Y-120884500D02*
X157645600Y-120602800D01*
X150791600Y-120602800D02*
X149215500Y-119026700D01*
X148679400Y-47748200D02*
X142574100Y-53853500D01*
X137103800Y-119026700D02*
X126935700Y-119026700D01*
X148679400Y-46557400D02*
X148679400Y-47748200D01*
X157645600Y-120602800D02*
X150791600Y-120602800D01*
X139137600Y-57290000D02*
X130458700Y-57290000D01*
X151517700Y-59752300D02*
X148472900Y-59752300D01*
X126935700Y-119026700D02*
X125709000Y-117800000D01*
X148472900Y-59752300D02*
X142574100Y-53853500D01*
X146712000Y-44590000D02*
X148679400Y-46557400D01*
%TO.N,GND*%
X135100000Y-80400000D02*
X135050000Y-80350000D01*
X128550000Y-80350000D02*
X126025700Y-80350000D01*
X124600000Y-91800000D02*
X124600000Y-91334700D01*
X155000000Y-77600000D02*
X156050000Y-76550000D01*
X125646800Y-115464500D02*
X122990800Y-115464500D01*
X157968300Y-138305000D02*
X159123300Y-139460000D01*
X136491200Y-44590000D02*
X133951200Y-47130000D01*
X130698900Y-89078600D02*
X130400000Y-89078600D01*
X140618700Y-47130000D02*
X147286200Y-47130000D01*
X124300000Y-91634700D02*
X124465300Y-91800000D01*
X145050000Y-72650000D02*
X153450000Y-72650000D01*
X133951200Y-48717500D02*
X133951200Y-47130000D01*
X138078700Y-44590000D02*
X140618700Y-47130000D01*
X143900800Y-142777600D02*
X147195000Y-139483400D01*
X135050000Y-80350000D02*
X128550000Y-80350000D01*
X126856100Y-89078600D02*
X130698900Y-89078600D01*
X126025700Y-80350000D02*
X125967200Y-80291500D01*
X155000000Y-80400000D02*
X148500000Y-80400000D01*
X125865000Y-141700000D02*
X126941700Y-141700000D01*
X153450000Y-72650000D02*
X156050000Y-70050000D01*
X145050000Y-88150000D02*
X138550000Y-88150000D01*
X130458700Y-52210000D02*
X133951200Y-48717500D01*
X138078700Y-44590000D02*
X136491200Y-44590000D01*
X126941700Y-141700000D02*
X128019300Y-142777600D01*
X124667000Y-91267700D02*
X124300000Y-91634700D01*
X138550000Y-72650000D02*
X145050000Y-72650000D01*
X128019300Y-142777600D02*
X143900800Y-142777600D01*
X124465300Y-91800000D02*
X124600000Y-91800000D01*
X160200000Y-139460000D02*
X159123300Y-139460000D01*
X147195000Y-139483400D02*
X147195000Y-138305000D01*
X155000000Y-80400000D02*
X155000000Y-77600000D01*
X127982300Y-117800000D02*
X125646800Y-115464500D01*
X147195000Y-138305000D02*
X157968300Y-138305000D01*
X124600000Y-91334700D02*
X126856100Y-89078600D01*
X133951200Y-62370000D02*
X147286200Y-62370000D01*
X148500000Y-80400000D02*
X135100000Y-80400000D01*
%TO.N,+5C*%
X160200000Y-140923300D02*
X160334700Y-140923300D01*
X148845400Y-128690300D02*
X128580300Y-128690300D01*
X155911300Y-135756200D02*
X148845400Y-128690300D01*
X160577100Y-135756200D02*
X155911300Y-135756200D01*
X161276700Y-139981300D02*
X161276700Y-136455800D01*
X161276700Y-136455800D02*
X160577100Y-135756200D01*
X160200000Y-142000000D02*
X160200000Y-140923300D01*
X128580300Y-128690300D02*
X124195000Y-124305000D01*
X160334700Y-140923300D02*
X161276700Y-139981300D01*
%TO.N,Net-(TP4056-module1-b-)*%
X142300000Y-141500000D02*
X142300000Y-140238300D01*
X142721700Y-140238300D02*
X142300000Y-140238300D01*
X147195000Y-135765000D02*
X142721700Y-140238300D01*
%TO.N,/tx-out*%
X160200000Y-136920000D02*
X155275700Y-136920000D01*
X154094900Y-135739200D02*
X154055700Y-135700000D01*
X154055700Y-135700000D02*
X154094900Y-135739200D01*
X155275700Y-136920000D02*
X154055700Y-135700000D01*
%TO.N,Net-(D1-K)*%
X158548300Y-65681700D02*
X157703300Y-66526700D01*
X158548300Y-65400000D02*
X158548300Y-65681700D01*
X125400000Y-65400000D02*
X126526700Y-65400000D01*
X157703300Y-66526700D02*
X127653400Y-66526700D01*
X159675000Y-65400000D02*
X158548300Y-65400000D01*
X127653400Y-66526700D02*
X126526700Y-65400000D01*
%TO.N,/rx-out*%
X157319800Y-132576500D02*
X159123300Y-134380000D01*
X154893400Y-132576500D02*
X157319800Y-132576500D01*
X160200000Y-134380000D02*
X159123300Y-134380000D01*
%TO.N,Net-(J1-Pin_1)*%
X137327400Y-140623300D02*
X125343700Y-140623300D01*
X145253900Y-132696800D02*
X137327400Y-140623300D01*
X152099100Y-132696800D02*
X151090100Y-131687800D01*
X123325000Y-141700000D02*
X124401700Y-141700000D01*
X124401700Y-141565300D02*
X124401700Y-141700000D01*
X151090100Y-131687800D02*
X152099100Y-132696800D01*
X125343700Y-140623300D02*
X124401700Y-141565300D01*
X152099100Y-132696800D02*
X145253900Y-132696800D01*
%TO.N,/SCL*%
X156641300Y-94972800D02*
X151426400Y-94972800D01*
X148392600Y-115602500D02*
X148600500Y-115810400D01*
X133300000Y-95800900D02*
X134590500Y-97091400D01*
X151426400Y-94972800D02*
X149307800Y-97091400D01*
X134590500Y-97091400D02*
X149307800Y-97091400D01*
X134562700Y-115602500D02*
X148392600Y-115602500D01*
X134562700Y-115602500D02*
X134167500Y-115207300D01*
X134167500Y-115207300D02*
X134562700Y-115602500D01*
%TO.N,/SDA*%
X137751900Y-107431600D02*
X130174100Y-99853800D01*
X152087600Y-101478300D02*
X146134300Y-107431600D01*
X146134300Y-107431600D02*
X137751900Y-107431600D01*
X159378600Y-101478300D02*
X152087600Y-101478300D01*
%TO.N,/btnA*%
X146400068Y-120822768D02*
X149956400Y-124379100D01*
X135050000Y-84850000D02*
X128550000Y-84850000D01*
X138051000Y-93906200D02*
X145236000Y-93906200D01*
X146277232Y-120822768D02*
X146400068Y-120822768D01*
X145236000Y-93906200D02*
X146497600Y-95167800D01*
X149956400Y-124379100D02*
X157021200Y-124379100D01*
X135050000Y-84850000D02*
X135050000Y-90905200D01*
X135050000Y-90905200D02*
X138051000Y-93906200D01*
%TO.N,/btn_103-530*%
X156223600Y-122932500D02*
X156308200Y-123017100D01*
X156308200Y-123017100D02*
X156223600Y-122932500D01*
X148091050Y-120808950D02*
X150214500Y-122932400D01*
X150214500Y-122932400D02*
X156223600Y-122932400D01*
X156223600Y-122932400D02*
X156223600Y-122932500D01*
%TO.N,/btnY*%
X155000000Y-84900000D02*
X148500000Y-84900000D01*
%TO.N,/btnB*%
X149210300Y-86752500D02*
X148567100Y-86752500D01*
X147252500Y-84358300D02*
X149512300Y-82098500D01*
X147252500Y-85437900D02*
X147252500Y-84358300D01*
X155105200Y-82098500D02*
X160550000Y-76653700D01*
X149512300Y-82098500D02*
X155105200Y-82098500D01*
X160550000Y-76653700D02*
X160550000Y-76550000D01*
X148567100Y-86752500D02*
X147252500Y-85437900D01*
%TO.N,/btnX*%
X145050000Y-77284700D02*
X145050000Y-77150000D01*
X138550000Y-77150000D02*
X140576600Y-79176600D01*
X143158100Y-79176600D02*
X145050000Y-77284700D01*
X140576600Y-79176600D02*
X143158100Y-79176600D01*
%TO.N,Net-(D1-A)*%
X123986700Y-64273300D02*
X156008300Y-64273300D01*
X122860000Y-65400000D02*
X123986700Y-64273300D01*
X156008300Y-64273300D02*
X157135000Y-65400000D01*
%TO.N,+4.2V*%
X149565500Y-89078600D02*
X158526400Y-89078600D01*
%TO.N,+1.8V*%
X151991800Y-127279800D02*
X151991800Y-127389700D01*
X127987500Y-97655600D02*
X127813300Y-97829800D01*
X144274400Y-119562400D02*
X151991800Y-127279800D01*
X127813300Y-97829800D02*
X126107800Y-97829800D01*
X130569800Y-119562400D02*
X144274400Y-119562400D01*
X154184600Y-97655600D02*
X127987500Y-97655600D01*
X154654500Y-97185700D02*
X154184600Y-97655600D01*
%TO.N,/SCL_1.8*%
X123718300Y-99194900D02*
X122838600Y-98315200D01*
X129644900Y-99194900D02*
X123718300Y-99194900D01*
X122838600Y-98315200D02*
X122838600Y-97680100D01*
X155951100Y-98989800D02*
X131702800Y-98989800D01*
X131411900Y-104834200D02*
X129644900Y-103067200D01*
X129644900Y-103067200D02*
X129644900Y-99194900D01*
X131702800Y-98989800D02*
X131497700Y-99194900D01*
X131497700Y-99194900D02*
X129644900Y-99194900D01*
X156641300Y-99680000D02*
X155951100Y-98989800D01*
%TO.N,/SDA_1.8*%
X129857100Y-98634800D02*
X129581400Y-98359100D01*
X129994000Y-98634800D02*
X129973400Y-98655400D01*
X129857100Y-98634800D02*
X129994000Y-98634800D01*
X129581400Y-98359100D02*
X123697200Y-98359100D01*
X158580200Y-98634800D02*
X129857100Y-98634800D01*
X159792000Y-97423000D02*
X158580200Y-98634800D01*
X129973400Y-98655400D02*
X129994000Y-98634800D01*
%TO.N,Net-(Q1-B)*%
X125758350Y-92041650D02*
X128797200Y-95080500D01*
X128797200Y-95080500D02*
X143143900Y-95080500D01*
%TO.N,Net-(U7-REGOUT)*%
X128628400Y-95773100D02*
X128461000Y-95940500D01*
X129692200Y-95773100D02*
X129980800Y-95773100D01*
X128461000Y-95825600D02*
X128461000Y-95940500D01*
X129692200Y-95773100D02*
X128628400Y-95773100D01*
X128461000Y-95940500D02*
X128461000Y-95825600D01*
X129980800Y-95773100D02*
X129994000Y-95773100D01*
%TO.N,/aux-da*%
X123149700Y-92851700D02*
X123632100Y-92369300D01*
X122279800Y-93720000D02*
X122279800Y-100179800D01*
X128103300Y-106003300D02*
X128200000Y-106003300D01*
X123500000Y-91700000D02*
X123500000Y-92499800D01*
X123500000Y-91700000D02*
X123500000Y-92501400D01*
X122279800Y-100179800D02*
X128103300Y-106003300D01*
X123500000Y-92501400D02*
X123149700Y-92851700D01*
X128200000Y-106003300D02*
X128200000Y-107080000D01*
X123500000Y-92499800D02*
X122279800Y-93720000D01*
%TO.N,Net-(U2-EN)*%
X148963900Y-100821700D02*
X147703300Y-99561100D01*
X147703300Y-99561100D02*
X133632600Y-99561100D01*
%TO.N,Net-(U2-GPIO15)*%
X156112900Y-128258700D02*
X143979700Y-128258700D01*
X143979700Y-128258700D02*
X140164800Y-124443800D01*
%TO.N,Net-(U7-SDO{slash}AD0)*%
X142589100Y-108515000D02*
X128046700Y-108515000D01*
X154005100Y-119931000D02*
X142589100Y-108515000D01*
X127100200Y-106204100D02*
X127059000Y-106245300D01*
X159177800Y-120357800D02*
X158751000Y-119931000D01*
X159177800Y-120357800D02*
X159177800Y-119931000D01*
X128046700Y-108515000D02*
X127059100Y-107527400D01*
X158751000Y-119931000D02*
X154005100Y-119931000D01*
X127059100Y-107527400D02*
X127059100Y-106245300D01*
X127059000Y-106245300D02*
X127100200Y-106204100D01*
X159177800Y-119931000D02*
X159177800Y-120357800D01*
X127059100Y-106245300D02*
X127059000Y-106245300D01*
%TO.N,Net-(SW4-D)*%
X138550000Y-92650000D02*
X145050000Y-92650000D01*
X150250000Y-92650000D02*
X145050000Y-92650000D01*
X150500000Y-92900000D02*
X150250000Y-92650000D01*
%TD*%
M02*
