M48
; DRILL file {KiCad 8.0.5} date 2026-01-06T21:14:34+0200
; FORMAT={-:-/ absolute / inch / decimal}
; #@! TF.CreationDate,2026-01-06T21:14:34+02:00
; #@! TF.GenerationSoftware,Kicad,Pcbnew,8.0.5
; #@! TF.FileFunction,Plated,1,2,PTH
FMAT,2
INCH
; #@! TA.AperFunction,Plated,PTH,ViaDrill
T1C0.0118
; #@! TA.AperFunction,Plated,PTH,ComponentDrill
T2C0.0315
; #@! TA.AperFunction,Plated,PTH,ComponentDrill
T3C0.0350
; #@! TA.AperFunction,Plated,PTH,ComponentDrill
T4C0.0354
; #@! TA.AperFunction,Plated,PTH,ComponentDrill
T5C0.0394
; #@! TA.AperFunction,Plated,PTH,ComponentDrill
T6C0.0433
; #@! TA.AperFunction,Plated,PTH,ComponentDrill
T7C0.0543
; #@! TA.AperFunction,Plated,PTH,ComponentDrill
T8C0.0550
%
G90
G05
T1
X4.8057Y-3.8551
X4.8327Y-3.6417
X4.8422Y-3.019
X4.8422Y-3.1843
X4.8473Y-3.7703
X4.9279Y-3.6497
X4.9501Y-3.8775
X5.041Y-4.1339
X5.0638Y-3.0682
X5.1083Y-3.7283
X5.1516Y-4.2238
X5.1557Y-3.0682
X5.1557Y-3.6319
X5.1673Y-4.564
X5.1791Y-5.0154
X5.1791Y-5.1314
X5.1803Y-3.9711
X5.2127Y-4.2386
X5.2152Y-3.6328
X5.2922Y-2.835
X5.2953Y-4.5866
X5.3135Y-2.6829
X5.315Y-4.5276
X5.3188Y-4.0295
X5.3516Y-2.7641
X5.3923Y-2.8506
X5.4304Y-3.1317
X5.5183Y-4.9315
X5.5217Y-3.4606
X5.6292Y-3.5679
X5.6314Y-4.2032
X5.7402Y-2.3425
X5.7564Y-4.1594
X5.7833Y-3.275
X5.8198Y-3.9665
X5.8234Y-4.1692
X5.8257Y-4.5818
X5.8272Y-3.6191
X5.8713Y-4.5596
X5.872Y-4.2185
X5.8876Y-4.931
X5.9333Y-5.2508
X5.9365Y-2.9269
X5.9833Y-4.9936
X5.9862Y-3.5284
X6.0044Y-4.2032
X6.1516Y-2.3425
X6.1966Y-4.5513
X6.3108Y-3.5922
T2
X6.252Y-5.3583
X6.252Y-5.437
X6.252Y-5.5157
T3
X5.1362Y-2.0555
X5.1362Y-2.1555
X5.1362Y-2.2555
X5.4362Y-1.7555
X5.5362Y-1.7555
X5.6362Y-1.7555
T4
X4.837Y-1.8425
X4.837Y-2.5748
X4.937Y-1.8425
X4.937Y-2.5748
X5.8362Y-2.0305
X5.8362Y-2.2805
X6.0362Y-2.0305
X6.0362Y-2.2805
X6.1864Y-1.8425
X6.1864Y-2.5748
X6.2864Y-1.8425
X6.2864Y-2.5748
T5
X4.8817Y-5.0238
X4.8817Y-5.575
X5.7872Y-5.0238
X5.7872Y-5.1238
X5.7872Y-5.475
X5.7872Y-5.575
X6.2913Y-2.0425
X6.2913Y-2.1425
X6.2913Y-2.2425
X6.2913Y-2.3425
X6.2913Y-4.6016
X6.2913Y-4.7016
X6.2913Y-4.8016
X6.2913Y-4.9016
X6.2913Y-5.0482
X6.2913Y-5.1482
T6
X5.061Y-3.1634
X5.061Y-3.3406
X5.3169Y-3.1634
X5.3169Y-3.3406
X5.4547Y-2.8602
X5.4547Y-3.0374
X5.4547Y-3.4705
X5.4547Y-3.6476
X5.7106Y-2.8602
X5.7106Y-3.0374
X5.7106Y-3.4705
X5.7106Y-3.6476
X5.8465Y-3.1654
X5.8465Y-3.3425
X6.1024Y-3.1654
X6.1024Y-3.3425
X6.1437Y-2.7579
X6.1437Y-3.0138
X6.3209Y-2.7579
X6.3209Y-3.0138
T8
X5.2737Y-1.8555
X5.2737Y-2.4555
X5.7987Y-1.8555
X5.7987Y-2.4555
T7
G00X5.6224Y-3.2717
M15
G01X5.5823Y-3.2717
M16
G05
G00X5.6224Y-6.0276
M15
G01X5.5823Y-6.0276
M16
G05
M30
