%TF.GenerationSoftware,KiCad,Pcbnew,8.0.5*%
%TF.CreationDate,2026-01-01T16:10:54+02:00*%
%TF.ProjectId,scheme,73636865-6d65-42e6-9b69-6361645f7063,rev?*%
%TF.SameCoordinates,Original*%
%TF.FileFunction,Legend,Top*%
%TF.FilePolarity,Positive*%
%FSLAX46Y46*%
G04 Gerber Fmt 4.6, Leading zero omitted, Abs format (unit mm)*
G04 Created by KiCad (PCBNEW 8.0.5) date 2026-01-01 16:10:54*
%MOMM*%
%LPD*%
G01*
G04 APERTURE LIST*
%ADD10C,0.150000*%
%ADD11C,0.100000*%
%ADD12C,0.120000*%
%ADD13C,0.127000*%
%ADD14C,0.200000*%
G04 APERTURE END LIST*
D10*
X123391905Y-51214819D02*
X123391905Y-50214819D01*
X123391905Y-50214819D02*
X123630000Y-50214819D01*
X123630000Y-50214819D02*
X123772857Y-50262438D01*
X123772857Y-50262438D02*
X123868095Y-50357676D01*
X123868095Y-50357676D02*
X123915714Y-50452914D01*
X123915714Y-50452914D02*
X123963333Y-50643390D01*
X123963333Y-50643390D02*
X123963333Y-50786247D01*
X123963333Y-50786247D02*
X123915714Y-50976723D01*
X123915714Y-50976723D02*
X123868095Y-51071961D01*
X123868095Y-51071961D02*
X123772857Y-51167200D01*
X123772857Y-51167200D02*
X123630000Y-51214819D01*
X123630000Y-51214819D02*
X123391905Y-51214819D01*
X124344286Y-50310057D02*
X124391905Y-50262438D01*
X124391905Y-50262438D02*
X124487143Y-50214819D01*
X124487143Y-50214819D02*
X124725238Y-50214819D01*
X124725238Y-50214819D02*
X124820476Y-50262438D01*
X124820476Y-50262438D02*
X124868095Y-50310057D01*
X124868095Y-50310057D02*
X124915714Y-50405295D01*
X124915714Y-50405295D02*
X124915714Y-50500533D01*
X124915714Y-50500533D02*
X124868095Y-50643390D01*
X124868095Y-50643390D02*
X124296667Y-51214819D01*
X124296667Y-51214819D02*
X124915714Y-51214819D01*
X153133333Y-135704819D02*
X152800000Y-135228628D01*
X152561905Y-135704819D02*
X152561905Y-134704819D01*
X152561905Y-134704819D02*
X152942857Y-134704819D01*
X152942857Y-134704819D02*
X153038095Y-134752438D01*
X153038095Y-134752438D02*
X153085714Y-134800057D01*
X153085714Y-134800057D02*
X153133333Y-134895295D01*
X153133333Y-134895295D02*
X153133333Y-135038152D01*
X153133333Y-135038152D02*
X153085714Y-135133390D01*
X153085714Y-135133390D02*
X153038095Y-135181009D01*
X153038095Y-135181009D02*
X152942857Y-135228628D01*
X152942857Y-135228628D02*
X152561905Y-135228628D01*
X153990476Y-135038152D02*
X153990476Y-135704819D01*
X153752381Y-134657200D02*
X153514286Y-135371485D01*
X153514286Y-135371485D02*
X154133333Y-135371485D01*
X154904819Y-66742857D02*
X154428628Y-67076190D01*
X154904819Y-67314285D02*
X153904819Y-67314285D01*
X153904819Y-67314285D02*
X153904819Y-66933333D01*
X153904819Y-66933333D02*
X153952438Y-66838095D01*
X153952438Y-66838095D02*
X154000057Y-66790476D01*
X154000057Y-66790476D02*
X154095295Y-66742857D01*
X154095295Y-66742857D02*
X154238152Y-66742857D01*
X154238152Y-66742857D02*
X154333390Y-66790476D01*
X154333390Y-66790476D02*
X154381009Y-66838095D01*
X154381009Y-66838095D02*
X154428628Y-66933333D01*
X154428628Y-66933333D02*
X154428628Y-67314285D01*
X154904819Y-65790476D02*
X154904819Y-66361904D01*
X154904819Y-66076190D02*
X153904819Y-66076190D01*
X153904819Y-66076190D02*
X154047676Y-66171428D01*
X154047676Y-66171428D02*
X154142914Y-66266666D01*
X154142914Y-66266666D02*
X154190533Y-66361904D01*
X153904819Y-65457142D02*
X153904819Y-64838095D01*
X153904819Y-64838095D02*
X154285771Y-65171428D01*
X154285771Y-65171428D02*
X154285771Y-65028571D01*
X154285771Y-65028571D02*
X154333390Y-64933333D01*
X154333390Y-64933333D02*
X154381009Y-64885714D01*
X154381009Y-64885714D02*
X154476247Y-64838095D01*
X154476247Y-64838095D02*
X154714342Y-64838095D01*
X154714342Y-64838095D02*
X154809580Y-64885714D01*
X154809580Y-64885714D02*
X154857200Y-64933333D01*
X154857200Y-64933333D02*
X154904819Y-65028571D01*
X154904819Y-65028571D02*
X154904819Y-65314285D01*
X154904819Y-65314285D02*
X154857200Y-65409523D01*
X154857200Y-65409523D02*
X154809580Y-65457142D01*
X157557142Y-133704819D02*
X157223809Y-133228628D01*
X156985714Y-133704819D02*
X156985714Y-132704819D01*
X156985714Y-132704819D02*
X157366666Y-132704819D01*
X157366666Y-132704819D02*
X157461904Y-132752438D01*
X157461904Y-132752438D02*
X157509523Y-132800057D01*
X157509523Y-132800057D02*
X157557142Y-132895295D01*
X157557142Y-132895295D02*
X157557142Y-133038152D01*
X157557142Y-133038152D02*
X157509523Y-133133390D01*
X157509523Y-133133390D02*
X157461904Y-133181009D01*
X157461904Y-133181009D02*
X157366666Y-133228628D01*
X157366666Y-133228628D02*
X156985714Y-133228628D01*
X158509523Y-133704819D02*
X157938095Y-133704819D01*
X158223809Y-133704819D02*
X158223809Y-132704819D01*
X158223809Y-132704819D02*
X158128571Y-132847676D01*
X158128571Y-132847676D02*
X158033333Y-132942914D01*
X158033333Y-132942914D02*
X157938095Y-132990533D01*
X159366666Y-133038152D02*
X159366666Y-133704819D01*
X159128571Y-132657200D02*
X158890476Y-133371485D01*
X158890476Y-133371485D02*
X159509523Y-133371485D01*
X121504819Y-95561904D02*
X122314342Y-95561904D01*
X122314342Y-95561904D02*
X122409580Y-95514285D01*
X122409580Y-95514285D02*
X122457200Y-95466666D01*
X122457200Y-95466666D02*
X122504819Y-95371428D01*
X122504819Y-95371428D02*
X122504819Y-95180952D01*
X122504819Y-95180952D02*
X122457200Y-95085714D01*
X122457200Y-95085714D02*
X122409580Y-95038095D01*
X122409580Y-95038095D02*
X122314342Y-94990476D01*
X122314342Y-94990476D02*
X121504819Y-94990476D01*
X121504819Y-94609523D02*
X121504819Y-93942857D01*
X121504819Y-93942857D02*
X122504819Y-94371428D01*
X130466667Y-78757200D02*
X130609524Y-78804819D01*
X130609524Y-78804819D02*
X130847619Y-78804819D01*
X130847619Y-78804819D02*
X130942857Y-78757200D01*
X130942857Y-78757200D02*
X130990476Y-78709580D01*
X130990476Y-78709580D02*
X131038095Y-78614342D01*
X131038095Y-78614342D02*
X131038095Y-78519104D01*
X131038095Y-78519104D02*
X130990476Y-78423866D01*
X130990476Y-78423866D02*
X130942857Y-78376247D01*
X130942857Y-78376247D02*
X130847619Y-78328628D01*
X130847619Y-78328628D02*
X130657143Y-78281009D01*
X130657143Y-78281009D02*
X130561905Y-78233390D01*
X130561905Y-78233390D02*
X130514286Y-78185771D01*
X130514286Y-78185771D02*
X130466667Y-78090533D01*
X130466667Y-78090533D02*
X130466667Y-77995295D01*
X130466667Y-77995295D02*
X130514286Y-77900057D01*
X130514286Y-77900057D02*
X130561905Y-77852438D01*
X130561905Y-77852438D02*
X130657143Y-77804819D01*
X130657143Y-77804819D02*
X130895238Y-77804819D01*
X130895238Y-77804819D02*
X131038095Y-77852438D01*
X131371429Y-77804819D02*
X131609524Y-78804819D01*
X131609524Y-78804819D02*
X131800000Y-78090533D01*
X131800000Y-78090533D02*
X131990476Y-78804819D01*
X131990476Y-78804819D02*
X132228572Y-77804819D01*
X132514286Y-77804819D02*
X133133333Y-77804819D01*
X133133333Y-77804819D02*
X132800000Y-78185771D01*
X132800000Y-78185771D02*
X132942857Y-78185771D01*
X132942857Y-78185771D02*
X133038095Y-78233390D01*
X133038095Y-78233390D02*
X133085714Y-78281009D01*
X133085714Y-78281009D02*
X133133333Y-78376247D01*
X133133333Y-78376247D02*
X133133333Y-78614342D01*
X133133333Y-78614342D02*
X133085714Y-78709580D01*
X133085714Y-78709580D02*
X133038095Y-78757200D01*
X133038095Y-78757200D02*
X132942857Y-78804819D01*
X132942857Y-78804819D02*
X132657143Y-78804819D01*
X132657143Y-78804819D02*
X132561905Y-78757200D01*
X132561905Y-78757200D02*
X132514286Y-78709580D01*
X155308519Y-52886904D02*
X156118042Y-52886904D01*
X156118042Y-52886904D02*
X156213280Y-52839285D01*
X156213280Y-52839285D02*
X156260900Y-52791666D01*
X156260900Y-52791666D02*
X156308519Y-52696428D01*
X156308519Y-52696428D02*
X156308519Y-52505952D01*
X156308519Y-52505952D02*
X156260900Y-52410714D01*
X156260900Y-52410714D02*
X156213280Y-52363095D01*
X156213280Y-52363095D02*
X156118042Y-52315476D01*
X156118042Y-52315476D02*
X155308519Y-52315476D01*
X156308519Y-51315476D02*
X156308519Y-51886904D01*
X156308519Y-51601190D02*
X155308519Y-51601190D01*
X155308519Y-51601190D02*
X155451376Y-51696428D01*
X155451376Y-51696428D02*
X155546614Y-51791666D01*
X155546614Y-51791666D02*
X155594233Y-51886904D01*
X157666905Y-69814819D02*
X157666905Y-68814819D01*
X157666905Y-68814819D02*
X157905000Y-68814819D01*
X157905000Y-68814819D02*
X158047857Y-68862438D01*
X158047857Y-68862438D02*
X158143095Y-68957676D01*
X158143095Y-68957676D02*
X158190714Y-69052914D01*
X158190714Y-69052914D02*
X158238333Y-69243390D01*
X158238333Y-69243390D02*
X158238333Y-69386247D01*
X158238333Y-69386247D02*
X158190714Y-69576723D01*
X158190714Y-69576723D02*
X158143095Y-69671961D01*
X158143095Y-69671961D02*
X158047857Y-69767200D01*
X158047857Y-69767200D02*
X157905000Y-69814819D01*
X157905000Y-69814819D02*
X157666905Y-69814819D01*
X158571667Y-68814819D02*
X159190714Y-68814819D01*
X159190714Y-68814819D02*
X158857381Y-69195771D01*
X158857381Y-69195771D02*
X159000238Y-69195771D01*
X159000238Y-69195771D02*
X159095476Y-69243390D01*
X159095476Y-69243390D02*
X159143095Y-69291009D01*
X159143095Y-69291009D02*
X159190714Y-69386247D01*
X159190714Y-69386247D02*
X159190714Y-69624342D01*
X159190714Y-69624342D02*
X159143095Y-69719580D01*
X159143095Y-69719580D02*
X159095476Y-69767200D01*
X159095476Y-69767200D02*
X159000238Y-69814819D01*
X159000238Y-69814819D02*
X158714524Y-69814819D01*
X158714524Y-69814819D02*
X158619286Y-69767200D01*
X158619286Y-69767200D02*
X158571667Y-69719580D01*
D11*
X159219047Y-83499847D02*
X159219047Y-83823657D01*
X159219047Y-83823657D02*
X159242857Y-83861752D01*
X159242857Y-83861752D02*
X159266666Y-83880800D01*
X159266666Y-83880800D02*
X159314285Y-83899847D01*
X159314285Y-83899847D02*
X159409523Y-83899847D01*
X159409523Y-83899847D02*
X159457142Y-83880800D01*
X159457142Y-83880800D02*
X159480952Y-83861752D01*
X159480952Y-83861752D02*
X159504761Y-83823657D01*
X159504761Y-83823657D02*
X159504761Y-83499847D01*
X159957143Y-83633180D02*
X159957143Y-83899847D01*
X159838095Y-83480800D02*
X159719048Y-83766514D01*
X159719048Y-83766514D02*
X160028571Y-83766514D01*
D10*
X124261666Y-138824819D02*
X124261666Y-139539104D01*
X124261666Y-139539104D02*
X124214047Y-139681961D01*
X124214047Y-139681961D02*
X124118809Y-139777200D01*
X124118809Y-139777200D02*
X123975952Y-139824819D01*
X123975952Y-139824819D02*
X123880714Y-139824819D01*
X125261666Y-139824819D02*
X124690238Y-139824819D01*
X124975952Y-139824819D02*
X124975952Y-138824819D01*
X124975952Y-138824819D02*
X124880714Y-138967676D01*
X124880714Y-138967676D02*
X124785476Y-139062914D01*
X124785476Y-139062914D02*
X124690238Y-139110533D01*
X129079580Y-93966666D02*
X129127200Y-94014285D01*
X129127200Y-94014285D02*
X129174819Y-94157142D01*
X129174819Y-94157142D02*
X129174819Y-94252380D01*
X129174819Y-94252380D02*
X129127200Y-94395237D01*
X129127200Y-94395237D02*
X129031961Y-94490475D01*
X129031961Y-94490475D02*
X128936723Y-94538094D01*
X128936723Y-94538094D02*
X128746247Y-94585713D01*
X128746247Y-94585713D02*
X128603390Y-94585713D01*
X128603390Y-94585713D02*
X128412914Y-94538094D01*
X128412914Y-94538094D02*
X128317676Y-94490475D01*
X128317676Y-94490475D02*
X128222438Y-94395237D01*
X128222438Y-94395237D02*
X128174819Y-94252380D01*
X128174819Y-94252380D02*
X128174819Y-94157142D01*
X128174819Y-94157142D02*
X128222438Y-94014285D01*
X128222438Y-94014285D02*
X128270057Y-93966666D01*
X129174819Y-93490475D02*
X129174819Y-93299999D01*
X129174819Y-93299999D02*
X129127200Y-93204761D01*
X129127200Y-93204761D02*
X129079580Y-93157142D01*
X129079580Y-93157142D02*
X128936723Y-93061904D01*
X128936723Y-93061904D02*
X128746247Y-93014285D01*
X128746247Y-93014285D02*
X128365295Y-93014285D01*
X128365295Y-93014285D02*
X128270057Y-93061904D01*
X128270057Y-93061904D02*
X128222438Y-93109523D01*
X128222438Y-93109523D02*
X128174819Y-93204761D01*
X128174819Y-93204761D02*
X128174819Y-93395237D01*
X128174819Y-93395237D02*
X128222438Y-93490475D01*
X128222438Y-93490475D02*
X128270057Y-93538094D01*
X128270057Y-93538094D02*
X128365295Y-93585713D01*
X128365295Y-93585713D02*
X128603390Y-93585713D01*
X128603390Y-93585713D02*
X128698628Y-93538094D01*
X128698628Y-93538094D02*
X128746247Y-93490475D01*
X128746247Y-93490475D02*
X128793866Y-93395237D01*
X128793866Y-93395237D02*
X128793866Y-93204761D01*
X128793866Y-93204761D02*
X128746247Y-93109523D01*
X128746247Y-93109523D02*
X128698628Y-93061904D01*
X128698628Y-93061904D02*
X128603390Y-93014285D01*
X124333333Y-107739580D02*
X124285714Y-107787200D01*
X124285714Y-107787200D02*
X124142857Y-107834819D01*
X124142857Y-107834819D02*
X124047619Y-107834819D01*
X124047619Y-107834819D02*
X123904762Y-107787200D01*
X123904762Y-107787200D02*
X123809524Y-107691961D01*
X123809524Y-107691961D02*
X123761905Y-107596723D01*
X123761905Y-107596723D02*
X123714286Y-107406247D01*
X123714286Y-107406247D02*
X123714286Y-107263390D01*
X123714286Y-107263390D02*
X123761905Y-107072914D01*
X123761905Y-107072914D02*
X123809524Y-106977676D01*
X123809524Y-106977676D02*
X123904762Y-106882438D01*
X123904762Y-106882438D02*
X124047619Y-106834819D01*
X124047619Y-106834819D02*
X124142857Y-106834819D01*
X124142857Y-106834819D02*
X124285714Y-106882438D01*
X124285714Y-106882438D02*
X124333333Y-106930057D01*
X124904762Y-107263390D02*
X124809524Y-107215771D01*
X124809524Y-107215771D02*
X124761905Y-107168152D01*
X124761905Y-107168152D02*
X124714286Y-107072914D01*
X124714286Y-107072914D02*
X124714286Y-107025295D01*
X124714286Y-107025295D02*
X124761905Y-106930057D01*
X124761905Y-106930057D02*
X124809524Y-106882438D01*
X124809524Y-106882438D02*
X124904762Y-106834819D01*
X124904762Y-106834819D02*
X125095238Y-106834819D01*
X125095238Y-106834819D02*
X125190476Y-106882438D01*
X125190476Y-106882438D02*
X125238095Y-106930057D01*
X125238095Y-106930057D02*
X125285714Y-107025295D01*
X125285714Y-107025295D02*
X125285714Y-107072914D01*
X125285714Y-107072914D02*
X125238095Y-107168152D01*
X125238095Y-107168152D02*
X125190476Y-107215771D01*
X125190476Y-107215771D02*
X125095238Y-107263390D01*
X125095238Y-107263390D02*
X124904762Y-107263390D01*
X124904762Y-107263390D02*
X124809524Y-107311009D01*
X124809524Y-107311009D02*
X124761905Y-107358628D01*
X124761905Y-107358628D02*
X124714286Y-107453866D01*
X124714286Y-107453866D02*
X124714286Y-107644342D01*
X124714286Y-107644342D02*
X124761905Y-107739580D01*
X124761905Y-107739580D02*
X124809524Y-107787200D01*
X124809524Y-107787200D02*
X124904762Y-107834819D01*
X124904762Y-107834819D02*
X125095238Y-107834819D01*
X125095238Y-107834819D02*
X125190476Y-107787200D01*
X125190476Y-107787200D02*
X125238095Y-107739580D01*
X125238095Y-107739580D02*
X125285714Y-107644342D01*
X125285714Y-107644342D02*
X125285714Y-107453866D01*
X125285714Y-107453866D02*
X125238095Y-107358628D01*
X125238095Y-107358628D02*
X125190476Y-107311009D01*
X125190476Y-107311009D02*
X125095238Y-107263390D01*
X158033333Y-124338119D02*
X157700000Y-123861928D01*
X157461905Y-124338119D02*
X157461905Y-123338119D01*
X157461905Y-123338119D02*
X157842857Y-123338119D01*
X157842857Y-123338119D02*
X157938095Y-123385738D01*
X157938095Y-123385738D02*
X157985714Y-123433357D01*
X157985714Y-123433357D02*
X158033333Y-123528595D01*
X158033333Y-123528595D02*
X158033333Y-123671452D01*
X158033333Y-123671452D02*
X157985714Y-123766690D01*
X157985714Y-123766690D02*
X157938095Y-123814309D01*
X157938095Y-123814309D02*
X157842857Y-123861928D01*
X157842857Y-123861928D02*
X157461905Y-123861928D01*
X158366667Y-123338119D02*
X159033333Y-123338119D01*
X159033333Y-123338119D02*
X158604762Y-124338119D01*
X124333333Y-110789580D02*
X124285714Y-110837200D01*
X124285714Y-110837200D02*
X124142857Y-110884819D01*
X124142857Y-110884819D02*
X124047619Y-110884819D01*
X124047619Y-110884819D02*
X123904762Y-110837200D01*
X123904762Y-110837200D02*
X123809524Y-110741961D01*
X123809524Y-110741961D02*
X123761905Y-110646723D01*
X123761905Y-110646723D02*
X123714286Y-110456247D01*
X123714286Y-110456247D02*
X123714286Y-110313390D01*
X123714286Y-110313390D02*
X123761905Y-110122914D01*
X123761905Y-110122914D02*
X123809524Y-110027676D01*
X123809524Y-110027676D02*
X123904762Y-109932438D01*
X123904762Y-109932438D02*
X124047619Y-109884819D01*
X124047619Y-109884819D02*
X124142857Y-109884819D01*
X124142857Y-109884819D02*
X124285714Y-109932438D01*
X124285714Y-109932438D02*
X124333333Y-109980057D01*
X124666667Y-109884819D02*
X125285714Y-109884819D01*
X125285714Y-109884819D02*
X124952381Y-110265771D01*
X124952381Y-110265771D02*
X125095238Y-110265771D01*
X125095238Y-110265771D02*
X125190476Y-110313390D01*
X125190476Y-110313390D02*
X125238095Y-110361009D01*
X125238095Y-110361009D02*
X125285714Y-110456247D01*
X125285714Y-110456247D02*
X125285714Y-110694342D01*
X125285714Y-110694342D02*
X125238095Y-110789580D01*
X125238095Y-110789580D02*
X125190476Y-110837200D01*
X125190476Y-110837200D02*
X125095238Y-110884819D01*
X125095238Y-110884819D02*
X124809524Y-110884819D01*
X124809524Y-110884819D02*
X124714286Y-110837200D01*
X124714286Y-110837200D02*
X124666667Y-110789580D01*
X126338095Y-70004819D02*
X126338095Y-70814342D01*
X126338095Y-70814342D02*
X126385714Y-70909580D01*
X126385714Y-70909580D02*
X126433333Y-70957200D01*
X126433333Y-70957200D02*
X126528571Y-71004819D01*
X126528571Y-71004819D02*
X126719047Y-71004819D01*
X126719047Y-71004819D02*
X126814285Y-70957200D01*
X126814285Y-70957200D02*
X126861904Y-70909580D01*
X126861904Y-70909580D02*
X126909523Y-70814342D01*
X126909523Y-70814342D02*
X126909523Y-70004819D01*
X127861904Y-70004819D02*
X127385714Y-70004819D01*
X127385714Y-70004819D02*
X127338095Y-70481009D01*
X127338095Y-70481009D02*
X127385714Y-70433390D01*
X127385714Y-70433390D02*
X127480952Y-70385771D01*
X127480952Y-70385771D02*
X127719047Y-70385771D01*
X127719047Y-70385771D02*
X127814285Y-70433390D01*
X127814285Y-70433390D02*
X127861904Y-70481009D01*
X127861904Y-70481009D02*
X127909523Y-70576247D01*
X127909523Y-70576247D02*
X127909523Y-70814342D01*
X127909523Y-70814342D02*
X127861904Y-70909580D01*
X127861904Y-70909580D02*
X127814285Y-70957200D01*
X127814285Y-70957200D02*
X127719047Y-71004819D01*
X127719047Y-71004819D02*
X127480952Y-71004819D01*
X127480952Y-71004819D02*
X127385714Y-70957200D01*
X127385714Y-70957200D02*
X127338095Y-70909580D01*
X124004761Y-83150057D02*
X123909523Y-83102438D01*
X123909523Y-83102438D02*
X123814285Y-83007200D01*
X123814285Y-83007200D02*
X123671428Y-82864342D01*
X123671428Y-82864342D02*
X123576190Y-82816723D01*
X123576190Y-82816723D02*
X123480952Y-82816723D01*
X123528571Y-83054819D02*
X123433333Y-83007200D01*
X123433333Y-83007200D02*
X123338095Y-82911961D01*
X123338095Y-82911961D02*
X123290476Y-82721485D01*
X123290476Y-82721485D02*
X123290476Y-82388152D01*
X123290476Y-82388152D02*
X123338095Y-82197676D01*
X123338095Y-82197676D02*
X123433333Y-82102438D01*
X123433333Y-82102438D02*
X123528571Y-82054819D01*
X123528571Y-82054819D02*
X123719047Y-82054819D01*
X123719047Y-82054819D02*
X123814285Y-82102438D01*
X123814285Y-82102438D02*
X123909523Y-82197676D01*
X123909523Y-82197676D02*
X123957142Y-82388152D01*
X123957142Y-82388152D02*
X123957142Y-82721485D01*
X123957142Y-82721485D02*
X123909523Y-82911961D01*
X123909523Y-82911961D02*
X123814285Y-83007200D01*
X123814285Y-83007200D02*
X123719047Y-83054819D01*
X123719047Y-83054819D02*
X123528571Y-83054819D01*
X124909523Y-83054819D02*
X124338095Y-83054819D01*
X124623809Y-83054819D02*
X124623809Y-82054819D01*
X124623809Y-82054819D02*
X124528571Y-82197676D01*
X124528571Y-82197676D02*
X124433333Y-82292914D01*
X124433333Y-82292914D02*
X124338095Y-82340533D01*
X152238095Y-125954819D02*
X152238095Y-126764342D01*
X152238095Y-126764342D02*
X152285714Y-126859580D01*
X152285714Y-126859580D02*
X152333333Y-126907200D01*
X152333333Y-126907200D02*
X152428571Y-126954819D01*
X152428571Y-126954819D02*
X152619047Y-126954819D01*
X152619047Y-126954819D02*
X152714285Y-126907200D01*
X152714285Y-126907200D02*
X152761904Y-126859580D01*
X152761904Y-126859580D02*
X152809523Y-126764342D01*
X152809523Y-126764342D02*
X152809523Y-125954819D01*
X153714285Y-125954819D02*
X153523809Y-125954819D01*
X153523809Y-125954819D02*
X153428571Y-126002438D01*
X153428571Y-126002438D02*
X153380952Y-126050057D01*
X153380952Y-126050057D02*
X153285714Y-126192914D01*
X153285714Y-126192914D02*
X153238095Y-126383390D01*
X153238095Y-126383390D02*
X153238095Y-126764342D01*
X153238095Y-126764342D02*
X153285714Y-126859580D01*
X153285714Y-126859580D02*
X153333333Y-126907200D01*
X153333333Y-126907200D02*
X153428571Y-126954819D01*
X153428571Y-126954819D02*
X153619047Y-126954819D01*
X153619047Y-126954819D02*
X153714285Y-126907200D01*
X153714285Y-126907200D02*
X153761904Y-126859580D01*
X153761904Y-126859580D02*
X153809523Y-126764342D01*
X153809523Y-126764342D02*
X153809523Y-126526247D01*
X153809523Y-126526247D02*
X153761904Y-126431009D01*
X153761904Y-126431009D02*
X153714285Y-126383390D01*
X153714285Y-126383390D02*
X153619047Y-126335771D01*
X153619047Y-126335771D02*
X153428571Y-126335771D01*
X153428571Y-126335771D02*
X153333333Y-126383390D01*
X153333333Y-126383390D02*
X153285714Y-126431009D01*
X153285714Y-126431009D02*
X153238095Y-126526247D01*
X131933333Y-102204819D02*
X131600000Y-101728628D01*
X131361905Y-102204819D02*
X131361905Y-101204819D01*
X131361905Y-101204819D02*
X131742857Y-101204819D01*
X131742857Y-101204819D02*
X131838095Y-101252438D01*
X131838095Y-101252438D02*
X131885714Y-101300057D01*
X131885714Y-101300057D02*
X131933333Y-101395295D01*
X131933333Y-101395295D02*
X131933333Y-101538152D01*
X131933333Y-101538152D02*
X131885714Y-101633390D01*
X131885714Y-101633390D02*
X131838095Y-101681009D01*
X131838095Y-101681009D02*
X131742857Y-101728628D01*
X131742857Y-101728628D02*
X131361905Y-101728628D01*
X132885714Y-102204819D02*
X132314286Y-102204819D01*
X132600000Y-102204819D02*
X132600000Y-101204819D01*
X132600000Y-101204819D02*
X132504762Y-101347676D01*
X132504762Y-101347676D02*
X132409524Y-101442914D01*
X132409524Y-101442914D02*
X132314286Y-101490533D01*
X140466667Y-86557200D02*
X140609524Y-86604819D01*
X140609524Y-86604819D02*
X140847619Y-86604819D01*
X140847619Y-86604819D02*
X140942857Y-86557200D01*
X140942857Y-86557200D02*
X140990476Y-86509580D01*
X140990476Y-86509580D02*
X141038095Y-86414342D01*
X141038095Y-86414342D02*
X141038095Y-86319104D01*
X141038095Y-86319104D02*
X140990476Y-86223866D01*
X140990476Y-86223866D02*
X140942857Y-86176247D01*
X140942857Y-86176247D02*
X140847619Y-86128628D01*
X140847619Y-86128628D02*
X140657143Y-86081009D01*
X140657143Y-86081009D02*
X140561905Y-86033390D01*
X140561905Y-86033390D02*
X140514286Y-85985771D01*
X140514286Y-85985771D02*
X140466667Y-85890533D01*
X140466667Y-85890533D02*
X140466667Y-85795295D01*
X140466667Y-85795295D02*
X140514286Y-85700057D01*
X140514286Y-85700057D02*
X140561905Y-85652438D01*
X140561905Y-85652438D02*
X140657143Y-85604819D01*
X140657143Y-85604819D02*
X140895238Y-85604819D01*
X140895238Y-85604819D02*
X141038095Y-85652438D01*
X141371429Y-85604819D02*
X141609524Y-86604819D01*
X141609524Y-86604819D02*
X141800000Y-85890533D01*
X141800000Y-85890533D02*
X141990476Y-86604819D01*
X141990476Y-86604819D02*
X142228572Y-85604819D01*
X143038095Y-85938152D02*
X143038095Y-86604819D01*
X142800000Y-85557200D02*
X142561905Y-86271485D01*
X142561905Y-86271485D02*
X143180952Y-86271485D01*
X124247619Y-100124819D02*
X124247619Y-99124819D01*
X125295237Y-100029580D02*
X125247618Y-100077200D01*
X125247618Y-100077200D02*
X125104761Y-100124819D01*
X125104761Y-100124819D02*
X125009523Y-100124819D01*
X125009523Y-100124819D02*
X124866666Y-100077200D01*
X124866666Y-100077200D02*
X124771428Y-99981961D01*
X124771428Y-99981961D02*
X124723809Y-99886723D01*
X124723809Y-99886723D02*
X124676190Y-99696247D01*
X124676190Y-99696247D02*
X124676190Y-99553390D01*
X124676190Y-99553390D02*
X124723809Y-99362914D01*
X124723809Y-99362914D02*
X124771428Y-99267676D01*
X124771428Y-99267676D02*
X124866666Y-99172438D01*
X124866666Y-99172438D02*
X125009523Y-99124819D01*
X125009523Y-99124819D02*
X125104761Y-99124819D01*
X125104761Y-99124819D02*
X125247618Y-99172438D01*
X125247618Y-99172438D02*
X125295237Y-99220057D01*
X125723809Y-100124819D02*
X125723809Y-99124819D01*
X125723809Y-99124819D02*
X126057142Y-99839104D01*
X126057142Y-99839104D02*
X126390475Y-99124819D01*
X126390475Y-99124819D02*
X126390475Y-100124819D01*
X126866666Y-99743866D02*
X127628571Y-99743866D01*
X128533332Y-100077200D02*
X128438094Y-100124819D01*
X128438094Y-100124819D02*
X128247618Y-100124819D01*
X128247618Y-100124819D02*
X128152380Y-100077200D01*
X128152380Y-100077200D02*
X128104761Y-100029580D01*
X128104761Y-100029580D02*
X128057142Y-99934342D01*
X128057142Y-99934342D02*
X128057142Y-99648628D01*
X128057142Y-99648628D02*
X128104761Y-99553390D01*
X128104761Y-99553390D02*
X128152380Y-99505771D01*
X128152380Y-99505771D02*
X128247618Y-99458152D01*
X128247618Y-99458152D02*
X128438094Y-99458152D01*
X128438094Y-99458152D02*
X128533332Y-99505771D01*
X129104761Y-100124819D02*
X129009523Y-100077200D01*
X129009523Y-100077200D02*
X128961904Y-100029580D01*
X128961904Y-100029580D02*
X128914285Y-99934342D01*
X128914285Y-99934342D02*
X128914285Y-99648628D01*
X128914285Y-99648628D02*
X128961904Y-99553390D01*
X128961904Y-99553390D02*
X129009523Y-99505771D01*
X129009523Y-99505771D02*
X129104761Y-99458152D01*
X129104761Y-99458152D02*
X129247618Y-99458152D01*
X129247618Y-99458152D02*
X129342856Y-99505771D01*
X129342856Y-99505771D02*
X129390475Y-99553390D01*
X129390475Y-99553390D02*
X129438094Y-99648628D01*
X129438094Y-99648628D02*
X129438094Y-99934342D01*
X129438094Y-99934342D02*
X129390475Y-100029580D01*
X129390475Y-100029580D02*
X129342856Y-100077200D01*
X129342856Y-100077200D02*
X129247618Y-100124819D01*
X129247618Y-100124819D02*
X129104761Y-100124819D01*
X129866666Y-99458152D02*
X129866666Y-100124819D01*
X129866666Y-99553390D02*
X129914285Y-99505771D01*
X129914285Y-99505771D02*
X130009523Y-99458152D01*
X130009523Y-99458152D02*
X130152380Y-99458152D01*
X130152380Y-99458152D02*
X130247618Y-99505771D01*
X130247618Y-99505771D02*
X130295237Y-99601009D01*
X130295237Y-99601009D02*
X130295237Y-100124819D01*
X130771428Y-99458152D02*
X130771428Y-100124819D01*
X130771428Y-99553390D02*
X130819047Y-99505771D01*
X130819047Y-99505771D02*
X130914285Y-99458152D01*
X130914285Y-99458152D02*
X131057142Y-99458152D01*
X131057142Y-99458152D02*
X131152380Y-99505771D01*
X131152380Y-99505771D02*
X131199999Y-99601009D01*
X131199999Y-99601009D02*
X131199999Y-100124819D01*
X132199999Y-100124819D02*
X131628571Y-100124819D01*
X131914285Y-100124819D02*
X131914285Y-99124819D01*
X131914285Y-99124819D02*
X131819047Y-99267676D01*
X131819047Y-99267676D02*
X131723809Y-99362914D01*
X131723809Y-99362914D02*
X131628571Y-99410533D01*
X153133333Y-133304819D02*
X152800000Y-132828628D01*
X152561905Y-133304819D02*
X152561905Y-132304819D01*
X152561905Y-132304819D02*
X152942857Y-132304819D01*
X152942857Y-132304819D02*
X153038095Y-132352438D01*
X153038095Y-132352438D02*
X153085714Y-132400057D01*
X153085714Y-132400057D02*
X153133333Y-132495295D01*
X153133333Y-132495295D02*
X153133333Y-132638152D01*
X153133333Y-132638152D02*
X153085714Y-132733390D01*
X153085714Y-132733390D02*
X153038095Y-132781009D01*
X153038095Y-132781009D02*
X152942857Y-132828628D01*
X152942857Y-132828628D02*
X152561905Y-132828628D01*
X154038095Y-132304819D02*
X153561905Y-132304819D01*
X153561905Y-132304819D02*
X153514286Y-132781009D01*
X153514286Y-132781009D02*
X153561905Y-132733390D01*
X153561905Y-132733390D02*
X153657143Y-132685771D01*
X153657143Y-132685771D02*
X153895238Y-132685771D01*
X153895238Y-132685771D02*
X153990476Y-132733390D01*
X153990476Y-132733390D02*
X154038095Y-132781009D01*
X154038095Y-132781009D02*
X154085714Y-132876247D01*
X154085714Y-132876247D02*
X154085714Y-133114342D01*
X154085714Y-133114342D02*
X154038095Y-133209580D01*
X154038095Y-133209580D02*
X153990476Y-133257200D01*
X153990476Y-133257200D02*
X153895238Y-133304819D01*
X153895238Y-133304819D02*
X153657143Y-133304819D01*
X153657143Y-133304819D02*
X153561905Y-133257200D01*
X153561905Y-133257200D02*
X153514286Y-133209580D01*
X131933333Y-114129819D02*
X131600000Y-113653628D01*
X131361905Y-114129819D02*
X131361905Y-113129819D01*
X131361905Y-113129819D02*
X131742857Y-113129819D01*
X131742857Y-113129819D02*
X131838095Y-113177438D01*
X131838095Y-113177438D02*
X131885714Y-113225057D01*
X131885714Y-113225057D02*
X131933333Y-113320295D01*
X131933333Y-113320295D02*
X131933333Y-113463152D01*
X131933333Y-113463152D02*
X131885714Y-113558390D01*
X131885714Y-113558390D02*
X131838095Y-113606009D01*
X131838095Y-113606009D02*
X131742857Y-113653628D01*
X131742857Y-113653628D02*
X131361905Y-113653628D01*
X132266667Y-113129819D02*
X132885714Y-113129819D01*
X132885714Y-113129819D02*
X132552381Y-113510771D01*
X132552381Y-113510771D02*
X132695238Y-113510771D01*
X132695238Y-113510771D02*
X132790476Y-113558390D01*
X132790476Y-113558390D02*
X132838095Y-113606009D01*
X132838095Y-113606009D02*
X132885714Y-113701247D01*
X132885714Y-113701247D02*
X132885714Y-113939342D01*
X132885714Y-113939342D02*
X132838095Y-114034580D01*
X132838095Y-114034580D02*
X132790476Y-114082200D01*
X132790476Y-114082200D02*
X132695238Y-114129819D01*
X132695238Y-114129819D02*
X132409524Y-114129819D01*
X132409524Y-114129819D02*
X132314286Y-114082200D01*
X132314286Y-114082200D02*
X132266667Y-114034580D01*
X151733333Y-93864580D02*
X151685714Y-93912200D01*
X151685714Y-93912200D02*
X151542857Y-93959819D01*
X151542857Y-93959819D02*
X151447619Y-93959819D01*
X151447619Y-93959819D02*
X151304762Y-93912200D01*
X151304762Y-93912200D02*
X151209524Y-93816961D01*
X151209524Y-93816961D02*
X151161905Y-93721723D01*
X151161905Y-93721723D02*
X151114286Y-93531247D01*
X151114286Y-93531247D02*
X151114286Y-93388390D01*
X151114286Y-93388390D02*
X151161905Y-93197914D01*
X151161905Y-93197914D02*
X151209524Y-93102676D01*
X151209524Y-93102676D02*
X151304762Y-93007438D01*
X151304762Y-93007438D02*
X151447619Y-92959819D01*
X151447619Y-92959819D02*
X151542857Y-92959819D01*
X151542857Y-92959819D02*
X151685714Y-93007438D01*
X151685714Y-93007438D02*
X151733333Y-93055057D01*
X152590476Y-93293152D02*
X152590476Y-93959819D01*
X152352381Y-92912200D02*
X152114286Y-93626485D01*
X152114286Y-93626485D02*
X152733333Y-93626485D01*
X131457142Y-113704819D02*
X131123809Y-113228628D01*
X130885714Y-113704819D02*
X130885714Y-112704819D01*
X130885714Y-112704819D02*
X131266666Y-112704819D01*
X131266666Y-112704819D02*
X131361904Y-112752438D01*
X131361904Y-112752438D02*
X131409523Y-112800057D01*
X131409523Y-112800057D02*
X131457142Y-112895295D01*
X131457142Y-112895295D02*
X131457142Y-113038152D01*
X131457142Y-113038152D02*
X131409523Y-113133390D01*
X131409523Y-113133390D02*
X131361904Y-113181009D01*
X131361904Y-113181009D02*
X131266666Y-113228628D01*
X131266666Y-113228628D02*
X130885714Y-113228628D01*
X132409523Y-113704819D02*
X131838095Y-113704819D01*
X132123809Y-113704819D02*
X132123809Y-112704819D01*
X132123809Y-112704819D02*
X132028571Y-112847676D01*
X132028571Y-112847676D02*
X131933333Y-112942914D01*
X131933333Y-112942914D02*
X131838095Y-112990533D01*
X133028571Y-112704819D02*
X133123809Y-112704819D01*
X133123809Y-112704819D02*
X133219047Y-112752438D01*
X133219047Y-112752438D02*
X133266666Y-112800057D01*
X133266666Y-112800057D02*
X133314285Y-112895295D01*
X133314285Y-112895295D02*
X133361904Y-113085771D01*
X133361904Y-113085771D02*
X133361904Y-113323866D01*
X133361904Y-113323866D02*
X133314285Y-113514342D01*
X133314285Y-113514342D02*
X133266666Y-113609580D01*
X133266666Y-113609580D02*
X133219047Y-113657200D01*
X133219047Y-113657200D02*
X133123809Y-113704819D01*
X133123809Y-113704819D02*
X133028571Y-113704819D01*
X133028571Y-113704819D02*
X132933333Y-113657200D01*
X132933333Y-113657200D02*
X132885714Y-113609580D01*
X132885714Y-113609580D02*
X132838095Y-113514342D01*
X132838095Y-113514342D02*
X132790476Y-113323866D01*
X132790476Y-113323866D02*
X132790476Y-113085771D01*
X132790476Y-113085771D02*
X132838095Y-112895295D01*
X132838095Y-112895295D02*
X132885714Y-112800057D01*
X132885714Y-112800057D02*
X132933333Y-112752438D01*
X132933333Y-112752438D02*
X133028571Y-112704819D01*
X127004819Y-101042857D02*
X126528628Y-101376190D01*
X127004819Y-101614285D02*
X126004819Y-101614285D01*
X126004819Y-101614285D02*
X126004819Y-101233333D01*
X126004819Y-101233333D02*
X126052438Y-101138095D01*
X126052438Y-101138095D02*
X126100057Y-101090476D01*
X126100057Y-101090476D02*
X126195295Y-101042857D01*
X126195295Y-101042857D02*
X126338152Y-101042857D01*
X126338152Y-101042857D02*
X126433390Y-101090476D01*
X126433390Y-101090476D02*
X126481009Y-101138095D01*
X126481009Y-101138095D02*
X126528628Y-101233333D01*
X126528628Y-101233333D02*
X126528628Y-101614285D01*
X127004819Y-100090476D02*
X127004819Y-100661904D01*
X127004819Y-100376190D02*
X126004819Y-100376190D01*
X126004819Y-100376190D02*
X126147676Y-100471428D01*
X126147676Y-100471428D02*
X126242914Y-100566666D01*
X126242914Y-100566666D02*
X126290533Y-100661904D01*
X126100057Y-99709523D02*
X126052438Y-99661904D01*
X126052438Y-99661904D02*
X126004819Y-99566666D01*
X126004819Y-99566666D02*
X126004819Y-99328571D01*
X126004819Y-99328571D02*
X126052438Y-99233333D01*
X126052438Y-99233333D02*
X126100057Y-99185714D01*
X126100057Y-99185714D02*
X126195295Y-99138095D01*
X126195295Y-99138095D02*
X126290533Y-99138095D01*
X126290533Y-99138095D02*
X126433390Y-99185714D01*
X126433390Y-99185714D02*
X127004819Y-99757142D01*
X127004819Y-99757142D02*
X127004819Y-99138095D01*
X154064819Y-101301904D02*
X154874342Y-101301904D01*
X154874342Y-101301904D02*
X154969580Y-101254285D01*
X154969580Y-101254285D02*
X155017200Y-101206666D01*
X155017200Y-101206666D02*
X155064819Y-101111428D01*
X155064819Y-101111428D02*
X155064819Y-100920952D01*
X155064819Y-100920952D02*
X155017200Y-100825714D01*
X155017200Y-100825714D02*
X154969580Y-100778095D01*
X154969580Y-100778095D02*
X154874342Y-100730476D01*
X154874342Y-100730476D02*
X154064819Y-100730476D01*
X154160057Y-100301904D02*
X154112438Y-100254285D01*
X154112438Y-100254285D02*
X154064819Y-100159047D01*
X154064819Y-100159047D02*
X154064819Y-99920952D01*
X154064819Y-99920952D02*
X154112438Y-99825714D01*
X154112438Y-99825714D02*
X154160057Y-99778095D01*
X154160057Y-99778095D02*
X154255295Y-99730476D01*
X154255295Y-99730476D02*
X154350533Y-99730476D01*
X154350533Y-99730476D02*
X154493390Y-99778095D01*
X154493390Y-99778095D02*
X155064819Y-100349523D01*
X155064819Y-100349523D02*
X155064819Y-99730476D01*
X131933333Y-108379819D02*
X131600000Y-107903628D01*
X131361905Y-108379819D02*
X131361905Y-107379819D01*
X131361905Y-107379819D02*
X131742857Y-107379819D01*
X131742857Y-107379819D02*
X131838095Y-107427438D01*
X131838095Y-107427438D02*
X131885714Y-107475057D01*
X131885714Y-107475057D02*
X131933333Y-107570295D01*
X131933333Y-107570295D02*
X131933333Y-107713152D01*
X131933333Y-107713152D02*
X131885714Y-107808390D01*
X131885714Y-107808390D02*
X131838095Y-107856009D01*
X131838095Y-107856009D02*
X131742857Y-107903628D01*
X131742857Y-107903628D02*
X131361905Y-107903628D01*
X132409524Y-108379819D02*
X132600000Y-108379819D01*
X132600000Y-108379819D02*
X132695238Y-108332200D01*
X132695238Y-108332200D02*
X132742857Y-108284580D01*
X132742857Y-108284580D02*
X132838095Y-108141723D01*
X132838095Y-108141723D02*
X132885714Y-107951247D01*
X132885714Y-107951247D02*
X132885714Y-107570295D01*
X132885714Y-107570295D02*
X132838095Y-107475057D01*
X132838095Y-107475057D02*
X132790476Y-107427438D01*
X132790476Y-107427438D02*
X132695238Y-107379819D01*
X132695238Y-107379819D02*
X132504762Y-107379819D01*
X132504762Y-107379819D02*
X132409524Y-107427438D01*
X132409524Y-107427438D02*
X132361905Y-107475057D01*
X132361905Y-107475057D02*
X132314286Y-107570295D01*
X132314286Y-107570295D02*
X132314286Y-107808390D01*
X132314286Y-107808390D02*
X132361905Y-107903628D01*
X132361905Y-107903628D02*
X132409524Y-107951247D01*
X132409524Y-107951247D02*
X132504762Y-107998866D01*
X132504762Y-107998866D02*
X132695238Y-107998866D01*
X132695238Y-107998866D02*
X132790476Y-107951247D01*
X132790476Y-107951247D02*
X132838095Y-107903628D01*
X132838095Y-107903628D02*
X132885714Y-107808390D01*
X124333333Y-113839580D02*
X124285714Y-113887200D01*
X124285714Y-113887200D02*
X124142857Y-113934819D01*
X124142857Y-113934819D02*
X124047619Y-113934819D01*
X124047619Y-113934819D02*
X123904762Y-113887200D01*
X123904762Y-113887200D02*
X123809524Y-113791961D01*
X123809524Y-113791961D02*
X123761905Y-113696723D01*
X123761905Y-113696723D02*
X123714286Y-113506247D01*
X123714286Y-113506247D02*
X123714286Y-113363390D01*
X123714286Y-113363390D02*
X123761905Y-113172914D01*
X123761905Y-113172914D02*
X123809524Y-113077676D01*
X123809524Y-113077676D02*
X123904762Y-112982438D01*
X123904762Y-112982438D02*
X124047619Y-112934819D01*
X124047619Y-112934819D02*
X124142857Y-112934819D01*
X124142857Y-112934819D02*
X124285714Y-112982438D01*
X124285714Y-112982438D02*
X124333333Y-113030057D01*
X124714286Y-113030057D02*
X124761905Y-112982438D01*
X124761905Y-112982438D02*
X124857143Y-112934819D01*
X124857143Y-112934819D02*
X125095238Y-112934819D01*
X125095238Y-112934819D02*
X125190476Y-112982438D01*
X125190476Y-112982438D02*
X125238095Y-113030057D01*
X125238095Y-113030057D02*
X125285714Y-113125295D01*
X125285714Y-113125295D02*
X125285714Y-113220533D01*
X125285714Y-113220533D02*
X125238095Y-113363390D01*
X125238095Y-113363390D02*
X124666667Y-113934819D01*
X124666667Y-113934819D02*
X125285714Y-113934819D01*
X145104819Y-100242857D02*
X144628628Y-100576190D01*
X145104819Y-100814285D02*
X144104819Y-100814285D01*
X144104819Y-100814285D02*
X144104819Y-100433333D01*
X144104819Y-100433333D02*
X144152438Y-100338095D01*
X144152438Y-100338095D02*
X144200057Y-100290476D01*
X144200057Y-100290476D02*
X144295295Y-100242857D01*
X144295295Y-100242857D02*
X144438152Y-100242857D01*
X144438152Y-100242857D02*
X144533390Y-100290476D01*
X144533390Y-100290476D02*
X144581009Y-100338095D01*
X144581009Y-100338095D02*
X144628628Y-100433333D01*
X144628628Y-100433333D02*
X144628628Y-100814285D01*
X145104819Y-99290476D02*
X145104819Y-99861904D01*
X145104819Y-99576190D02*
X144104819Y-99576190D01*
X144104819Y-99576190D02*
X144247676Y-99671428D01*
X144247676Y-99671428D02*
X144342914Y-99766666D01*
X144342914Y-99766666D02*
X144390533Y-99861904D01*
X145104819Y-98338095D02*
X145104819Y-98909523D01*
X145104819Y-98623809D02*
X144104819Y-98623809D01*
X144104819Y-98623809D02*
X144247676Y-98719047D01*
X144247676Y-98719047D02*
X144342914Y-98814285D01*
X144342914Y-98814285D02*
X144390533Y-98909523D01*
X157666905Y-51214819D02*
X157666905Y-50214819D01*
X157666905Y-50214819D02*
X157905000Y-50214819D01*
X157905000Y-50214819D02*
X158047857Y-50262438D01*
X158047857Y-50262438D02*
X158143095Y-50357676D01*
X158143095Y-50357676D02*
X158190714Y-50452914D01*
X158190714Y-50452914D02*
X158238333Y-50643390D01*
X158238333Y-50643390D02*
X158238333Y-50786247D01*
X158238333Y-50786247D02*
X158190714Y-50976723D01*
X158190714Y-50976723D02*
X158143095Y-51071961D01*
X158143095Y-51071961D02*
X158047857Y-51167200D01*
X158047857Y-51167200D02*
X157905000Y-51214819D01*
X157905000Y-51214819D02*
X157666905Y-51214819D01*
X159190714Y-51214819D02*
X158619286Y-51214819D01*
X158905000Y-51214819D02*
X158905000Y-50214819D01*
X158905000Y-50214819D02*
X158809762Y-50357676D01*
X158809762Y-50357676D02*
X158714524Y-50452914D01*
X158714524Y-50452914D02*
X158619286Y-50500533D01*
X155504819Y-97861904D02*
X156314342Y-97861904D01*
X156314342Y-97861904D02*
X156409580Y-97814285D01*
X156409580Y-97814285D02*
X156457200Y-97766666D01*
X156457200Y-97766666D02*
X156504819Y-97671428D01*
X156504819Y-97671428D02*
X156504819Y-97480952D01*
X156504819Y-97480952D02*
X156457200Y-97385714D01*
X156457200Y-97385714D02*
X156409580Y-97338095D01*
X156409580Y-97338095D02*
X156314342Y-97290476D01*
X156314342Y-97290476D02*
X155504819Y-97290476D01*
X155504819Y-96909523D02*
X155504819Y-96290476D01*
X155504819Y-96290476D02*
X155885771Y-96623809D01*
X155885771Y-96623809D02*
X155885771Y-96480952D01*
X155885771Y-96480952D02*
X155933390Y-96385714D01*
X155933390Y-96385714D02*
X155981009Y-96338095D01*
X155981009Y-96338095D02*
X156076247Y-96290476D01*
X156076247Y-96290476D02*
X156314342Y-96290476D01*
X156314342Y-96290476D02*
X156409580Y-96338095D01*
X156409580Y-96338095D02*
X156457200Y-96385714D01*
X156457200Y-96385714D02*
X156504819Y-96480952D01*
X156504819Y-96480952D02*
X156504819Y-96766666D01*
X156504819Y-96766666D02*
X156457200Y-96861904D01*
X156457200Y-96861904D02*
X156409580Y-96909523D01*
X123391905Y-69814819D02*
X123391905Y-68814819D01*
X123391905Y-68814819D02*
X123630000Y-68814819D01*
X123630000Y-68814819D02*
X123772857Y-68862438D01*
X123772857Y-68862438D02*
X123868095Y-68957676D01*
X123868095Y-68957676D02*
X123915714Y-69052914D01*
X123915714Y-69052914D02*
X123963333Y-69243390D01*
X123963333Y-69243390D02*
X123963333Y-69386247D01*
X123963333Y-69386247D02*
X123915714Y-69576723D01*
X123915714Y-69576723D02*
X123868095Y-69671961D01*
X123868095Y-69671961D02*
X123772857Y-69767200D01*
X123772857Y-69767200D02*
X123630000Y-69814819D01*
X123630000Y-69814819D02*
X123391905Y-69814819D01*
X124820476Y-69148152D02*
X124820476Y-69814819D01*
X124582381Y-68767200D02*
X124344286Y-69481485D01*
X124344286Y-69481485D02*
X124963333Y-69481485D01*
X153113333Y-140579580D02*
X153065714Y-140627200D01*
X153065714Y-140627200D02*
X152922857Y-140674819D01*
X152922857Y-140674819D02*
X152827619Y-140674819D01*
X152827619Y-140674819D02*
X152684762Y-140627200D01*
X152684762Y-140627200D02*
X152589524Y-140531961D01*
X152589524Y-140531961D02*
X152541905Y-140436723D01*
X152541905Y-140436723D02*
X152494286Y-140246247D01*
X152494286Y-140246247D02*
X152494286Y-140103390D01*
X152494286Y-140103390D02*
X152541905Y-139912914D01*
X152541905Y-139912914D02*
X152589524Y-139817676D01*
X152589524Y-139817676D02*
X152684762Y-139722438D01*
X152684762Y-139722438D02*
X152827619Y-139674819D01*
X152827619Y-139674819D02*
X152922857Y-139674819D01*
X152922857Y-139674819D02*
X153065714Y-139722438D01*
X153065714Y-139722438D02*
X153113333Y-139770057D01*
X154065714Y-140674819D02*
X153494286Y-140674819D01*
X153780000Y-140674819D02*
X153780000Y-139674819D01*
X153780000Y-139674819D02*
X153684762Y-139817676D01*
X153684762Y-139817676D02*
X153589524Y-139912914D01*
X153589524Y-139912914D02*
X153494286Y-139960533D01*
X130435000Y-126659819D02*
X131006428Y-126659819D01*
X130720714Y-127659819D02*
X130720714Y-126659819D01*
X131339762Y-127659819D02*
X131339762Y-126659819D01*
X131339762Y-126659819D02*
X131720714Y-126659819D01*
X131720714Y-126659819D02*
X131815952Y-126707438D01*
X131815952Y-126707438D02*
X131863571Y-126755057D01*
X131863571Y-126755057D02*
X131911190Y-126850295D01*
X131911190Y-126850295D02*
X131911190Y-126993152D01*
X131911190Y-126993152D02*
X131863571Y-127088390D01*
X131863571Y-127088390D02*
X131815952Y-127136009D01*
X131815952Y-127136009D02*
X131720714Y-127183628D01*
X131720714Y-127183628D02*
X131339762Y-127183628D01*
X132768333Y-126993152D02*
X132768333Y-127659819D01*
X132530238Y-126612200D02*
X132292143Y-127326485D01*
X132292143Y-127326485D02*
X132911190Y-127326485D01*
X133482619Y-126659819D02*
X133577857Y-126659819D01*
X133577857Y-126659819D02*
X133673095Y-126707438D01*
X133673095Y-126707438D02*
X133720714Y-126755057D01*
X133720714Y-126755057D02*
X133768333Y-126850295D01*
X133768333Y-126850295D02*
X133815952Y-127040771D01*
X133815952Y-127040771D02*
X133815952Y-127278866D01*
X133815952Y-127278866D02*
X133768333Y-127469342D01*
X133768333Y-127469342D02*
X133720714Y-127564580D01*
X133720714Y-127564580D02*
X133673095Y-127612200D01*
X133673095Y-127612200D02*
X133577857Y-127659819D01*
X133577857Y-127659819D02*
X133482619Y-127659819D01*
X133482619Y-127659819D02*
X133387381Y-127612200D01*
X133387381Y-127612200D02*
X133339762Y-127564580D01*
X133339762Y-127564580D02*
X133292143Y-127469342D01*
X133292143Y-127469342D02*
X133244524Y-127278866D01*
X133244524Y-127278866D02*
X133244524Y-127040771D01*
X133244524Y-127040771D02*
X133292143Y-126850295D01*
X133292143Y-126850295D02*
X133339762Y-126755057D01*
X133339762Y-126755057D02*
X133387381Y-126707438D01*
X133387381Y-126707438D02*
X133482619Y-126659819D01*
X134720714Y-126659819D02*
X134244524Y-126659819D01*
X134244524Y-126659819D02*
X134196905Y-127136009D01*
X134196905Y-127136009D02*
X134244524Y-127088390D01*
X134244524Y-127088390D02*
X134339762Y-127040771D01*
X134339762Y-127040771D02*
X134577857Y-127040771D01*
X134577857Y-127040771D02*
X134673095Y-127088390D01*
X134673095Y-127088390D02*
X134720714Y-127136009D01*
X134720714Y-127136009D02*
X134768333Y-127231247D01*
X134768333Y-127231247D02*
X134768333Y-127469342D01*
X134768333Y-127469342D02*
X134720714Y-127564580D01*
X134720714Y-127564580D02*
X134673095Y-127612200D01*
X134673095Y-127612200D02*
X134577857Y-127659819D01*
X134577857Y-127659819D02*
X134339762Y-127659819D01*
X134339762Y-127659819D02*
X134244524Y-127612200D01*
X134244524Y-127612200D02*
X134196905Y-127564580D01*
X135625476Y-126659819D02*
X135435000Y-126659819D01*
X135435000Y-126659819D02*
X135339762Y-126707438D01*
X135339762Y-126707438D02*
X135292143Y-126755057D01*
X135292143Y-126755057D02*
X135196905Y-126897914D01*
X135196905Y-126897914D02*
X135149286Y-127088390D01*
X135149286Y-127088390D02*
X135149286Y-127469342D01*
X135149286Y-127469342D02*
X135196905Y-127564580D01*
X135196905Y-127564580D02*
X135244524Y-127612200D01*
X135244524Y-127612200D02*
X135339762Y-127659819D01*
X135339762Y-127659819D02*
X135530238Y-127659819D01*
X135530238Y-127659819D02*
X135625476Y-127612200D01*
X135625476Y-127612200D02*
X135673095Y-127564580D01*
X135673095Y-127564580D02*
X135720714Y-127469342D01*
X135720714Y-127469342D02*
X135720714Y-127231247D01*
X135720714Y-127231247D02*
X135673095Y-127136009D01*
X135673095Y-127136009D02*
X135625476Y-127088390D01*
X135625476Y-127088390D02*
X135530238Y-127040771D01*
X135530238Y-127040771D02*
X135339762Y-127040771D01*
X135339762Y-127040771D02*
X135244524Y-127088390D01*
X135244524Y-127088390D02*
X135196905Y-127136009D01*
X135196905Y-127136009D02*
X135149286Y-127231247D01*
X136149286Y-127278866D02*
X136911191Y-127278866D01*
X137387381Y-127659819D02*
X137387381Y-126993152D01*
X137387381Y-127088390D02*
X137435000Y-127040771D01*
X137435000Y-127040771D02*
X137530238Y-126993152D01*
X137530238Y-126993152D02*
X137673095Y-126993152D01*
X137673095Y-126993152D02*
X137768333Y-127040771D01*
X137768333Y-127040771D02*
X137815952Y-127136009D01*
X137815952Y-127136009D02*
X137815952Y-127659819D01*
X137815952Y-127136009D02*
X137863571Y-127040771D01*
X137863571Y-127040771D02*
X137958809Y-126993152D01*
X137958809Y-126993152D02*
X138101666Y-126993152D01*
X138101666Y-126993152D02*
X138196905Y-127040771D01*
X138196905Y-127040771D02*
X138244524Y-127136009D01*
X138244524Y-127136009D02*
X138244524Y-127659819D01*
X138863571Y-127659819D02*
X138768333Y-127612200D01*
X138768333Y-127612200D02*
X138720714Y-127564580D01*
X138720714Y-127564580D02*
X138673095Y-127469342D01*
X138673095Y-127469342D02*
X138673095Y-127183628D01*
X138673095Y-127183628D02*
X138720714Y-127088390D01*
X138720714Y-127088390D02*
X138768333Y-127040771D01*
X138768333Y-127040771D02*
X138863571Y-126993152D01*
X138863571Y-126993152D02*
X139006428Y-126993152D01*
X139006428Y-126993152D02*
X139101666Y-127040771D01*
X139101666Y-127040771D02*
X139149285Y-127088390D01*
X139149285Y-127088390D02*
X139196904Y-127183628D01*
X139196904Y-127183628D02*
X139196904Y-127469342D01*
X139196904Y-127469342D02*
X139149285Y-127564580D01*
X139149285Y-127564580D02*
X139101666Y-127612200D01*
X139101666Y-127612200D02*
X139006428Y-127659819D01*
X139006428Y-127659819D02*
X138863571Y-127659819D01*
X140054047Y-127659819D02*
X140054047Y-126659819D01*
X140054047Y-127612200D02*
X139958809Y-127659819D01*
X139958809Y-127659819D02*
X139768333Y-127659819D01*
X139768333Y-127659819D02*
X139673095Y-127612200D01*
X139673095Y-127612200D02*
X139625476Y-127564580D01*
X139625476Y-127564580D02*
X139577857Y-127469342D01*
X139577857Y-127469342D02*
X139577857Y-127183628D01*
X139577857Y-127183628D02*
X139625476Y-127088390D01*
X139625476Y-127088390D02*
X139673095Y-127040771D01*
X139673095Y-127040771D02*
X139768333Y-126993152D01*
X139768333Y-126993152D02*
X139958809Y-126993152D01*
X139958809Y-126993152D02*
X140054047Y-127040771D01*
X140958809Y-126993152D02*
X140958809Y-127659819D01*
X140530238Y-126993152D02*
X140530238Y-127516961D01*
X140530238Y-127516961D02*
X140577857Y-127612200D01*
X140577857Y-127612200D02*
X140673095Y-127659819D01*
X140673095Y-127659819D02*
X140815952Y-127659819D01*
X140815952Y-127659819D02*
X140911190Y-127612200D01*
X140911190Y-127612200D02*
X140958809Y-127564580D01*
X141577857Y-127659819D02*
X141482619Y-127612200D01*
X141482619Y-127612200D02*
X141435000Y-127516961D01*
X141435000Y-127516961D02*
X141435000Y-126659819D01*
X142339762Y-127612200D02*
X142244524Y-127659819D01*
X142244524Y-127659819D02*
X142054048Y-127659819D01*
X142054048Y-127659819D02*
X141958810Y-127612200D01*
X141958810Y-127612200D02*
X141911191Y-127516961D01*
X141911191Y-127516961D02*
X141911191Y-127136009D01*
X141911191Y-127136009D02*
X141958810Y-127040771D01*
X141958810Y-127040771D02*
X142054048Y-126993152D01*
X142054048Y-126993152D02*
X142244524Y-126993152D01*
X142244524Y-126993152D02*
X142339762Y-127040771D01*
X142339762Y-127040771D02*
X142387381Y-127136009D01*
X142387381Y-127136009D02*
X142387381Y-127231247D01*
X142387381Y-127231247D02*
X141911191Y-127326485D01*
X143339762Y-127659819D02*
X142768334Y-127659819D01*
X143054048Y-127659819D02*
X143054048Y-126659819D01*
X143054048Y-126659819D02*
X142958810Y-126802676D01*
X142958810Y-126802676D02*
X142863572Y-126897914D01*
X142863572Y-126897914D02*
X142768334Y-126945533D01*
X142075952Y-123859819D02*
X142266428Y-123859819D01*
X142266428Y-123859819D02*
X142361666Y-123907438D01*
X142361666Y-123907438D02*
X142456904Y-124002676D01*
X142456904Y-124002676D02*
X142504523Y-124193152D01*
X142504523Y-124193152D02*
X142504523Y-124526485D01*
X142504523Y-124526485D02*
X142456904Y-124716961D01*
X142456904Y-124716961D02*
X142361666Y-124812200D01*
X142361666Y-124812200D02*
X142266428Y-124859819D01*
X142266428Y-124859819D02*
X142075952Y-124859819D01*
X142075952Y-124859819D02*
X141980714Y-124812200D01*
X141980714Y-124812200D02*
X141885476Y-124716961D01*
X141885476Y-124716961D02*
X141837857Y-124526485D01*
X141837857Y-124526485D02*
X141837857Y-124193152D01*
X141837857Y-124193152D02*
X141885476Y-124002676D01*
X141885476Y-124002676D02*
X141980714Y-123907438D01*
X141980714Y-123907438D02*
X142075952Y-123859819D01*
X142933095Y-123859819D02*
X142933095Y-124669342D01*
X142933095Y-124669342D02*
X142980714Y-124764580D01*
X142980714Y-124764580D02*
X143028333Y-124812200D01*
X143028333Y-124812200D02*
X143123571Y-124859819D01*
X143123571Y-124859819D02*
X143314047Y-124859819D01*
X143314047Y-124859819D02*
X143409285Y-124812200D01*
X143409285Y-124812200D02*
X143456904Y-124764580D01*
X143456904Y-124764580D02*
X143504523Y-124669342D01*
X143504523Y-124669342D02*
X143504523Y-123859819D01*
X143837857Y-123859819D02*
X144409285Y-123859819D01*
X144123571Y-124859819D02*
X144123571Y-123859819D01*
X144742619Y-124478866D02*
X145504524Y-124478866D01*
X145123571Y-124859819D02*
X145123571Y-124097914D01*
X126052143Y-124859819D02*
X126052143Y-123859819D01*
X126528333Y-124859819D02*
X126528333Y-123859819D01*
X126528333Y-123859819D02*
X127099761Y-124859819D01*
X127099761Y-124859819D02*
X127099761Y-123859819D01*
X127575952Y-124478866D02*
X128337857Y-124478866D01*
X127956904Y-124859819D02*
X127956904Y-124097914D01*
X144147381Y-126836009D02*
X144290238Y-126883628D01*
X144290238Y-126883628D02*
X144337857Y-126931247D01*
X144337857Y-126931247D02*
X144385476Y-127026485D01*
X144385476Y-127026485D02*
X144385476Y-127169342D01*
X144385476Y-127169342D02*
X144337857Y-127264580D01*
X144337857Y-127264580D02*
X144290238Y-127312200D01*
X144290238Y-127312200D02*
X144195000Y-127359819D01*
X144195000Y-127359819D02*
X143814048Y-127359819D01*
X143814048Y-127359819D02*
X143814048Y-126359819D01*
X143814048Y-126359819D02*
X144147381Y-126359819D01*
X144147381Y-126359819D02*
X144242619Y-126407438D01*
X144242619Y-126407438D02*
X144290238Y-126455057D01*
X144290238Y-126455057D02*
X144337857Y-126550295D01*
X144337857Y-126550295D02*
X144337857Y-126645533D01*
X144337857Y-126645533D02*
X144290238Y-126740771D01*
X144290238Y-126740771D02*
X144242619Y-126788390D01*
X144242619Y-126788390D02*
X144147381Y-126836009D01*
X144147381Y-126836009D02*
X143814048Y-126836009D01*
X144814048Y-126978866D02*
X145575953Y-126978866D01*
X145195000Y-127359819D02*
X145195000Y-126597914D01*
X126052143Y-138859819D02*
X126052143Y-137859819D01*
X126528333Y-138859819D02*
X126528333Y-137859819D01*
X126528333Y-137859819D02*
X127099761Y-138859819D01*
X127099761Y-138859819D02*
X127099761Y-137859819D01*
X127575952Y-138478866D02*
X128337857Y-138478866D01*
X142075952Y-137859819D02*
X142266428Y-137859819D01*
X142266428Y-137859819D02*
X142361666Y-137907438D01*
X142361666Y-137907438D02*
X142456904Y-138002676D01*
X142456904Y-138002676D02*
X142504523Y-138193152D01*
X142504523Y-138193152D02*
X142504523Y-138526485D01*
X142504523Y-138526485D02*
X142456904Y-138716961D01*
X142456904Y-138716961D02*
X142361666Y-138812200D01*
X142361666Y-138812200D02*
X142266428Y-138859819D01*
X142266428Y-138859819D02*
X142075952Y-138859819D01*
X142075952Y-138859819D02*
X141980714Y-138812200D01*
X141980714Y-138812200D02*
X141885476Y-138716961D01*
X141885476Y-138716961D02*
X141837857Y-138526485D01*
X141837857Y-138526485D02*
X141837857Y-138193152D01*
X141837857Y-138193152D02*
X141885476Y-138002676D01*
X141885476Y-138002676D02*
X141980714Y-137907438D01*
X141980714Y-137907438D02*
X142075952Y-137859819D01*
X142933095Y-137859819D02*
X142933095Y-138669342D01*
X142933095Y-138669342D02*
X142980714Y-138764580D01*
X142980714Y-138764580D02*
X143028333Y-138812200D01*
X143028333Y-138812200D02*
X143123571Y-138859819D01*
X143123571Y-138859819D02*
X143314047Y-138859819D01*
X143314047Y-138859819D02*
X143409285Y-138812200D01*
X143409285Y-138812200D02*
X143456904Y-138764580D01*
X143456904Y-138764580D02*
X143504523Y-138669342D01*
X143504523Y-138669342D02*
X143504523Y-137859819D01*
X143837857Y-137859819D02*
X144409285Y-137859819D01*
X144123571Y-138859819D02*
X144123571Y-137859819D01*
X144742619Y-138478866D02*
X145504524Y-138478866D01*
X144147381Y-135836009D02*
X144290238Y-135883628D01*
X144290238Y-135883628D02*
X144337857Y-135931247D01*
X144337857Y-135931247D02*
X144385476Y-136026485D01*
X144385476Y-136026485D02*
X144385476Y-136169342D01*
X144385476Y-136169342D02*
X144337857Y-136264580D01*
X144337857Y-136264580D02*
X144290238Y-136312200D01*
X144290238Y-136312200D02*
X144195000Y-136359819D01*
X144195000Y-136359819D02*
X143814048Y-136359819D01*
X143814048Y-136359819D02*
X143814048Y-135359819D01*
X143814048Y-135359819D02*
X144147381Y-135359819D01*
X144147381Y-135359819D02*
X144242619Y-135407438D01*
X144242619Y-135407438D02*
X144290238Y-135455057D01*
X144290238Y-135455057D02*
X144337857Y-135550295D01*
X144337857Y-135550295D02*
X144337857Y-135645533D01*
X144337857Y-135645533D02*
X144290238Y-135740771D01*
X144290238Y-135740771D02*
X144242619Y-135788390D01*
X144242619Y-135788390D02*
X144147381Y-135836009D01*
X144147381Y-135836009D02*
X143814048Y-135836009D01*
X144814048Y-135978866D02*
X145575953Y-135978866D01*
X124457142Y-92104819D02*
X124123809Y-91628628D01*
X123885714Y-92104819D02*
X123885714Y-91104819D01*
X123885714Y-91104819D02*
X124266666Y-91104819D01*
X124266666Y-91104819D02*
X124361904Y-91152438D01*
X124361904Y-91152438D02*
X124409523Y-91200057D01*
X124409523Y-91200057D02*
X124457142Y-91295295D01*
X124457142Y-91295295D02*
X124457142Y-91438152D01*
X124457142Y-91438152D02*
X124409523Y-91533390D01*
X124409523Y-91533390D02*
X124361904Y-91581009D01*
X124361904Y-91581009D02*
X124266666Y-91628628D01*
X124266666Y-91628628D02*
X123885714Y-91628628D01*
X125409523Y-92104819D02*
X124838095Y-92104819D01*
X125123809Y-92104819D02*
X125123809Y-91104819D01*
X125123809Y-91104819D02*
X125028571Y-91247676D01*
X125028571Y-91247676D02*
X124933333Y-91342914D01*
X124933333Y-91342914D02*
X124838095Y-91390533D01*
X126314285Y-91104819D02*
X125838095Y-91104819D01*
X125838095Y-91104819D02*
X125790476Y-91581009D01*
X125790476Y-91581009D02*
X125838095Y-91533390D01*
X125838095Y-91533390D02*
X125933333Y-91485771D01*
X125933333Y-91485771D02*
X126171428Y-91485771D01*
X126171428Y-91485771D02*
X126266666Y-91533390D01*
X126266666Y-91533390D02*
X126314285Y-91581009D01*
X126314285Y-91581009D02*
X126361904Y-91676247D01*
X126361904Y-91676247D02*
X126361904Y-91914342D01*
X126361904Y-91914342D02*
X126314285Y-92009580D01*
X126314285Y-92009580D02*
X126266666Y-92057200D01*
X126266666Y-92057200D02*
X126171428Y-92104819D01*
X126171428Y-92104819D02*
X125933333Y-92104819D01*
X125933333Y-92104819D02*
X125838095Y-92057200D01*
X125838095Y-92057200D02*
X125790476Y-92009580D01*
X150416667Y-78807200D02*
X150559524Y-78854819D01*
X150559524Y-78854819D02*
X150797619Y-78854819D01*
X150797619Y-78854819D02*
X150892857Y-78807200D01*
X150892857Y-78807200D02*
X150940476Y-78759580D01*
X150940476Y-78759580D02*
X150988095Y-78664342D01*
X150988095Y-78664342D02*
X150988095Y-78569104D01*
X150988095Y-78569104D02*
X150940476Y-78473866D01*
X150940476Y-78473866D02*
X150892857Y-78426247D01*
X150892857Y-78426247D02*
X150797619Y-78378628D01*
X150797619Y-78378628D02*
X150607143Y-78331009D01*
X150607143Y-78331009D02*
X150511905Y-78283390D01*
X150511905Y-78283390D02*
X150464286Y-78235771D01*
X150464286Y-78235771D02*
X150416667Y-78140533D01*
X150416667Y-78140533D02*
X150416667Y-78045295D01*
X150416667Y-78045295D02*
X150464286Y-77950057D01*
X150464286Y-77950057D02*
X150511905Y-77902438D01*
X150511905Y-77902438D02*
X150607143Y-77854819D01*
X150607143Y-77854819D02*
X150845238Y-77854819D01*
X150845238Y-77854819D02*
X150988095Y-77902438D01*
X151321429Y-77854819D02*
X151559524Y-78854819D01*
X151559524Y-78854819D02*
X151750000Y-78140533D01*
X151750000Y-78140533D02*
X151940476Y-78854819D01*
X151940476Y-78854819D02*
X152178572Y-77854819D01*
X152511905Y-77950057D02*
X152559524Y-77902438D01*
X152559524Y-77902438D02*
X152654762Y-77854819D01*
X152654762Y-77854819D02*
X152892857Y-77854819D01*
X152892857Y-77854819D02*
X152988095Y-77902438D01*
X152988095Y-77902438D02*
X153035714Y-77950057D01*
X153035714Y-77950057D02*
X153083333Y-78045295D01*
X153083333Y-78045295D02*
X153083333Y-78140533D01*
X153083333Y-78140533D02*
X153035714Y-78283390D01*
X153035714Y-78283390D02*
X152464286Y-78854819D01*
X152464286Y-78854819D02*
X153083333Y-78854819D01*
X131933333Y-107954819D02*
X131600000Y-107478628D01*
X131361905Y-107954819D02*
X131361905Y-106954819D01*
X131361905Y-106954819D02*
X131742857Y-106954819D01*
X131742857Y-106954819D02*
X131838095Y-107002438D01*
X131838095Y-107002438D02*
X131885714Y-107050057D01*
X131885714Y-107050057D02*
X131933333Y-107145295D01*
X131933333Y-107145295D02*
X131933333Y-107288152D01*
X131933333Y-107288152D02*
X131885714Y-107383390D01*
X131885714Y-107383390D02*
X131838095Y-107431009D01*
X131838095Y-107431009D02*
X131742857Y-107478628D01*
X131742857Y-107478628D02*
X131361905Y-107478628D01*
X132314286Y-107050057D02*
X132361905Y-107002438D01*
X132361905Y-107002438D02*
X132457143Y-106954819D01*
X132457143Y-106954819D02*
X132695238Y-106954819D01*
X132695238Y-106954819D02*
X132790476Y-107002438D01*
X132790476Y-107002438D02*
X132838095Y-107050057D01*
X132838095Y-107050057D02*
X132885714Y-107145295D01*
X132885714Y-107145295D02*
X132885714Y-107240533D01*
X132885714Y-107240533D02*
X132838095Y-107383390D01*
X132838095Y-107383390D02*
X132266667Y-107954819D01*
X132266667Y-107954819D02*
X132885714Y-107954819D01*
X158033333Y-127371519D02*
X157700000Y-126895328D01*
X157461905Y-127371519D02*
X157461905Y-126371519D01*
X157461905Y-126371519D02*
X157842857Y-126371519D01*
X157842857Y-126371519D02*
X157938095Y-126419138D01*
X157938095Y-126419138D02*
X157985714Y-126466757D01*
X157985714Y-126466757D02*
X158033333Y-126561995D01*
X158033333Y-126561995D02*
X158033333Y-126704852D01*
X158033333Y-126704852D02*
X157985714Y-126800090D01*
X157985714Y-126800090D02*
X157938095Y-126847709D01*
X157938095Y-126847709D02*
X157842857Y-126895328D01*
X157842857Y-126895328D02*
X157461905Y-126895328D01*
X158604762Y-126800090D02*
X158509524Y-126752471D01*
X158509524Y-126752471D02*
X158461905Y-126704852D01*
X158461905Y-126704852D02*
X158414286Y-126609614D01*
X158414286Y-126609614D02*
X158414286Y-126561995D01*
X158414286Y-126561995D02*
X158461905Y-126466757D01*
X158461905Y-126466757D02*
X158509524Y-126419138D01*
X158509524Y-126419138D02*
X158604762Y-126371519D01*
X158604762Y-126371519D02*
X158795238Y-126371519D01*
X158795238Y-126371519D02*
X158890476Y-126419138D01*
X158890476Y-126419138D02*
X158938095Y-126466757D01*
X158938095Y-126466757D02*
X158985714Y-126561995D01*
X158985714Y-126561995D02*
X158985714Y-126609614D01*
X158985714Y-126609614D02*
X158938095Y-126704852D01*
X158938095Y-126704852D02*
X158890476Y-126752471D01*
X158890476Y-126752471D02*
X158795238Y-126800090D01*
X158795238Y-126800090D02*
X158604762Y-126800090D01*
X158604762Y-126800090D02*
X158509524Y-126847709D01*
X158509524Y-126847709D02*
X158461905Y-126895328D01*
X158461905Y-126895328D02*
X158414286Y-126990566D01*
X158414286Y-126990566D02*
X158414286Y-127181042D01*
X158414286Y-127181042D02*
X158461905Y-127276280D01*
X158461905Y-127276280D02*
X158509524Y-127323900D01*
X158509524Y-127323900D02*
X158604762Y-127371519D01*
X158604762Y-127371519D02*
X158795238Y-127371519D01*
X158795238Y-127371519D02*
X158890476Y-127323900D01*
X158890476Y-127323900D02*
X158938095Y-127276280D01*
X158938095Y-127276280D02*
X158985714Y-127181042D01*
X158985714Y-127181042D02*
X158985714Y-126990566D01*
X158985714Y-126990566D02*
X158938095Y-126895328D01*
X158938095Y-126895328D02*
X158890476Y-126847709D01*
X158890476Y-126847709D02*
X158795238Y-126800090D01*
X151733333Y-96679580D02*
X151685714Y-96727200D01*
X151685714Y-96727200D02*
X151542857Y-96774819D01*
X151542857Y-96774819D02*
X151447619Y-96774819D01*
X151447619Y-96774819D02*
X151304762Y-96727200D01*
X151304762Y-96727200D02*
X151209524Y-96631961D01*
X151209524Y-96631961D02*
X151161905Y-96536723D01*
X151161905Y-96536723D02*
X151114286Y-96346247D01*
X151114286Y-96346247D02*
X151114286Y-96203390D01*
X151114286Y-96203390D02*
X151161905Y-96012914D01*
X151161905Y-96012914D02*
X151209524Y-95917676D01*
X151209524Y-95917676D02*
X151304762Y-95822438D01*
X151304762Y-95822438D02*
X151447619Y-95774819D01*
X151447619Y-95774819D02*
X151542857Y-95774819D01*
X151542857Y-95774819D02*
X151685714Y-95822438D01*
X151685714Y-95822438D02*
X151733333Y-95870057D01*
X152638095Y-95774819D02*
X152161905Y-95774819D01*
X152161905Y-95774819D02*
X152114286Y-96251009D01*
X152114286Y-96251009D02*
X152161905Y-96203390D01*
X152161905Y-96203390D02*
X152257143Y-96155771D01*
X152257143Y-96155771D02*
X152495238Y-96155771D01*
X152495238Y-96155771D02*
X152590476Y-96203390D01*
X152590476Y-96203390D02*
X152638095Y-96251009D01*
X152638095Y-96251009D02*
X152685714Y-96346247D01*
X152685714Y-96346247D02*
X152685714Y-96584342D01*
X152685714Y-96584342D02*
X152638095Y-96679580D01*
X152638095Y-96679580D02*
X152590476Y-96727200D01*
X152590476Y-96727200D02*
X152495238Y-96774819D01*
X152495238Y-96774819D02*
X152257143Y-96774819D01*
X152257143Y-96774819D02*
X152161905Y-96727200D01*
X152161905Y-96727200D02*
X152114286Y-96679580D01*
X130857142Y-119479580D02*
X130809523Y-119527200D01*
X130809523Y-119527200D02*
X130666666Y-119574819D01*
X130666666Y-119574819D02*
X130571428Y-119574819D01*
X130571428Y-119574819D02*
X130428571Y-119527200D01*
X130428571Y-119527200D02*
X130333333Y-119431961D01*
X130333333Y-119431961D02*
X130285714Y-119336723D01*
X130285714Y-119336723D02*
X130238095Y-119146247D01*
X130238095Y-119146247D02*
X130238095Y-119003390D01*
X130238095Y-119003390D02*
X130285714Y-118812914D01*
X130285714Y-118812914D02*
X130333333Y-118717676D01*
X130333333Y-118717676D02*
X130428571Y-118622438D01*
X130428571Y-118622438D02*
X130571428Y-118574819D01*
X130571428Y-118574819D02*
X130666666Y-118574819D01*
X130666666Y-118574819D02*
X130809523Y-118622438D01*
X130809523Y-118622438D02*
X130857142Y-118670057D01*
X131809523Y-119574819D02*
X131238095Y-119574819D01*
X131523809Y-119574819D02*
X131523809Y-118574819D01*
X131523809Y-118574819D02*
X131428571Y-118717676D01*
X131428571Y-118717676D02*
X131333333Y-118812914D01*
X131333333Y-118812914D02*
X131238095Y-118860533D01*
X132428571Y-118574819D02*
X132523809Y-118574819D01*
X132523809Y-118574819D02*
X132619047Y-118622438D01*
X132619047Y-118622438D02*
X132666666Y-118670057D01*
X132666666Y-118670057D02*
X132714285Y-118765295D01*
X132714285Y-118765295D02*
X132761904Y-118955771D01*
X132761904Y-118955771D02*
X132761904Y-119193866D01*
X132761904Y-119193866D02*
X132714285Y-119384342D01*
X132714285Y-119384342D02*
X132666666Y-119479580D01*
X132666666Y-119479580D02*
X132619047Y-119527200D01*
X132619047Y-119527200D02*
X132523809Y-119574819D01*
X132523809Y-119574819D02*
X132428571Y-119574819D01*
X132428571Y-119574819D02*
X132333333Y-119527200D01*
X132333333Y-119527200D02*
X132285714Y-119479580D01*
X132285714Y-119479580D02*
X132238095Y-119384342D01*
X132238095Y-119384342D02*
X132190476Y-119193866D01*
X132190476Y-119193866D02*
X132190476Y-118955771D01*
X132190476Y-118955771D02*
X132238095Y-118765295D01*
X132238095Y-118765295D02*
X132285714Y-118670057D01*
X132285714Y-118670057D02*
X132333333Y-118622438D01*
X132333333Y-118622438D02*
X132428571Y-118574819D01*
X140466667Y-71057200D02*
X140609524Y-71104819D01*
X140609524Y-71104819D02*
X140847619Y-71104819D01*
X140847619Y-71104819D02*
X140942857Y-71057200D01*
X140942857Y-71057200D02*
X140990476Y-71009580D01*
X140990476Y-71009580D02*
X141038095Y-70914342D01*
X141038095Y-70914342D02*
X141038095Y-70819104D01*
X141038095Y-70819104D02*
X140990476Y-70723866D01*
X140990476Y-70723866D02*
X140942857Y-70676247D01*
X140942857Y-70676247D02*
X140847619Y-70628628D01*
X140847619Y-70628628D02*
X140657143Y-70581009D01*
X140657143Y-70581009D02*
X140561905Y-70533390D01*
X140561905Y-70533390D02*
X140514286Y-70485771D01*
X140514286Y-70485771D02*
X140466667Y-70390533D01*
X140466667Y-70390533D02*
X140466667Y-70295295D01*
X140466667Y-70295295D02*
X140514286Y-70200057D01*
X140514286Y-70200057D02*
X140561905Y-70152438D01*
X140561905Y-70152438D02*
X140657143Y-70104819D01*
X140657143Y-70104819D02*
X140895238Y-70104819D01*
X140895238Y-70104819D02*
X141038095Y-70152438D01*
X141371429Y-70104819D02*
X141609524Y-71104819D01*
X141609524Y-71104819D02*
X141800000Y-70390533D01*
X141800000Y-70390533D02*
X141990476Y-71104819D01*
X141990476Y-71104819D02*
X142228572Y-70104819D01*
X143133333Y-71104819D02*
X142561905Y-71104819D01*
X142847619Y-71104819D02*
X142847619Y-70104819D01*
X142847619Y-70104819D02*
X142752381Y-70247676D01*
X142752381Y-70247676D02*
X142657143Y-70342914D01*
X142657143Y-70342914D02*
X142561905Y-70390533D01*
X158033333Y-121304819D02*
X157700000Y-120828628D01*
X157461905Y-121304819D02*
X157461905Y-120304819D01*
X157461905Y-120304819D02*
X157842857Y-120304819D01*
X157842857Y-120304819D02*
X157938095Y-120352438D01*
X157938095Y-120352438D02*
X157985714Y-120400057D01*
X157985714Y-120400057D02*
X158033333Y-120495295D01*
X158033333Y-120495295D02*
X158033333Y-120638152D01*
X158033333Y-120638152D02*
X157985714Y-120733390D01*
X157985714Y-120733390D02*
X157938095Y-120781009D01*
X157938095Y-120781009D02*
X157842857Y-120828628D01*
X157842857Y-120828628D02*
X157461905Y-120828628D01*
X158890476Y-120304819D02*
X158700000Y-120304819D01*
X158700000Y-120304819D02*
X158604762Y-120352438D01*
X158604762Y-120352438D02*
X158557143Y-120400057D01*
X158557143Y-120400057D02*
X158461905Y-120542914D01*
X158461905Y-120542914D02*
X158414286Y-120733390D01*
X158414286Y-120733390D02*
X158414286Y-121114342D01*
X158414286Y-121114342D02*
X158461905Y-121209580D01*
X158461905Y-121209580D02*
X158509524Y-121257200D01*
X158509524Y-121257200D02*
X158604762Y-121304819D01*
X158604762Y-121304819D02*
X158795238Y-121304819D01*
X158795238Y-121304819D02*
X158890476Y-121257200D01*
X158890476Y-121257200D02*
X158938095Y-121209580D01*
X158938095Y-121209580D02*
X158985714Y-121114342D01*
X158985714Y-121114342D02*
X158985714Y-120876247D01*
X158985714Y-120876247D02*
X158938095Y-120781009D01*
X158938095Y-120781009D02*
X158890476Y-120733390D01*
X158890476Y-120733390D02*
X158795238Y-120685771D01*
X158795238Y-120685771D02*
X158604762Y-120685771D01*
X158604762Y-120685771D02*
X158509524Y-120733390D01*
X158509524Y-120733390D02*
X158461905Y-120781009D01*
X158461905Y-120781009D02*
X158414286Y-120876247D01*
D12*
%TO.C,D2*%
X126690000Y-48345000D02*
X126690000Y-45255000D01*
X121140000Y-46800462D02*
G75*
G02*
X126690000Y-45255170I2990000J462D01*
G01*
X126690000Y-48344830D02*
G75*
G02*
X121140000Y-46799538I-2560000J1544830D01*
G01*
X126630000Y-46800000D02*
G75*
G02*
X121630000Y-46800000I-2500000J0D01*
G01*
X121630000Y-46800000D02*
G75*
G02*
X126630000Y-46800000I2500000J0D01*
G01*
%TO.C,R4*%
X153072936Y-136165000D02*
X153527064Y-136165000D01*
X153072936Y-137635000D02*
X153527064Y-137635000D01*
%TO.C,R13*%
X152065000Y-65872936D02*
X152065000Y-66327064D01*
X153535000Y-65872936D02*
X153535000Y-66327064D01*
%TO.C,R14*%
X158427064Y-130865000D02*
X157972936Y-130865000D01*
X158427064Y-132335000D02*
X157972936Y-132335000D01*
%TO.C,U7*%
X123700000Y-93200000D02*
X123700000Y-93450000D01*
X123700000Y-93200000D02*
X123950000Y-93200000D01*
X126900000Y-93200000D02*
X126650000Y-93200000D01*
X126900000Y-93200000D02*
X126900000Y-93450000D01*
X126900000Y-96400000D02*
X126650000Y-96400000D01*
X126900000Y-96400000D02*
X126900000Y-96150000D01*
X123700000Y-96400000D02*
X123370000Y-96640000D01*
X123370000Y-96160000D01*
X123700000Y-96400000D01*
G36*
X123700000Y-96400000D02*
G01*
X123370000Y-96640000D01*
X123370000Y-96160000D01*
X123700000Y-96400000D01*
G37*
%TO.C,SW3*%
X128300000Y-81850000D02*
X128300000Y-83350000D01*
X129550000Y-85850000D02*
X134050000Y-85850000D01*
X134050000Y-79350000D02*
X129550000Y-79350000D01*
X135300000Y-83350000D02*
X135300000Y-81850000D01*
D13*
%TO.C,U1*%
X129518700Y-49900000D02*
X132718700Y-49900000D01*
X132718700Y-49900000D02*
X132718700Y-48680000D01*
X132718700Y-59600000D02*
X129518700Y-59600000D01*
X132718700Y-60830000D02*
X132718700Y-59600000D01*
X135448700Y-46800000D02*
X135718700Y-46800000D01*
X135718700Y-43650000D02*
X145518700Y-43650000D01*
X135718700Y-46800000D02*
X135718700Y-43650000D01*
X136618700Y-62700000D02*
X135498700Y-62700000D01*
X136618700Y-64250000D02*
X136618700Y-62700000D01*
X144718700Y-62700000D02*
X144718700Y-64250000D01*
X144718700Y-64250000D02*
X136618700Y-64250000D01*
X145518700Y-43650000D02*
X145518700Y-46800000D01*
X148618700Y-48680000D02*
X148618700Y-49300000D01*
X148618700Y-49300000D02*
X154918700Y-49300000D01*
X148618700Y-60200000D02*
X148618700Y-60830000D01*
X154918700Y-49300000D02*
X154918700Y-60200000D01*
X154918700Y-60200000D02*
X148618700Y-60200000D01*
D14*
X154068700Y-48700000D02*
G75*
G02*
X153868700Y-48700000I-100000J0D01*
G01*
X153868700Y-48700000D02*
G75*
G02*
X154068700Y-48700000I100000J0D01*
G01*
D12*
%TO.C,D3*%
X160965000Y-66945000D02*
X160965000Y-63855000D01*
X155415000Y-65400462D02*
G75*
G02*
X160965000Y-63855170I2990000J462D01*
G01*
X160965000Y-66944830D02*
G75*
G02*
X155415000Y-65399538I-2560000J1544830D01*
G01*
X160905000Y-65400000D02*
G75*
G02*
X155905000Y-65400000I-2500000J0D01*
G01*
X155905000Y-65400000D02*
G75*
G02*
X160905000Y-65400000I2500000J0D01*
G01*
D10*
%TO.C,U4*%
X158150000Y-83100000D02*
X161050000Y-83100000D01*
X158150000Y-84700000D02*
X158150000Y-83100000D01*
X161050000Y-83100000D02*
X161050000Y-84700000D01*
X161050000Y-84700000D02*
X158150000Y-84700000D01*
D14*
X158650000Y-84300000D02*
G75*
G02*
X158450000Y-84300000I-100000J0D01*
G01*
X158450000Y-84300000D02*
G75*
G02*
X158650000Y-84300000I100000J0D01*
G01*
D12*
%TO.C,J1*%
X121995000Y-140370000D02*
X123325000Y-140370000D01*
X121995000Y-141700000D02*
X121995000Y-140370000D01*
X121995000Y-142970000D02*
X121995000Y-143030000D01*
X121995000Y-142970000D02*
X124595000Y-142970000D01*
X121995000Y-143030000D02*
X127195000Y-143030000D01*
X124595000Y-140370000D02*
X127195000Y-140370000D01*
X124595000Y-142970000D02*
X124595000Y-140370000D01*
X127195000Y-140370000D02*
X127195000Y-143030000D01*
%TO.C,C9*%
X129665000Y-94061252D02*
X129665000Y-93538748D01*
X131135000Y-94061252D02*
X131135000Y-93538748D01*
%TO.C,C8*%
X124761252Y-104965000D02*
X124238748Y-104965000D01*
X124761252Y-106435000D02*
X124238748Y-106435000D01*
%TO.C,R7*%
X157972936Y-124798300D02*
X158427064Y-124798300D01*
X157972936Y-126268300D02*
X158427064Y-126268300D01*
%TO.C,C3*%
X124761252Y-108015000D02*
X124238748Y-108015000D01*
X124761252Y-109485000D02*
X124238748Y-109485000D01*
%TO.C,U5*%
X127100000Y-71390000D02*
X125600000Y-71390000D01*
X127100000Y-71390000D02*
X128600000Y-71390000D01*
X127100000Y-74610000D02*
X125600000Y-74610000D01*
X127100000Y-74610000D02*
X128600000Y-74610000D01*
X124887500Y-71590000D02*
X124647500Y-71260000D01*
X125127500Y-71260000D01*
X124887500Y-71590000D01*
G36*
X124887500Y-71590000D02*
G01*
X124647500Y-71260000D01*
X125127500Y-71260000D01*
X124887500Y-71590000D01*
G37*
%TO.C,Q1*%
X124100000Y-78640000D02*
X123450000Y-78640000D01*
X124100000Y-78640000D02*
X124750000Y-78640000D01*
X124100000Y-81760000D02*
X123450000Y-81760000D01*
X124100000Y-81760000D02*
X124750000Y-81760000D01*
X125502500Y-82040000D02*
X125022500Y-82040000D01*
X125262500Y-81710000D01*
X125502500Y-82040000D01*
G36*
X125502500Y-82040000D02*
G01*
X125022500Y-82040000D01*
X125262500Y-81710000D01*
X125502500Y-82040000D01*
G37*
%TO.C,U6*%
X153000000Y-122540000D02*
X152200000Y-122540000D01*
X153000000Y-122540000D02*
X153800000Y-122540000D01*
X153000000Y-125660000D02*
X152200000Y-125660000D01*
X153000000Y-125660000D02*
X153800000Y-125660000D01*
X154540000Y-125940000D02*
X154060000Y-125940000D01*
X154300000Y-125610000D01*
X154540000Y-125940000D01*
G36*
X154540000Y-125940000D02*
G01*
X154060000Y-125940000D01*
X154300000Y-125610000D01*
X154540000Y-125940000D01*
G37*
%TO.C,R1*%
X131872936Y-102665000D02*
X132327064Y-102665000D01*
X131872936Y-104135000D02*
X132327064Y-104135000D01*
%TO.C,SW4*%
X138300000Y-89650000D02*
X138300000Y-91150000D01*
X139550000Y-93650000D02*
X144050000Y-93650000D01*
X144050000Y-87150000D02*
X139550000Y-87150000D01*
X145300000Y-91150000D02*
X145300000Y-89650000D01*
%TO.C,ICM-conn1*%
X126870000Y-100670000D02*
X128200000Y-100670000D01*
X126870000Y-102000000D02*
X126870000Y-100670000D01*
X126870000Y-103270000D02*
X126870000Y-110950000D01*
X126870000Y-103270000D02*
X129530000Y-103270000D01*
X126870000Y-110950000D02*
X129530000Y-110950000D01*
X129530000Y-103270000D02*
X129530000Y-110950000D01*
%TO.C,R5*%
X153072936Y-133765000D02*
X153527064Y-133765000D01*
X153072936Y-135235000D02*
X153527064Y-135235000D01*
%TO.C,R3*%
X132327064Y-111290000D02*
X131872936Y-111290000D01*
X132327064Y-112760000D02*
X131872936Y-112760000D01*
%TO.C,C4*%
X151638748Y-94450000D02*
X152161252Y-94450000D01*
X151638748Y-95920000D02*
X152161252Y-95920000D01*
%TO.C,R10*%
X131872936Y-114165000D02*
X132327064Y-114165000D01*
X131872936Y-115635000D02*
X132327064Y-115635000D01*
%TO.C,R12*%
X124165000Y-100172936D02*
X124165000Y-100627064D01*
X125635000Y-100172936D02*
X125635000Y-100627064D01*
%TO.C,U2*%
X137230000Y-102980000D02*
X137850000Y-102980000D01*
X137230000Y-105100000D02*
X137230000Y-102980000D01*
X137230000Y-119220000D02*
X137230000Y-117100000D01*
X137850000Y-119220000D02*
X137230000Y-119220000D01*
X153850000Y-102980000D02*
X161470000Y-102980000D01*
X161470000Y-102980000D02*
X161470000Y-119220000D01*
X161470000Y-119220000D02*
X153850000Y-119220000D01*
X154186000Y-102790000D02*
X153850000Y-102550000D01*
X154186000Y-102310000D01*
X154186000Y-102790000D01*
G36*
X154186000Y-102790000D02*
G01*
X153850000Y-102550000D01*
X154186000Y-102310000D01*
X154186000Y-102790000D01*
G37*
%TO.C,R9*%
X132327064Y-105540000D02*
X131872936Y-105540000D01*
X132327064Y-107010000D02*
X131872936Y-107010000D01*
%TO.C,C2*%
X124761252Y-111065000D02*
X124238748Y-111065000D01*
X124761252Y-112535000D02*
X124238748Y-112535000D01*
%TO.C,R11*%
X142265000Y-99372936D02*
X142265000Y-99827064D01*
X143735000Y-99372936D02*
X143735000Y-99827064D01*
%TO.C,D1*%
X160965000Y-48345000D02*
X160965000Y-45255000D01*
X155415000Y-46800462D02*
G75*
G02*
X160965000Y-45255170I2990000J462D01*
G01*
X160965000Y-48344830D02*
G75*
G02*
X155415000Y-46799538I-2560000J1544830D01*
G01*
X160905000Y-46800000D02*
G75*
G02*
X155905000Y-46800000I-2500000J0D01*
G01*
X155905000Y-46800000D02*
G75*
G02*
X160905000Y-46800000I2500000J0D01*
G01*
%TO.C,U3*%
X156890000Y-97100000D02*
X156890000Y-95600000D01*
X156890000Y-97100000D02*
X156890000Y-98600000D01*
X160110000Y-97100000D02*
X160110000Y-95600000D01*
X160110000Y-97100000D02*
X160110000Y-98600000D01*
X157065000Y-99312500D02*
X156735000Y-99552500D01*
X156735000Y-99072500D01*
X157065000Y-99312500D01*
G36*
X157065000Y-99312500D02*
G01*
X156735000Y-99552500D01*
X156735000Y-99072500D01*
X157065000Y-99312500D01*
G37*
%TO.C,D4*%
X126690000Y-66945000D02*
X126690000Y-63855000D01*
X121140000Y-65400462D02*
G75*
G02*
X126690000Y-63855170I2990000J462D01*
G01*
X126690000Y-66944830D02*
G75*
G02*
X121140000Y-65399538I-2560000J1544830D01*
G01*
X126630000Y-65400000D02*
G75*
G02*
X121630000Y-65400000I-2500000J0D01*
G01*
X121630000Y-65400000D02*
G75*
G02*
X126630000Y-65400000I2500000J0D01*
G01*
%TO.C,C1*%
X153018748Y-141165000D02*
X153541252Y-141165000D01*
X153018748Y-142635000D02*
X153541252Y-142635000D01*
%TO.C,TP4056-module1*%
X121695000Y-122705000D02*
X121695000Y-139905000D01*
X121695000Y-122705000D02*
X149695000Y-122705000D01*
X121695000Y-139905000D02*
X149695000Y-139905000D01*
X149695000Y-122705000D02*
X149695000Y-139905000D01*
%TO.C,R15*%
X125327064Y-89265000D02*
X124872936Y-89265000D01*
X125327064Y-90735000D02*
X124872936Y-90735000D01*
%TO.C,SW2*%
X148250000Y-81900000D02*
X148250000Y-83400000D01*
X149500000Y-85900000D02*
X154000000Y-85900000D01*
X154000000Y-79400000D02*
X149500000Y-79400000D01*
X155250000Y-83400000D02*
X155250000Y-81900000D01*
%TO.C,R2*%
X131872936Y-108415000D02*
X132327064Y-108415000D01*
X131872936Y-109885000D02*
X132327064Y-109885000D01*
%TO.C,R8*%
X157972936Y-127831700D02*
X158427064Y-127831700D01*
X157972936Y-129301700D02*
X158427064Y-129301700D01*
%TO.C,C5*%
X151638748Y-97265000D02*
X152161252Y-97265000D01*
X151638748Y-98735000D02*
X152161252Y-98735000D01*
%TO.C,C10*%
X131238748Y-120065000D02*
X131761252Y-120065000D01*
X131238748Y-121535000D02*
X131761252Y-121535000D01*
%TO.C,SW1*%
X138300000Y-74150000D02*
X138300000Y-75650000D01*
X139550000Y-78150000D02*
X144050000Y-78150000D01*
X144050000Y-71650000D02*
X139550000Y-71650000D01*
X145300000Y-75650000D02*
X145300000Y-74150000D01*
%TO.C,R6*%
X157972936Y-121765000D02*
X158427064Y-121765000D01*
X157972936Y-123235000D02*
X158427064Y-123235000D01*
%TD*%
M02*
