%TF.GenerationSoftware,KiCad,Pcbnew,8.0.5*%
%TF.CreationDate,2026-01-06T21:14:37+02:00*%
%TF.ProjectId,scheme,73636865-6d65-42e6-9b69-6361645f7063,rev?*%
%TF.SameCoordinates,Original*%
%TF.FileFunction,Soldermask,Top*%
%TF.FilePolarity,Negative*%
%FSLAX46Y46*%
G04 Gerber Fmt 4.6, Leading zero omitted, Abs format (unit mm)*
G04 Created by KiCad (PCBNEW 8.0.5) date 2026-01-06 21:14:37*
%MOMM*%
%LPD*%
G01*
G04 APERTURE LIST*
G04 Aperture macros list*
%AMRoundRect*
0 Rectangle with rounded corners*
0 $1 Rounding radius*
0 $2 $3 $4 $5 $6 $7 $8 $9 X,Y pos of 4 corners*
0 Add a 4 corners polygon primitive as box body*
4,1,4,$2,$3,$4,$5,$6,$7,$8,$9,$2,$3,0*
0 Add four circle primitives for the rounded corners*
1,1,$1+$1,$2,$3*
1,1,$1+$1,$4,$5*
1,1,$1+$1,$6,$7*
1,1,$1+$1,$8,$9*
0 Add four rect primitives between the rounded corners*
20,1,$1+$1,$2,$3,$4,$5,0*
20,1,$1+$1,$4,$5,$6,$7,0*
20,1,$1+$1,$6,$7,$8,$9,0*
20,1,$1+$1,$8,$9,$2,$3,0*%
G04 Aperture macros list end*
%ADD10O,4.344000X2.274000*%
%ADD11C,3.200000*%
%ADD12R,1.800000X1.800000*%
%ADD13C,1.800000*%
%ADD14RoundRect,0.250000X-0.350000X-0.450000X0.350000X-0.450000X0.350000X0.450000X-0.350000X0.450000X0*%
%ADD15RoundRect,0.250000X0.350000X0.450000X-0.350000X0.450000X-0.350000X-0.450000X0.350000X-0.450000X0*%
%ADD16RoundRect,0.250000X0.450000X-0.350000X0.450000X0.350000X-0.450000X0.350000X-0.450000X-0.350000X0*%
%ADD17RoundRect,0.050000X-0.050000X0.225000X-0.050000X-0.225000X0.050000X-0.225000X0.050000X0.225000X0*%
%ADD18RoundRect,0.050000X-0.225000X-0.050000X0.225000X-0.050000X0.225000X0.050000X-0.225000X0.050000X0*%
%ADD19C,2.000000*%
%ADD20C,1.982000*%
%ADD21C,2.490000*%
%ADD22R,0.550000X0.800000*%
%ADD23R,1.700000X1.700000*%
%ADD24O,1.700000X1.700000*%
%ADD25RoundRect,0.250000X-0.450000X0.350000X-0.450000X-0.350000X0.450000X-0.350000X0.450000X0.350000X0*%
%ADD26RoundRect,0.075000X-0.650000X-0.075000X0.650000X-0.075000X0.650000X0.075000X-0.650000X0.075000X0*%
%ADD27RoundRect,0.150000X-0.587500X-0.150000X0.587500X-0.150000X0.587500X0.150000X-0.587500X0.150000X0*%
%ADD28RoundRect,0.150000X0.512500X0.150000X-0.512500X0.150000X-0.512500X-0.150000X0.512500X-0.150000X0*%
%ADD29R,1.000000X2.500000*%
%ADD30RoundRect,0.100000X-0.712500X-0.100000X0.712500X-0.100000X0.712500X0.100000X-0.712500X0.100000X0*%
%ADD31C,1.500000*%
%ADD32RoundRect,0.102000X0.654000X-0.654000X0.654000X0.654000X-0.654000X0.654000X-0.654000X-0.654000X0*%
%ADD33C,1.512000*%
G04 APERTURE END LIST*
D10*
%TO.C,BT1*%
X142300000Y-153100000D03*
X142300000Y-83100000D03*
D11*
X142300000Y-118100000D03*
%TD*%
D12*
%TO.C,D1*%
X125400000Y-46800000D03*
D13*
X122860000Y-46800000D03*
%TD*%
D14*
%TO.C,R14*%
X153200000Y-120000000D03*
X155200000Y-120000000D03*
%TD*%
D15*
%TO.C,R4*%
X133872400Y-90700000D03*
X131872400Y-90700000D03*
%TD*%
D16*
%TO.C,R12*%
X134300000Y-124000000D03*
X134300000Y-122000000D03*
%TD*%
D17*
%TO.C,U3*%
X126730000Y-94308800D03*
X126330000Y-94308800D03*
X125930000Y-94308800D03*
X125530000Y-94308800D03*
X125130000Y-94308800D03*
X124730000Y-94308800D03*
D18*
X124230000Y-94808800D03*
X124230000Y-95208800D03*
X124230000Y-95608800D03*
X124230000Y-96008800D03*
X124230000Y-96408800D03*
X124230000Y-96808800D03*
D17*
X124730000Y-97308800D03*
X125130000Y-97308800D03*
X125530000Y-97308800D03*
X125930000Y-97308800D03*
X126330000Y-97308800D03*
X126730000Y-97308800D03*
D18*
X127230000Y-96808800D03*
X127230000Y-96408800D03*
X127230000Y-96008800D03*
X127230000Y-95608800D03*
X127230000Y-95208800D03*
X127230000Y-94808800D03*
%TD*%
D14*
%TO.C,R17*%
X146800000Y-118000000D03*
X148800000Y-118000000D03*
%TD*%
D19*
%TO.C,SW3*%
X128550000Y-80350000D03*
X135050000Y-80350000D03*
X128550000Y-84850000D03*
X135050000Y-84850000D03*
%TD*%
D20*
%TO.C,U1*%
X153318700Y-51575000D03*
X153318700Y-57925000D03*
X148238700Y-51575000D03*
X148238700Y-57925000D03*
X130458700Y-52210000D03*
X130458700Y-54750000D03*
X130458700Y-57290000D03*
D21*
X147286200Y-47130000D03*
X133951200Y-47130000D03*
X147286200Y-62370000D03*
X133951200Y-62370000D03*
D20*
X143158700Y-44590000D03*
X140618700Y-44590000D03*
X138078700Y-44590000D03*
%TD*%
D12*
%TO.C,D4*%
X159675000Y-65400000D03*
D13*
X157135000Y-65400000D03*
%TD*%
D22*
%TO.C,U7*%
X151500000Y-130250000D03*
X152450000Y-130250000D03*
X153400000Y-130250000D03*
X153400000Y-127850000D03*
X151500000Y-127850000D03*
%TD*%
D23*
%TO.C,J1*%
X159800000Y-128225000D03*
D24*
X159800000Y-130765000D03*
%TD*%
D14*
%TO.C,C2*%
X123500000Y-103678800D03*
X125500000Y-103678800D03*
%TD*%
%TO.C,C3*%
X123500000Y-106600000D03*
X125500000Y-106600000D03*
%TD*%
D25*
%TO.C,R16*%
X140366700Y-122000000D03*
X140366700Y-124000000D03*
%TD*%
D14*
%TO.C,C8*%
X151800000Y-124800000D03*
X153800000Y-124800000D03*
%TD*%
D26*
%TO.C,U2*%
X130100000Y-69000000D03*
X130100000Y-69500000D03*
X130100000Y-70000000D03*
X130100000Y-70500000D03*
X130100000Y-71000000D03*
X134500000Y-71000000D03*
X134500000Y-70500000D03*
X134500000Y-70000000D03*
X134500000Y-69500000D03*
X134500000Y-69000000D03*
%TD*%
D27*
%TO.C,Q1*%
X123362500Y-77850000D03*
X123362500Y-79750000D03*
X125237500Y-78800000D03*
%TD*%
D14*
%TO.C,R10*%
X130100000Y-117300000D03*
X132100000Y-117300000D03*
%TD*%
D28*
%TO.C,U6*%
X126437500Y-123850000D03*
X126437500Y-122900000D03*
X126437500Y-121950000D03*
X124162500Y-121950000D03*
X124162500Y-123850000D03*
%TD*%
D14*
%TO.C,R7*%
X130100000Y-103300000D03*
X132100000Y-103300000D03*
%TD*%
D19*
%TO.C,SW2*%
X138550000Y-88150000D03*
X145050000Y-88150000D03*
X138550000Y-92650000D03*
X145050000Y-92650000D03*
%TD*%
D14*
%TO.C,R15*%
X153200000Y-117600000D03*
X155200000Y-117600000D03*
%TD*%
D15*
%TO.C,R6*%
X132100000Y-111700000D03*
X130100000Y-111700000D03*
%TD*%
D14*
%TO.C,C6*%
X158100000Y-92800000D03*
X160100000Y-92800000D03*
%TD*%
%TO.C,R11*%
X130100000Y-114500000D03*
X132100000Y-114500000D03*
%TD*%
D15*
%TO.C,R8*%
X125600000Y-88000000D03*
X123600000Y-88000000D03*
%TD*%
D29*
%TO.C,U4*%
X152800000Y-98100000D03*
X150800000Y-98100000D03*
X148800000Y-98100000D03*
X146800000Y-98100000D03*
X144800000Y-98100000D03*
X142800000Y-98100000D03*
X140800000Y-98100000D03*
X138800000Y-98100000D03*
X138800000Y-113300000D03*
X140800000Y-113300000D03*
X142800000Y-113300000D03*
X144800000Y-113300000D03*
X146800000Y-113300000D03*
X148800000Y-113300000D03*
X150800000Y-113300000D03*
X152800000Y-113300000D03*
%TD*%
D15*
%TO.C,R5*%
X132100000Y-106100000D03*
X130100000Y-106100000D03*
%TD*%
%TO.C,C5*%
X160100000Y-89800000D03*
X158100000Y-89800000D03*
%TD*%
D14*
%TO.C,R1*%
X128600000Y-76400000D03*
X130600000Y-76400000D03*
%TD*%
D12*
%TO.C,D2*%
X159675000Y-46800000D03*
D13*
X157135000Y-46800000D03*
%TD*%
D30*
%TO.C,U5*%
X149687500Y-90125000D03*
X149687500Y-90775000D03*
X149687500Y-91425000D03*
X149687500Y-92075000D03*
X153912500Y-92075000D03*
X153912500Y-91425000D03*
X153912500Y-90775000D03*
X153912500Y-90125000D03*
%TD*%
D12*
%TO.C,D3*%
X125400000Y-65400000D03*
D13*
X122860000Y-65400000D03*
%TD*%
D14*
%TO.C,C9*%
X151800000Y-133300000D03*
X153800000Y-133300000D03*
%TD*%
D15*
%TO.C,R9*%
X133800000Y-93800000D03*
X131800000Y-93800000D03*
%TD*%
D19*
%TO.C,TP1*%
X123995000Y-127605000D03*
X123995000Y-141605000D03*
X146995000Y-127605000D03*
X146995000Y-141605000D03*
X146995000Y-130145000D03*
X146995000Y-139065000D03*
%TD*%
D15*
%TO.C,R2*%
X125600000Y-85510800D03*
X123600000Y-85510800D03*
%TD*%
D19*
%TO.C,SW4*%
X148500000Y-80400000D03*
X155000000Y-80400000D03*
X148500000Y-84900000D03*
X155000000Y-84900000D03*
%TD*%
D14*
%TO.C,R3*%
X130100000Y-108900000D03*
X132100000Y-108900000D03*
%TD*%
D25*
%TO.C,R13*%
X137333300Y-122000000D03*
X137333300Y-124000000D03*
%TD*%
D15*
%TO.C,C1*%
X151200000Y-69500000D03*
X149200000Y-69500000D03*
%TD*%
%TO.C,C7*%
X125800000Y-117300000D03*
X123800000Y-117300000D03*
%TD*%
D19*
%TO.C,SW1*%
X138550000Y-72650000D03*
X145050000Y-72650000D03*
X138550000Y-77150000D03*
X145050000Y-77150000D03*
%TD*%
D25*
%TO.C,R18*%
X143400000Y-122000000D03*
X143400000Y-124000000D03*
%TD*%
D15*
%TO.C,C4*%
X125800000Y-113450000D03*
X123800000Y-113450000D03*
%TD*%
D31*
%TO.C,S1*%
X158800000Y-142200000D03*
X158800000Y-134000000D03*
D32*
X158800000Y-140100000D03*
D33*
X158800000Y-138100000D03*
X158800000Y-136100000D03*
%TD*%
D23*
%TO.C,J2*%
X159800000Y-59500000D03*
D24*
X159800000Y-56960000D03*
X159800000Y-54420000D03*
X159800000Y-51880000D03*
%TD*%
D23*
%TO.C,prog1*%
X159800000Y-124500000D03*
D24*
X159800000Y-121960000D03*
X159800000Y-119420000D03*
X159800000Y-116880000D03*
%TD*%
D19*
%TO.C,SW5*%
X156050000Y-70050000D03*
X156050000Y-76550000D03*
X160550000Y-70050000D03*
X160550000Y-76550000D03*
%TD*%
M02*
