%TF.GenerationSoftware,KiCad,Pcbnew,8.0.5*%
%TF.CreationDate,2026-01-01T16:10:54+02:00*%
%TF.ProjectId,scheme,73636865-6d65-42e6-9b69-6361645f7063,rev?*%
%TF.SameCoordinates,Original*%
%TF.FileFunction,Legend,Bot*%
%TF.FilePolarity,Positive*%
%FSLAX46Y46*%
G04 Gerber Fmt 4.6, Leading zero omitted, Abs format (unit mm)*
G04 Created by KiCad (PCBNEW 8.0.5) date 2026-01-01 16:10:54*
%MOMM*%
%LPD*%
G01*
G04 APERTURE LIST*
%ADD10C,0.150000*%
%ADD11C,0.127000*%
%ADD12C,0.120000*%
G04 APERTURE END LIST*
D10*
X130801009Y-68659285D02*
X130848628Y-68802142D01*
X130848628Y-68802142D02*
X130896247Y-68849761D01*
X130896247Y-68849761D02*
X130991485Y-68897380D01*
X130991485Y-68897380D02*
X131134342Y-68897380D01*
X131134342Y-68897380D02*
X131229580Y-68849761D01*
X131229580Y-68849761D02*
X131277200Y-68802142D01*
X131277200Y-68802142D02*
X131324819Y-68706904D01*
X131324819Y-68706904D02*
X131324819Y-68325952D01*
X131324819Y-68325952D02*
X130324819Y-68325952D01*
X130324819Y-68325952D02*
X130324819Y-68659285D01*
X130324819Y-68659285D02*
X130372438Y-68754523D01*
X130372438Y-68754523D02*
X130420057Y-68802142D01*
X130420057Y-68802142D02*
X130515295Y-68849761D01*
X130515295Y-68849761D02*
X130610533Y-68849761D01*
X130610533Y-68849761D02*
X130705771Y-68802142D01*
X130705771Y-68802142D02*
X130753390Y-68754523D01*
X130753390Y-68754523D02*
X130801009Y-68659285D01*
X130801009Y-68659285D02*
X130801009Y-68325952D01*
X130324819Y-69183095D02*
X130324819Y-69754523D01*
X131324819Y-69468809D02*
X130324819Y-69468809D01*
X131324819Y-70611666D02*
X131324819Y-70040238D01*
X131324819Y-70325952D02*
X130324819Y-70325952D01*
X130324819Y-70325952D02*
X130467676Y-70230714D01*
X130467676Y-70230714D02*
X130562914Y-70135476D01*
X130562914Y-70135476D02*
X130610533Y-70040238D01*
X162104761Y-144118152D02*
X162104761Y-145118152D01*
X162104761Y-144165771D02*
X162009523Y-144118152D01*
X162009523Y-144118152D02*
X161819047Y-144118152D01*
X161819047Y-144118152D02*
X161723809Y-144165771D01*
X161723809Y-144165771D02*
X161676190Y-144213390D01*
X161676190Y-144213390D02*
X161628571Y-144308628D01*
X161628571Y-144308628D02*
X161628571Y-144594342D01*
X161628571Y-144594342D02*
X161676190Y-144689580D01*
X161676190Y-144689580D02*
X161723809Y-144737200D01*
X161723809Y-144737200D02*
X161819047Y-144784819D01*
X161819047Y-144784819D02*
X162009523Y-144784819D01*
X162009523Y-144784819D02*
X162104761Y-144737200D01*
X161199999Y-144784819D02*
X161199999Y-144118152D01*
X161199999Y-144308628D02*
X161152380Y-144213390D01*
X161152380Y-144213390D02*
X161104761Y-144165771D01*
X161104761Y-144165771D02*
X161009523Y-144118152D01*
X161009523Y-144118152D02*
X160914285Y-144118152D01*
X160438094Y-144784819D02*
X160533332Y-144737200D01*
X160533332Y-144737200D02*
X160580951Y-144689580D01*
X160580951Y-144689580D02*
X160628570Y-144594342D01*
X160628570Y-144594342D02*
X160628570Y-144308628D01*
X160628570Y-144308628D02*
X160580951Y-144213390D01*
X160580951Y-144213390D02*
X160533332Y-144165771D01*
X160533332Y-144165771D02*
X160438094Y-144118152D01*
X160438094Y-144118152D02*
X160295237Y-144118152D01*
X160295237Y-144118152D02*
X160199999Y-144165771D01*
X160199999Y-144165771D02*
X160152380Y-144213390D01*
X160152380Y-144213390D02*
X160104761Y-144308628D01*
X160104761Y-144308628D02*
X160104761Y-144594342D01*
X160104761Y-144594342D02*
X160152380Y-144689580D01*
X160152380Y-144689580D02*
X160199999Y-144737200D01*
X160199999Y-144737200D02*
X160295237Y-144784819D01*
X160295237Y-144784819D02*
X160438094Y-144784819D01*
X159247618Y-144118152D02*
X159247618Y-144927676D01*
X159247618Y-144927676D02*
X159295237Y-145022914D01*
X159295237Y-145022914D02*
X159342856Y-145070533D01*
X159342856Y-145070533D02*
X159438094Y-145118152D01*
X159438094Y-145118152D02*
X159580951Y-145118152D01*
X159580951Y-145118152D02*
X159676189Y-145070533D01*
X159247618Y-144737200D02*
X159342856Y-144784819D01*
X159342856Y-144784819D02*
X159533332Y-144784819D01*
X159533332Y-144784819D02*
X159628570Y-144737200D01*
X159628570Y-144737200D02*
X159676189Y-144689580D01*
X159676189Y-144689580D02*
X159723808Y-144594342D01*
X159723808Y-144594342D02*
X159723808Y-144308628D01*
X159723808Y-144308628D02*
X159676189Y-144213390D01*
X159676189Y-144213390D02*
X159628570Y-144165771D01*
X159628570Y-144165771D02*
X159533332Y-144118152D01*
X159533332Y-144118152D02*
X159342856Y-144118152D01*
X159342856Y-144118152D02*
X159247618Y-144165771D01*
X158247618Y-144784819D02*
X158819046Y-144784819D01*
X158533332Y-144784819D02*
X158533332Y-143784819D01*
X158533332Y-143784819D02*
X158628570Y-143927676D01*
X158628570Y-143927676D02*
X158723808Y-144022914D01*
X158723808Y-144022914D02*
X158819046Y-144070533D01*
X154457200Y-71966667D02*
X154504819Y-72109524D01*
X154504819Y-72109524D02*
X154504819Y-72347619D01*
X154504819Y-72347619D02*
X154457200Y-72442857D01*
X154457200Y-72442857D02*
X154409580Y-72490476D01*
X154409580Y-72490476D02*
X154314342Y-72538095D01*
X154314342Y-72538095D02*
X154219104Y-72538095D01*
X154219104Y-72538095D02*
X154123866Y-72490476D01*
X154123866Y-72490476D02*
X154076247Y-72442857D01*
X154076247Y-72442857D02*
X154028628Y-72347619D01*
X154028628Y-72347619D02*
X153981009Y-72157143D01*
X153981009Y-72157143D02*
X153933390Y-72061905D01*
X153933390Y-72061905D02*
X153885771Y-72014286D01*
X153885771Y-72014286D02*
X153790533Y-71966667D01*
X153790533Y-71966667D02*
X153695295Y-71966667D01*
X153695295Y-71966667D02*
X153600057Y-72014286D01*
X153600057Y-72014286D02*
X153552438Y-72061905D01*
X153552438Y-72061905D02*
X153504819Y-72157143D01*
X153504819Y-72157143D02*
X153504819Y-72395238D01*
X153504819Y-72395238D02*
X153552438Y-72538095D01*
X153504819Y-72871429D02*
X154504819Y-73109524D01*
X154504819Y-73109524D02*
X153790533Y-73300000D01*
X153790533Y-73300000D02*
X154504819Y-73490476D01*
X154504819Y-73490476D02*
X153504819Y-73728572D01*
X153504819Y-74585714D02*
X153504819Y-74109524D01*
X153504819Y-74109524D02*
X153981009Y-74061905D01*
X153981009Y-74061905D02*
X153933390Y-74109524D01*
X153933390Y-74109524D02*
X153885771Y-74204762D01*
X153885771Y-74204762D02*
X153885771Y-74442857D01*
X153885771Y-74442857D02*
X153933390Y-74538095D01*
X153933390Y-74538095D02*
X153981009Y-74585714D01*
X153981009Y-74585714D02*
X154076247Y-74633333D01*
X154076247Y-74633333D02*
X154314342Y-74633333D01*
X154314342Y-74633333D02*
X154409580Y-74585714D01*
X154409580Y-74585714D02*
X154457200Y-74538095D01*
X154457200Y-74538095D02*
X154504819Y-74442857D01*
X154504819Y-74442857D02*
X154504819Y-74204762D01*
X154504819Y-74204762D02*
X154457200Y-74109524D01*
X154457200Y-74109524D02*
X154409580Y-74061905D01*
X126398966Y-124409580D02*
X126446585Y-124457200D01*
X126446585Y-124457200D02*
X126589442Y-124504819D01*
X126589442Y-124504819D02*
X126684680Y-124504819D01*
X126684680Y-124504819D02*
X126827537Y-124457200D01*
X126827537Y-124457200D02*
X126922775Y-124361961D01*
X126922775Y-124361961D02*
X126970394Y-124266723D01*
X126970394Y-124266723D02*
X127018013Y-124076247D01*
X127018013Y-124076247D02*
X127018013Y-123933390D01*
X127018013Y-123933390D02*
X126970394Y-123742914D01*
X126970394Y-123742914D02*
X126922775Y-123647676D01*
X126922775Y-123647676D02*
X126827537Y-123552438D01*
X126827537Y-123552438D02*
X126684680Y-123504819D01*
X126684680Y-123504819D02*
X126589442Y-123504819D01*
X126589442Y-123504819D02*
X126446585Y-123552438D01*
X126446585Y-123552438D02*
X126398966Y-123600057D01*
X126065632Y-123504819D02*
X125398966Y-123504819D01*
X125398966Y-123504819D02*
X125827537Y-124504819D01*
D11*
%TO.C,BT1*%
X131810000Y-66420000D02*
X152790000Y-66420000D01*
X131810000Y-143380000D02*
X131810000Y-66420000D01*
X142300000Y-65270000D02*
X142300000Y-63270000D01*
X142300000Y-146530000D02*
X142300000Y-144530000D01*
X143300000Y-64270000D02*
X141300000Y-64270000D01*
X152790000Y-66420000D02*
X152790000Y-143380000D01*
X152790000Y-143380000D02*
X131810000Y-143380000D01*
D12*
%TO.C,prog1*%
X158870000Y-133050000D02*
X158870000Y-140730000D01*
X158870000Y-143330000D02*
X158870000Y-142000000D01*
X160200000Y-143330000D02*
X158870000Y-143330000D01*
X161530000Y-133050000D02*
X158870000Y-133050000D01*
X161530000Y-133050000D02*
X161530000Y-140730000D01*
X161530000Y-140730000D02*
X158870000Y-140730000D01*
%TO.C,SW5*%
X155050000Y-71050000D02*
X155050000Y-75550000D01*
X157550000Y-76800000D02*
X159050000Y-76800000D01*
X159050000Y-69800000D02*
X157550000Y-69800000D01*
X161550000Y-75550000D02*
X161550000Y-71050000D01*
%TO.C,C7*%
X121252654Y-120175000D02*
X121252654Y-121175000D01*
X121752654Y-120675000D02*
X120752654Y-120675000D01*
X126232300Y-112720000D02*
X126232300Y-122880000D01*
X126272300Y-112720000D02*
X126272300Y-122880000D01*
X126312300Y-112720000D02*
X126312300Y-122880000D01*
X126352300Y-112721000D02*
X126352300Y-122879000D01*
X126392300Y-112722000D02*
X126392300Y-122878000D01*
X126432300Y-112723000D02*
X126432300Y-122877000D01*
X126472300Y-112725000D02*
X126472300Y-122875000D01*
X126512300Y-112727000D02*
X126512300Y-122873000D01*
X126552300Y-112730000D02*
X126552300Y-122870000D01*
X126592300Y-112732000D02*
X126592300Y-122868000D01*
X126632300Y-112735000D02*
X126632300Y-122865000D01*
X126672300Y-112738000D02*
X126672300Y-122862000D01*
X126712300Y-112742000D02*
X126712300Y-122858000D01*
X126752300Y-112746000D02*
X126752300Y-116559000D01*
X126752300Y-119041000D02*
X126752300Y-122854000D01*
X126792300Y-112750000D02*
X126792300Y-116559000D01*
X126792300Y-119041000D02*
X126792300Y-122850000D01*
X126832300Y-112755000D02*
X126832300Y-116559000D01*
X126832300Y-119041000D02*
X126832300Y-122845000D01*
X126872300Y-112760000D02*
X126872300Y-116559000D01*
X126872300Y-119041000D02*
X126872300Y-122840000D01*
X126912300Y-112765000D02*
X126912300Y-116559000D01*
X126912300Y-119041000D02*
X126912300Y-122835000D01*
X126953300Y-112770000D02*
X126953300Y-116559000D01*
X126953300Y-119041000D02*
X126953300Y-122830000D01*
X126993300Y-112776000D02*
X126993300Y-116559000D01*
X126993300Y-119041000D02*
X126993300Y-122824000D01*
X127033300Y-112782000D02*
X127033300Y-116559000D01*
X127033300Y-119041000D02*
X127033300Y-122818000D01*
X127073300Y-112789000D02*
X127073300Y-116559000D01*
X127073300Y-119041000D02*
X127073300Y-122811000D01*
X127113300Y-112796000D02*
X127113300Y-116559000D01*
X127113300Y-119041000D02*
X127113300Y-122804000D01*
X127153300Y-112803000D02*
X127153300Y-116559000D01*
X127153300Y-119041000D02*
X127153300Y-122797000D01*
X127193300Y-112810000D02*
X127193300Y-116559000D01*
X127193300Y-119041000D02*
X127193300Y-122790000D01*
X127233300Y-112818000D02*
X127233300Y-116559000D01*
X127233300Y-119041000D02*
X127233300Y-122782000D01*
X127273300Y-112826000D02*
X127273300Y-116559000D01*
X127273300Y-119041000D02*
X127273300Y-122774000D01*
X127313300Y-112835000D02*
X127313300Y-116559000D01*
X127313300Y-119041000D02*
X127313300Y-122765000D01*
X127353300Y-112844000D02*
X127353300Y-116559000D01*
X127353300Y-119041000D02*
X127353300Y-122756000D01*
X127393300Y-112853000D02*
X127393300Y-116559000D01*
X127393300Y-119041000D02*
X127393300Y-122747000D01*
X127433300Y-112862000D02*
X127433300Y-116559000D01*
X127433300Y-119041000D02*
X127433300Y-122738000D01*
X127473300Y-112872000D02*
X127473300Y-116559000D01*
X127473300Y-119041000D02*
X127473300Y-122728000D01*
X127513300Y-112882000D02*
X127513300Y-116559000D01*
X127513300Y-119041000D02*
X127513300Y-122718000D01*
X127553300Y-112893000D02*
X127553300Y-116559000D01*
X127553300Y-119041000D02*
X127553300Y-122707000D01*
X127593300Y-112903000D02*
X127593300Y-116559000D01*
X127593300Y-119041000D02*
X127593300Y-122697000D01*
X127633300Y-112915000D02*
X127633300Y-116559000D01*
X127633300Y-119041000D02*
X127633300Y-122685000D01*
X127673300Y-112926000D02*
X127673300Y-116559000D01*
X127673300Y-119041000D02*
X127673300Y-122674000D01*
X127713300Y-112938000D02*
X127713300Y-116559000D01*
X127713300Y-119041000D02*
X127713300Y-122662000D01*
X127753300Y-112950000D02*
X127753300Y-116559000D01*
X127753300Y-119041000D02*
X127753300Y-122650000D01*
X127793300Y-112963000D02*
X127793300Y-116559000D01*
X127793300Y-119041000D02*
X127793300Y-122637000D01*
X127833300Y-112976000D02*
X127833300Y-116559000D01*
X127833300Y-119041000D02*
X127833300Y-122624000D01*
X127873300Y-112989000D02*
X127873300Y-116559000D01*
X127873300Y-119041000D02*
X127873300Y-122611000D01*
X127913300Y-113003000D02*
X127913300Y-116559000D01*
X127913300Y-119041000D02*
X127913300Y-122597000D01*
X127953300Y-113017000D02*
X127953300Y-116559000D01*
X127953300Y-119041000D02*
X127953300Y-122583000D01*
X127993300Y-113032000D02*
X127993300Y-116559000D01*
X127993300Y-119041000D02*
X127993300Y-122568000D01*
X128033300Y-113046000D02*
X128033300Y-116559000D01*
X128033300Y-119041000D02*
X128033300Y-122554000D01*
X128073300Y-113062000D02*
X128073300Y-116559000D01*
X128073300Y-119041000D02*
X128073300Y-122538000D01*
X128113300Y-113077000D02*
X128113300Y-116559000D01*
X128113300Y-119041000D02*
X128113300Y-122523000D01*
X128153300Y-113093000D02*
X128153300Y-116559000D01*
X128153300Y-119041000D02*
X128153300Y-122507000D01*
X128193300Y-113110000D02*
X128193300Y-116559000D01*
X128193300Y-119041000D02*
X128193300Y-122490000D01*
X128233300Y-113126000D02*
X128233300Y-116559000D01*
X128233300Y-119041000D02*
X128233300Y-122474000D01*
X128273300Y-113143000D02*
X128273300Y-116559000D01*
X128273300Y-119041000D02*
X128273300Y-122457000D01*
X128313300Y-113161000D02*
X128313300Y-116559000D01*
X128313300Y-119041000D02*
X128313300Y-122439000D01*
X128353300Y-113179000D02*
X128353300Y-116559000D01*
X128353300Y-119041000D02*
X128353300Y-122421000D01*
X128393300Y-113197000D02*
X128393300Y-116559000D01*
X128393300Y-119041000D02*
X128393300Y-122403000D01*
X128433300Y-113216000D02*
X128433300Y-116559000D01*
X128433300Y-119041000D02*
X128433300Y-122384000D01*
X128473300Y-113236000D02*
X128473300Y-116559000D01*
X128473300Y-119041000D02*
X128473300Y-122364000D01*
X128513300Y-113255000D02*
X128513300Y-116559000D01*
X128513300Y-119041000D02*
X128513300Y-122345000D01*
X128553300Y-113275000D02*
X128553300Y-116559000D01*
X128553300Y-119041000D02*
X128553300Y-122325000D01*
X128593300Y-113296000D02*
X128593300Y-116559000D01*
X128593300Y-119041000D02*
X128593300Y-122304000D01*
X128633300Y-113317000D02*
X128633300Y-116559000D01*
X128633300Y-119041000D02*
X128633300Y-122283000D01*
X128673300Y-113338000D02*
X128673300Y-116559000D01*
X128673300Y-119041000D02*
X128673300Y-122262000D01*
X128713300Y-113360000D02*
X128713300Y-116559000D01*
X128713300Y-119041000D02*
X128713300Y-122240000D01*
X128753300Y-113383000D02*
X128753300Y-116559000D01*
X128753300Y-119041000D02*
X128753300Y-122217000D01*
X128793300Y-113405000D02*
X128793300Y-116559000D01*
X128793300Y-119041000D02*
X128793300Y-122195000D01*
X128833300Y-113429000D02*
X128833300Y-116559000D01*
X128833300Y-119041000D02*
X128833300Y-122171000D01*
X128873300Y-113453000D02*
X128873300Y-116559000D01*
X128873300Y-119041000D02*
X128873300Y-122147000D01*
X128913300Y-113477000D02*
X128913300Y-116559000D01*
X128913300Y-119041000D02*
X128913300Y-122123000D01*
X128953300Y-113502000D02*
X128953300Y-116559000D01*
X128953300Y-119041000D02*
X128953300Y-122098000D01*
X128993300Y-113527000D02*
X128993300Y-116559000D01*
X128993300Y-119041000D02*
X128993300Y-122073000D01*
X129033300Y-113553000D02*
X129033300Y-116559000D01*
X129033300Y-119041000D02*
X129033300Y-122047000D01*
X129073300Y-113579000D02*
X129073300Y-116559000D01*
X129073300Y-119041000D02*
X129073300Y-122021000D01*
X129113300Y-113606000D02*
X129113300Y-116559000D01*
X129113300Y-119041000D02*
X129113300Y-121994000D01*
X129153300Y-113634000D02*
X129153300Y-116559000D01*
X129153300Y-119041000D02*
X129153300Y-121966000D01*
X129193300Y-113662000D02*
X129193300Y-116559000D01*
X129193300Y-119041000D02*
X129193300Y-121938000D01*
X129233300Y-113690000D02*
X129233300Y-121910000D01*
X129273300Y-113720000D02*
X129273300Y-121880000D01*
X129313300Y-113750000D02*
X129313300Y-121850000D01*
X129353300Y-113780000D02*
X129353300Y-121820000D01*
X129393300Y-113811000D02*
X129393300Y-121789000D01*
X129433300Y-113843000D02*
X129433300Y-121757000D01*
X129473300Y-113875000D02*
X129473300Y-121725000D01*
X129513300Y-113908000D02*
X129513300Y-121692000D01*
X129553300Y-113942000D02*
X129553300Y-121658000D01*
X129593300Y-113976000D02*
X129593300Y-121624000D01*
X129633300Y-114011000D02*
X129633300Y-121589000D01*
X129673300Y-114047000D02*
X129673300Y-121553000D01*
X129713300Y-114084000D02*
X129713300Y-121516000D01*
X129753300Y-114121000D02*
X129753300Y-121479000D01*
X129793300Y-114160000D02*
X129793300Y-121440000D01*
X129833300Y-114199000D02*
X129833300Y-121401000D01*
X129873300Y-114239000D02*
X129873300Y-121361000D01*
X129913300Y-114280000D02*
X129913300Y-121320000D01*
X129953300Y-114322000D02*
X129953300Y-121278000D01*
X129993300Y-114364000D02*
X129993300Y-121236000D01*
X130033300Y-114408000D02*
X130033300Y-121192000D01*
X130073300Y-114453000D02*
X130073300Y-121147000D01*
X130113300Y-114499000D02*
X130113300Y-121101000D01*
X130153300Y-114546000D02*
X130153300Y-121054000D01*
X130193300Y-114594000D02*
X130193300Y-121006000D01*
X130233300Y-114644000D02*
X130233300Y-120956000D01*
X130273300Y-114694000D02*
X130273300Y-120906000D01*
X130313300Y-114746000D02*
X130313300Y-120854000D01*
X130353300Y-114800000D02*
X130353300Y-120800000D01*
X130393300Y-114855000D02*
X130393300Y-120745000D01*
X130433300Y-114911000D02*
X130433300Y-120689000D01*
X130473300Y-114970000D02*
X130473300Y-120630000D01*
X130513300Y-115030000D02*
X130513300Y-120570000D01*
X130553300Y-115091000D02*
X130553300Y-120509000D01*
X130593300Y-115155000D02*
X130593300Y-120445000D01*
X130633300Y-115221000D02*
X130633300Y-120379000D01*
X130673300Y-115290000D02*
X130673300Y-120310000D01*
X130713300Y-115361000D02*
X130713300Y-120239000D01*
X130753300Y-115435000D02*
X130753300Y-120165000D01*
X130793300Y-115511000D02*
X130793300Y-120089000D01*
X130833300Y-115591000D02*
X130833300Y-120009000D01*
X130873300Y-115675000D02*
X130873300Y-119925000D01*
X130913300Y-115763000D02*
X130913300Y-119837000D01*
X130953300Y-115856000D02*
X130953300Y-119744000D01*
X130993300Y-115954000D02*
X130993300Y-119646000D01*
X131033300Y-116058000D02*
X131033300Y-119542000D01*
X131073300Y-116170000D02*
X131073300Y-119430000D01*
X131113300Y-116290000D02*
X131113300Y-119310000D01*
X131153300Y-116422000D02*
X131153300Y-119178000D01*
X131193300Y-116570000D02*
X131193300Y-119030000D01*
X131233300Y-116738000D02*
X131233300Y-118862000D01*
X131273300Y-116938000D02*
X131273300Y-118662000D01*
X131313300Y-117201000D02*
X131313300Y-118399000D01*
X131352300Y-117800000D02*
G75*
G02*
X121112300Y-117800000I-5120000J0D01*
G01*
X121112300Y-117800000D02*
G75*
G02*
X131352300Y-117800000I5120000J0D01*
G01*
%TD*%
M02*
