%TF.GenerationSoftware,KiCad,Pcbnew,8.0.5*%
%TF.CreationDate,2026-01-06T21:14:37+02:00*%
%TF.ProjectId,scheme,73636865-6d65-42e6-9b69-6361645f7063,rev?*%
%TF.SameCoordinates,Original*%
%TF.FileFunction,Soldermask,Bot*%
%TF.FilePolarity,Negative*%
%FSLAX46Y46*%
G04 Gerber Fmt 4.6, Leading zero omitted, Abs format (unit mm)*
G04 Created by KiCad (PCBNEW 8.0.5) date 2026-01-06 21:14:37*
%MOMM*%
%LPD*%
G01*
G04 APERTURE LIST*
G04 Aperture macros list*
%AMRoundRect*
0 Rectangle with rounded corners*
0 $1 Rounding radius*
0 $2 $3 $4 $5 $6 $7 $8 $9 X,Y pos of 4 corners*
0 Add a 4 corners polygon primitive as box body*
4,1,4,$2,$3,$4,$5,$6,$7,$8,$9,$2,$3,0*
0 Add four circle primitives for the rounded corners*
1,1,$1+$1,$2,$3*
1,1,$1+$1,$4,$5*
1,1,$1+$1,$6,$7*
1,1,$1+$1,$8,$9*
0 Add four rect primitives between the rounded corners*
20,1,$1+$1,$2,$3,$4,$5,0*
20,1,$1+$1,$4,$5,$6,$7,0*
20,1,$1+$1,$6,$7,$8,$9,0*
20,1,$1+$1,$8,$9,$2,$3,0*%
G04 Aperture macros list end*
%ADD10O,4.344000X2.274000*%
%ADD11C,3.200000*%
%ADD12R,1.800000X1.800000*%
%ADD13C,1.800000*%
%ADD14C,2.000000*%
%ADD15C,1.982000*%
%ADD16C,2.490000*%
%ADD17R,1.700000X1.700000*%
%ADD18O,1.700000X1.700000*%
%ADD19C,1.500000*%
%ADD20RoundRect,0.102000X0.654000X-0.654000X0.654000X0.654000X-0.654000X0.654000X-0.654000X-0.654000X0*%
%ADD21C,1.512000*%
G04 APERTURE END LIST*
D10*
%TO.C,BT1*%
X142300000Y-153100000D03*
X142300000Y-83100000D03*
D11*
X142300000Y-118100000D03*
%TD*%
D12*
%TO.C,D1*%
X125400000Y-46800000D03*
D13*
X122860000Y-46800000D03*
%TD*%
D14*
%TO.C,SW3*%
X128550000Y-80350000D03*
X135050000Y-80350000D03*
X128550000Y-84850000D03*
X135050000Y-84850000D03*
%TD*%
D15*
%TO.C,U1*%
X153318700Y-51575000D03*
X153318700Y-57925000D03*
X148238700Y-51575000D03*
X148238700Y-57925000D03*
X130458700Y-52210000D03*
X130458700Y-54750000D03*
X130458700Y-57290000D03*
D16*
X147286200Y-47130000D03*
X133951200Y-47130000D03*
X147286200Y-62370000D03*
X133951200Y-62370000D03*
D15*
X143158700Y-44590000D03*
X140618700Y-44590000D03*
X138078700Y-44590000D03*
%TD*%
D12*
%TO.C,D4*%
X159675000Y-65400000D03*
D13*
X157135000Y-65400000D03*
%TD*%
D17*
%TO.C,J1*%
X159800000Y-128225000D03*
D18*
X159800000Y-130765000D03*
%TD*%
D14*
%TO.C,SW2*%
X138550000Y-88150000D03*
X145050000Y-88150000D03*
X138550000Y-92650000D03*
X145050000Y-92650000D03*
%TD*%
D12*
%TO.C,D2*%
X159675000Y-46800000D03*
D13*
X157135000Y-46800000D03*
%TD*%
D12*
%TO.C,D3*%
X125400000Y-65400000D03*
D13*
X122860000Y-65400000D03*
%TD*%
D14*
%TO.C,TP1*%
X123995000Y-127605000D03*
X123995000Y-141605000D03*
X146995000Y-127605000D03*
X146995000Y-141605000D03*
X146995000Y-130145000D03*
X146995000Y-139065000D03*
%TD*%
%TO.C,SW4*%
X148500000Y-80400000D03*
X155000000Y-80400000D03*
X148500000Y-84900000D03*
X155000000Y-84900000D03*
%TD*%
%TO.C,SW1*%
X138550000Y-72650000D03*
X145050000Y-72650000D03*
X138550000Y-77150000D03*
X145050000Y-77150000D03*
%TD*%
D19*
%TO.C,S1*%
X158800000Y-142200000D03*
X158800000Y-134000000D03*
D20*
X158800000Y-140100000D03*
D21*
X158800000Y-138100000D03*
X158800000Y-136100000D03*
%TD*%
D17*
%TO.C,J2*%
X159800000Y-59500000D03*
D18*
X159800000Y-56960000D03*
X159800000Y-54420000D03*
X159800000Y-51880000D03*
%TD*%
D17*
%TO.C,prog1*%
X159800000Y-124500000D03*
D18*
X159800000Y-121960000D03*
X159800000Y-119420000D03*
X159800000Y-116880000D03*
%TD*%
D14*
%TO.C,SW5*%
X156050000Y-70050000D03*
X156050000Y-76550000D03*
X160550000Y-70050000D03*
X160550000Y-76550000D03*
%TD*%
M02*
