%TF.GenerationSoftware,KiCad,Pcbnew,8.0.5*%
%TF.CreationDate,2026-01-06T21:14:37+02:00*%
%TF.ProjectId,scheme,73636865-6d65-42e6-9b69-6361645f7063,rev?*%
%TF.SameCoordinates,Original*%
%TF.FileFunction,Copper,L1,Top*%
%TF.FilePolarity,Positive*%
%FSLAX46Y46*%
G04 Gerber Fmt 4.6, Leading zero omitted, Abs format (unit mm)*
G04 Created by KiCad (PCBNEW 8.0.5) date 2026-01-06 21:14:37*
%MOMM*%
%LPD*%
G01*
G04 APERTURE LIST*
G04 Aperture macros list*
%AMRoundRect*
0 Rectangle with rounded corners*
0 $1 Rounding radius*
0 $2 $3 $4 $5 $6 $7 $8 $9 X,Y pos of 4 corners*
0 Add a 4 corners polygon primitive as box body*
4,1,4,$2,$3,$4,$5,$6,$7,$8,$9,$2,$3,0*
0 Add four circle primitives for the rounded corners*
1,1,$1+$1,$2,$3*
1,1,$1+$1,$4,$5*
1,1,$1+$1,$6,$7*
1,1,$1+$1,$8,$9*
0 Add four rect primitives between the rounded corners*
20,1,$1+$1,$2,$3,$4,$5,0*
20,1,$1+$1,$4,$5,$6,$7,0*
20,1,$1+$1,$6,$7,$8,$9,0*
20,1,$1+$1,$8,$9,$2,$3,0*%
G04 Aperture macros list end*
%TA.AperFunction,ComponentPad*%
%ADD10O,4.140000X2.070000*%
%TD*%
%TA.AperFunction,ComponentPad*%
%ADD11R,1.800000X1.800000*%
%TD*%
%TA.AperFunction,ComponentPad*%
%ADD12C,1.800000*%
%TD*%
%TA.AperFunction,SMDPad,CuDef*%
%ADD13RoundRect,0.250000X-0.350000X-0.450000X0.350000X-0.450000X0.350000X0.450000X-0.350000X0.450000X0*%
%TD*%
%TA.AperFunction,SMDPad,CuDef*%
%ADD14RoundRect,0.250000X0.350000X0.450000X-0.350000X0.450000X-0.350000X-0.450000X0.350000X-0.450000X0*%
%TD*%
%TA.AperFunction,SMDPad,CuDef*%
%ADD15RoundRect,0.250000X0.450000X-0.350000X0.450000X0.350000X-0.450000X0.350000X-0.450000X-0.350000X0*%
%TD*%
%TA.AperFunction,SMDPad,CuDef*%
%ADD16RoundRect,0.050000X-0.050000X0.225000X-0.050000X-0.225000X0.050000X-0.225000X0.050000X0.225000X0*%
%TD*%
%TA.AperFunction,SMDPad,CuDef*%
%ADD17RoundRect,0.050000X-0.225000X-0.050000X0.225000X-0.050000X0.225000X0.050000X-0.225000X0.050000X0*%
%TD*%
%TA.AperFunction,ComponentPad*%
%ADD18C,2.000000*%
%TD*%
%TA.AperFunction,ComponentPad*%
%ADD19C,1.778000*%
%TD*%
%TA.AperFunction,ComponentPad*%
%ADD20C,2.286000*%
%TD*%
%TA.AperFunction,SMDPad,CuDef*%
%ADD21R,0.550000X0.800000*%
%TD*%
%TA.AperFunction,ComponentPad*%
%ADD22R,1.700000X1.700000*%
%TD*%
%TA.AperFunction,ComponentPad*%
%ADD23O,1.700000X1.700000*%
%TD*%
%TA.AperFunction,SMDPad,CuDef*%
%ADD24RoundRect,0.250000X-0.450000X0.350000X-0.450000X-0.350000X0.450000X-0.350000X0.450000X0.350000X0*%
%TD*%
%TA.AperFunction,SMDPad,CuDef*%
%ADD25RoundRect,0.075000X-0.650000X-0.075000X0.650000X-0.075000X0.650000X0.075000X-0.650000X0.075000X0*%
%TD*%
%TA.AperFunction,SMDPad,CuDef*%
%ADD26RoundRect,0.150000X-0.587500X-0.150000X0.587500X-0.150000X0.587500X0.150000X-0.587500X0.150000X0*%
%TD*%
%TA.AperFunction,SMDPad,CuDef*%
%ADD27RoundRect,0.150000X0.512500X0.150000X-0.512500X0.150000X-0.512500X-0.150000X0.512500X-0.150000X0*%
%TD*%
%TA.AperFunction,SMDPad,CuDef*%
%ADD28R,1.000000X2.500000*%
%TD*%
%TA.AperFunction,SMDPad,CuDef*%
%ADD29RoundRect,0.100000X-0.712500X-0.100000X0.712500X-0.100000X0.712500X0.100000X-0.712500X0.100000X0*%
%TD*%
%TA.AperFunction,ComponentPad*%
%ADD30R,1.308000X1.308000*%
%TD*%
%TA.AperFunction,ComponentPad*%
%ADD31C,1.308000*%
%TD*%
%TA.AperFunction,ViaPad*%
%ADD32C,0.600000*%
%TD*%
%TA.AperFunction,Conductor*%
%ADD33C,0.150000*%
%TD*%
G04 APERTURE END LIST*
D10*
%TO.P,BT1,-*%
%TO.N,Net-(TP4056-module1-b-)*%
X142300000Y-153100000D03*
%TO.P,BT1,+*%
%TO.N,/bt+*%
X142300000Y-83100000D03*
%TD*%
D11*
%TO.P,D1,1,K*%
%TO.N,Net-(D1-K)*%
X125400000Y-46800000D03*
D12*
%TO.P,D1,2,A*%
%TO.N,Net-(D1-A)*%
X122860000Y-46800000D03*
%TD*%
D13*
%TO.P,R14,1*%
%TO.N,/tx*%
X153200000Y-120000000D03*
%TO.P,R14,2*%
%TO.N,/tx-out*%
X155200000Y-120000000D03*
%TD*%
D14*
%TO.P,R4,1*%
%TO.N,Net-(D1-A)*%
X133872400Y-90700000D03*
%TO.P,R4,2*%
%TO.N,+3.3V*%
X131872400Y-90700000D03*
%TD*%
D15*
%TO.P,R12,1*%
%TO.N,Net-(U7-SDO{slash}AD0)*%
X134300000Y-124000000D03*
%TO.P,R12,2*%
%TO.N,GND*%
X134300000Y-122000000D03*
%TD*%
D16*
%TO.P,U3,1,NC*%
%TO.N,unconnected-(U7-NC-Pad1)*%
X126730000Y-94308800D03*
%TO.P,U3,2,NC*%
%TO.N,unconnected-(U7-NC-Pad2)*%
X126330000Y-94308800D03*
%TO.P,U3,3,NC*%
%TO.N,unconnected-(U7-NC-Pad3)*%
X125930000Y-94308800D03*
%TO.P,U3,4,NC*%
%TO.N,unconnected-(U7-NC-Pad4)*%
X125530000Y-94308800D03*
%TO.P,U3,5,NC*%
%TO.N,unconnected-(U7-NC-Pad5)*%
X125130000Y-94308800D03*
%TO.P,U3,6,NC*%
%TO.N,unconnected-(U7-NC-Pad6)*%
X124730000Y-94308800D03*
D17*
%TO.P,U3,7,AUX_CL*%
%TO.N,unconnected-(U7-AUX_CL-Pad7)*%
X124230000Y-94808800D03*
%TO.P,U3,8,VDDIO*%
%TO.N,+1.8V*%
X124230000Y-95208800D03*
%TO.P,U3,9,SDO/AD0*%
%TO.N,Net-(U7-SDO{slash}AD0)*%
X124230000Y-95608800D03*
%TO.P,U3,10,REGOUT*%
%TO.N,Net-(U7-REGOUT)*%
X124230000Y-96008800D03*
%TO.P,U3,11,FSYNC*%
%TO.N,unconnected-(U7-FSYNC-Pad11)*%
X124230000Y-96408800D03*
%TO.P,U3,12,INT1*%
%TO.N,unconnected-(U7-INT1-Pad12)*%
X124230000Y-96808800D03*
D16*
%TO.P,U3,13,VDD*%
%TO.N,+3.3V*%
X124730000Y-97308800D03*
%TO.P,U3,14,NC*%
%TO.N,unconnected-(U7-NC-Pad14)*%
X125130000Y-97308800D03*
%TO.P,U3,15,NC*%
%TO.N,unconnected-(U7-NC-Pad15)*%
X125530000Y-97308800D03*
%TO.P,U3,16,NC*%
%TO.N,unconnected-(U7-NC-Pad16)*%
X125930000Y-97308800D03*
%TO.P,U3,17,NC*%
%TO.N,unconnected-(U7-NC-Pad17)*%
X126330000Y-97308800D03*
%TO.P,U3,18,GND*%
%TO.N,GND*%
X126730000Y-97308800D03*
D17*
%TO.P,U3,19,RESV*%
%TO.N,unconnected-(U7-RESV-Pad19)*%
X127230000Y-96808800D03*
%TO.P,U3,20,GND*%
%TO.N,GND*%
X127230000Y-96408800D03*
%TO.P,U3,21,AUX_DA*%
%TO.N,unconnected-(U7-AUX_DA-Pad21)*%
X127230000Y-96008800D03*
%TO.P,U3,22,~{CS}*%
%TO.N,Net-(U7-~{CS})*%
X127230000Y-95608800D03*
%TO.P,U3,23,SCL/SCLK*%
%TO.N,/SCL_1.8*%
X127230000Y-95208800D03*
%TO.P,U3,24,SDA/SDI*%
%TO.N,/SDA_1.8*%
X127230000Y-94808800D03*
%TD*%
D13*
%TO.P,R17,1*%
%TO.N,Net-(U2-ADC)*%
X146800000Y-118000000D03*
%TO.P,R17,2*%
%TO.N,GND*%
X148800000Y-118000000D03*
%TD*%
D18*
%TO.P,SW3,1,C*%
%TO.N,GND*%
X128550000Y-80350000D03*
X135050000Y-80350000D03*
%TO.P,SW3,2,D*%
%TO.N,/btnA*%
X128550000Y-84850000D03*
X135050000Y-84850000D03*
%TD*%
D19*
%TO.P,U1,B1A,B1A*%
%TO.N,/btn_103-530*%
X153318700Y-51575000D03*
%TO.P,U1,B1B,B1B*%
%TO.N,unconnected-(U1-PadB1B)*%
X153318700Y-57925000D03*
%TO.P,U1,B2A,B2A*%
%TO.N,GND*%
X148238700Y-51575000D03*
%TO.P,U1,B2B,B2B*%
%TO.N,unconnected-(U1-PadB2B)*%
X148238700Y-57925000D03*
%TO.P,U1,H1,H+*%
%TO.N,GND*%
X130458700Y-52210000D03*
%TO.P,U1,H2,H*%
%TO.N,/analog0*%
X130458700Y-54750000D03*
%TO.P,U1,H3,H-*%
%TO.N,+3.3V*%
X130458700Y-57290000D03*
D20*
%TO.P,U1,S1,SHIELD*%
%TO.N,GND*%
X147286200Y-47130000D03*
X133951200Y-47130000D03*
X147286200Y-62370000D03*
X133951200Y-62370000D03*
D19*
%TO.P,U1,V1,V+*%
%TO.N,+3.3V*%
X143158700Y-44590000D03*
%TO.P,U1,V2,V*%
%TO.N,/analog1*%
X140618700Y-44590000D03*
%TO.P,U1,V3,V-*%
%TO.N,GND*%
X138078700Y-44590000D03*
%TD*%
D11*
%TO.P,D4,1,K*%
%TO.N,Net-(D1-K)*%
X159675000Y-65400000D03*
D12*
%TO.P,D4,2,A*%
%TO.N,Net-(D1-A)*%
X157135000Y-65400000D03*
%TD*%
D21*
%TO.P,U7,1,VIN*%
%TO.N,+4.2V*%
X151500000Y-130250000D03*
%TO.P,U7,2,GND*%
%TO.N,GND*%
X152450000Y-130250000D03*
%TO.P,U7,3,EN*%
%TO.N,+4.2V*%
X153400000Y-130250000D03*
%TO.P,U7,4,NC*%
%TO.N,unconnected-(U4-NC-Pad4)*%
X153400000Y-127850000D03*
%TO.P,U7,5,VOUT*%
%TO.N,+3.3V*%
X151500000Y-127850000D03*
%TD*%
D22*
%TO.P,J1,1,Pin_1*%
%TO.N,Net-(J1-Pin_1)*%
X159800000Y-128225000D03*
D23*
%TO.P,J1,2,Pin_2*%
%TO.N,GND*%
X159800000Y-130765000D03*
%TD*%
D13*
%TO.P,C2,1*%
%TO.N,Net-(U7-REGOUT)*%
X123500000Y-103678800D03*
%TO.P,C2,2*%
%TO.N,GND*%
X125500000Y-103678800D03*
%TD*%
%TO.P,C3,1*%
%TO.N,+3.3V*%
X123500000Y-106600000D03*
%TO.P,C3,2*%
%TO.N,GND*%
X125500000Y-106600000D03*
%TD*%
D24*
%TO.P,R16,1*%
%TO.N,/btnA*%
X140366700Y-122000000D03*
%TO.P,R16,2*%
%TO.N,+3.3V*%
X140366700Y-124000000D03*
%TD*%
D13*
%TO.P,C8,1*%
%TO.N,+3.3V*%
X151800000Y-124800000D03*
%TO.P,C8,2*%
%TO.N,GND*%
X153800000Y-124800000D03*
%TD*%
D25*
%TO.P,U2,1,ADDR*%
%TO.N,GND*%
X130100000Y-69000000D03*
%TO.P,U2,2,ALERT/RDY*%
%TO.N,Net-(U5-ALERT{slash}RDY)*%
X130100000Y-69500000D03*
%TO.P,U2,3,GND*%
%TO.N,GND*%
X130100000Y-70000000D03*
%TO.P,U2,4,AIN0*%
%TO.N,/analog0*%
X130100000Y-70500000D03*
%TO.P,U2,5,AIN1*%
%TO.N,/analog1*%
X130100000Y-71000000D03*
%TO.P,U2,6,AIN2*%
%TO.N,unconnected-(U5-AIN2-Pad6)*%
X134500000Y-71000000D03*
%TO.P,U2,7,AIN3*%
%TO.N,unconnected-(U5-AIN3-Pad7)*%
X134500000Y-70500000D03*
%TO.P,U2,8,VDD*%
%TO.N,+3.3V*%
X134500000Y-70000000D03*
%TO.P,U2,9,SDA*%
%TO.N,/SDA*%
X134500000Y-69500000D03*
%TO.P,U2,10,SCL*%
%TO.N,/SCL*%
X134500000Y-69000000D03*
%TD*%
D26*
%TO.P,Q1,1,B*%
%TO.N,Net-(Q1-B)*%
X123362500Y-77850000D03*
%TO.P,Q1,2,E*%
%TO.N,GND*%
X123362500Y-79750000D03*
%TO.P,Q1,3,C*%
%TO.N,Net-(D1-K)*%
X125237500Y-78800000D03*
%TD*%
D13*
%TO.P,R10,1*%
%TO.N,/bt+*%
X130100000Y-117300000D03*
%TO.P,R10,2*%
%TO.N,Net-(U2-ADC)*%
X132100000Y-117300000D03*
%TD*%
D27*
%TO.P,U6,1,V_{IN}*%
%TO.N,+4.2V*%
X126437500Y-123850000D03*
%TO.P,U6,2,V_{SS}*%
%TO.N,GND*%
X126437500Y-122900000D03*
%TO.P,U6,3,CE*%
%TO.N,+4.2V*%
X126437500Y-121950000D03*
%TO.P,U6,4,NC*%
%TO.N,unconnected-(U6-NC-Pad4)*%
X124162500Y-121950000D03*
%TO.P,U6,5,V_{OUT}*%
%TO.N,+1.8V*%
X124162500Y-123850000D03*
%TD*%
D13*
%TO.P,R7,1*%
%TO.N,+3.3V*%
X130100000Y-103300000D03*
%TO.P,R7,2*%
%TO.N,Net-(U2-EN)*%
X132100000Y-103300000D03*
%TD*%
D18*
%TO.P,SW2,1,C*%
%TO.N,Net-(SW4-C)*%
X138550000Y-88150000D03*
X145050000Y-88150000D03*
%TO.P,SW2,2,D*%
%TO.N,Net-(SW4-D)*%
X138550000Y-92650000D03*
X145050000Y-92650000D03*
%TD*%
D13*
%TO.P,R15,1*%
%TO.N,/rx*%
X153200000Y-117600000D03*
%TO.P,R15,2*%
%TO.N,/rx-out*%
X155200000Y-117600000D03*
%TD*%
D14*
%TO.P,R6,1*%
%TO.N,+1.8V*%
X132100000Y-111700000D03*
%TO.P,R6,2*%
%TO.N,/SDA_1.8*%
X130100000Y-111700000D03*
%TD*%
D13*
%TO.P,C6,1*%
%TO.N,+3.3V*%
X158100000Y-92800000D03*
%TO.P,C6,2*%
%TO.N,GND*%
X160100000Y-92800000D03*
%TD*%
%TO.P,R11,1*%
%TO.N,+3.3V*%
X130100000Y-114500000D03*
%TO.P,R11,2*%
%TO.N,/SCL*%
X132100000Y-114500000D03*
%TD*%
D14*
%TO.P,R8,1*%
%TO.N,+3.3V*%
X125600000Y-88000000D03*
%TO.P,R8,2*%
%TO.N,Net-(U5-ALERT{slash}RDY)*%
X123600000Y-88000000D03*
%TD*%
D28*
%TO.P,U4,1,~{RST}*%
%TO.N,Net-(J1-Pin_1)*%
X152800000Y-98100000D03*
%TO.P,U4,2,ADC*%
%TO.N,Net-(U2-ADC)*%
X150800000Y-98100000D03*
%TO.P,U4,3,EN*%
%TO.N,Net-(U2-EN)*%
X148800000Y-98100000D03*
%TO.P,U4,4,GPIO16*%
%TO.N,/btnB*%
X146800000Y-98100000D03*
%TO.P,U4,5,GPIO14*%
%TO.N,/btnX*%
X144800000Y-98100000D03*
%TO.P,U4,6,GPIO12*%
%TO.N,/led-output*%
X142800000Y-98100000D03*
%TO.P,U4,7,GPIO13*%
%TO.N,/btnY*%
X140800000Y-98100000D03*
%TO.P,U4,8,VCC*%
%TO.N,+3.3V*%
X138800000Y-98100000D03*
%TO.P,U4,15,GND*%
%TO.N,GND*%
X138800000Y-113300000D03*
%TO.P,U4,16,GPIO15*%
%TO.N,Net-(SW4-C)*%
X140800000Y-113300000D03*
%TO.P,U4,17,GPIO2*%
%TO.N,/btn_103-530*%
X142800000Y-113300000D03*
%TO.P,U4,18,GPIO0*%
%TO.N,/btnA*%
X144800000Y-113300000D03*
%TO.P,U4,19,GPIO4*%
%TO.N,/SDA*%
X146800000Y-113300000D03*
%TO.P,U4,20,GPIO5*%
%TO.N,/SCL*%
X148800000Y-113300000D03*
%TO.P,U4,21,GPIO3/RXD*%
%TO.N,/rx*%
X150800000Y-113300000D03*
%TO.P,U4,22,GPIO1/TXD*%
%TO.N,/tx*%
X152800000Y-113300000D03*
%TD*%
D14*
%TO.P,R5,1*%
%TO.N,+3.3V*%
X132100000Y-106100000D03*
%TO.P,R5,2*%
%TO.N,/SDA*%
X130100000Y-106100000D03*
%TD*%
%TO.P,C5,1*%
%TO.N,+1.8V*%
X160100000Y-89800000D03*
%TO.P,C5,2*%
%TO.N,GND*%
X158100000Y-89800000D03*
%TD*%
D13*
%TO.P,R1,1*%
%TO.N,Net-(Q1-B)*%
X128600000Y-76400000D03*
%TO.P,R1,2*%
%TO.N,/led-output*%
X130600000Y-76400000D03*
%TD*%
D11*
%TO.P,D2,1,K*%
%TO.N,Net-(D1-K)*%
X159675000Y-46800000D03*
D12*
%TO.P,D2,2,A*%
%TO.N,Net-(D1-A)*%
X157135000Y-46800000D03*
%TD*%
D29*
%TO.P,U5,1,GND*%
%TO.N,GND*%
X149687500Y-90125000D03*
%TO.P,U5,2,VREF1*%
%TO.N,+1.8V*%
X149687500Y-90775000D03*
%TO.P,U5,3,SCL1*%
%TO.N,/SCL_1.8*%
X149687500Y-91425000D03*
%TO.P,U5,4,SDA1*%
%TO.N,/SDA_1.8*%
X149687500Y-92075000D03*
%TO.P,U5,5,SDA2*%
%TO.N,/SDA*%
X153912500Y-92075000D03*
%TO.P,U5,6,SCL2*%
%TO.N,/SCL*%
X153912500Y-91425000D03*
%TO.P,U5,7,VREF2*%
%TO.N,+3.3V*%
X153912500Y-90775000D03*
%TO.P,U5,8,EN*%
X153912500Y-90125000D03*
%TD*%
D11*
%TO.P,D3,1,K*%
%TO.N,Net-(D1-K)*%
X125400000Y-65400000D03*
D12*
%TO.P,D3,2,A*%
%TO.N,Net-(D1-A)*%
X122860000Y-65400000D03*
%TD*%
D13*
%TO.P,C9,1*%
%TO.N,+4.2V*%
X151800000Y-133300000D03*
%TO.P,C9,2*%
%TO.N,GND*%
X153800000Y-133300000D03*
%TD*%
D14*
%TO.P,R9,1*%
%TO.N,Net-(SW4-D)*%
X133800000Y-93800000D03*
%TO.P,R9,2*%
%TO.N,+3.3V*%
X131800000Y-93800000D03*
%TD*%
D18*
%TO.P,TP1,1,dc+*%
%TO.N,+5C*%
X123995000Y-127605000D03*
%TO.P,TP1,2,dc-*%
%TO.N,GND*%
X123995000Y-141605000D03*
%TO.P,TP1,3,out+*%
%TO.N,Net-(TP4056-module1-out+)*%
X146995000Y-127605000D03*
%TO.P,TP1,4,out-*%
%TO.N,GND*%
X146995000Y-141605000D03*
%TO.P,TP1,5,b+*%
%TO.N,/bt+*%
X146995000Y-130145000D03*
%TO.P,TP1,6,b-*%
%TO.N,Net-(TP4056-module1-b-)*%
X146995000Y-139065000D03*
%TD*%
D14*
%TO.P,R2,1*%
%TO.N,+3.3V*%
X125600000Y-85510800D03*
%TO.P,R2,2*%
%TO.N,Net-(U7-~{CS})*%
X123600000Y-85510800D03*
%TD*%
D18*
%TO.P,SW4,1,C*%
%TO.N,GND*%
X148500000Y-80400000D03*
X155000000Y-80400000D03*
%TO.P,SW4,2,D*%
%TO.N,/btnY*%
X148500000Y-84900000D03*
X155000000Y-84900000D03*
%TD*%
D13*
%TO.P,R3,1*%
%TO.N,+1.8V*%
X130100000Y-108900000D03*
%TO.P,R3,2*%
%TO.N,/SCL_1.8*%
X132100000Y-108900000D03*
%TD*%
D24*
%TO.P,R13,1*%
%TO.N,/btn_103-530*%
X137333300Y-122000000D03*
%TO.P,R13,2*%
%TO.N,+3.3V*%
X137333300Y-124000000D03*
%TD*%
D14*
%TO.P,C1,1*%
%TO.N,+3.3V*%
X151200000Y-69500000D03*
%TO.P,C1,2*%
%TO.N,GND*%
X149200000Y-69500000D03*
%TD*%
%TO.P,C7,1*%
%TO.N,+3.3V*%
X125800000Y-117300000D03*
%TO.P,C7,2*%
%TO.N,GND*%
X123800000Y-117300000D03*
%TD*%
D18*
%TO.P,SW1,1,C*%
%TO.N,GND*%
X138550000Y-72650000D03*
X145050000Y-72650000D03*
%TO.P,SW1,2,D*%
%TO.N,/btnX*%
X138550000Y-77150000D03*
X145050000Y-77150000D03*
%TD*%
D24*
%TO.P,R18,1*%
%TO.N,GND*%
X143400000Y-122000000D03*
%TO.P,R18,2*%
%TO.N,Net-(SW4-C)*%
X143400000Y-124000000D03*
%TD*%
D14*
%TO.P,C4,1*%
%TO.N,+3.3V*%
X125800000Y-113450000D03*
%TO.P,C4,2*%
%TO.N,GND*%
X123800000Y-113450000D03*
%TD*%
D30*
%TO.P,S1,1,1*%
%TO.N,Net-(TP4056-module1-out+)*%
X158800000Y-140100000D03*
D31*
%TO.P,S1,2,2*%
%TO.N,+4.2V*%
X158800000Y-138100000D03*
%TO.P,S1,3,3*%
%TO.N,unconnected-(S1-Pad3)*%
X158800000Y-136100000D03*
%TD*%
D22*
%TO.P,J2,1,Pin_1*%
%TO.N,+3.3V*%
X159800000Y-59500000D03*
D23*
%TO.P,J2,2,Pin_2*%
%TO.N,GND*%
X159800000Y-56960000D03*
%TO.P,J2,3,Pin_3*%
%TO.N,/SCL*%
X159800000Y-54420000D03*
%TO.P,J2,4,Pin_4*%
%TO.N,/SDA*%
X159800000Y-51880000D03*
%TD*%
D22*
%TO.P,prog1,1,Pin_1*%
%TO.N,+5C*%
X159800000Y-124500000D03*
D23*
%TO.P,prog1,2,Pin_2*%
%TO.N,GND*%
X159800000Y-121960000D03*
%TO.P,prog1,3,Pin_3*%
%TO.N,/tx-out*%
X159800000Y-119420000D03*
%TO.P,prog1,4,Pin_4*%
%TO.N,/rx-out*%
X159800000Y-116880000D03*
%TD*%
D18*
%TO.P,SW5,1,C*%
%TO.N,GND*%
X156050000Y-70050000D03*
X156050000Y-76550000D03*
%TO.P,SW5,2,D*%
%TO.N,/btnB*%
X160550000Y-70050000D03*
X160550000Y-76550000D03*
%TD*%
D32*
%TO.N,Net-(U2-ADC)*%
X134500000Y-116500000D03*
X147973800Y-116376800D03*
%TO.N,Net-(SW4-D)*%
X132466700Y-92272800D03*
%TO.N,Net-(U7-SDO{slash}AD0)*%
X123120600Y-95765700D03*
X131250000Y-115925900D03*
%TO.N,Net-(U2-EN)*%
X131580500Y-100867000D03*
X147821800Y-100750000D03*
%TO.N,/led-output*%
X130956000Y-77932400D03*
X137931300Y-79544400D03*
%TO.N,Net-(Q1-B)*%
X128621000Y-77932400D03*
X122990800Y-76683000D03*
%TO.N,/SDA_1.8*%
X148009900Y-91925000D03*
X125168500Y-92702300D03*
X130956000Y-92250000D03*
%TO.N,/SCL_1.8*%
X149149300Y-107150200D03*
X132402700Y-107659800D03*
X128041600Y-105000000D03*
%TO.N,+1.8V*%
X152050400Y-89621900D03*
X160294200Y-91241100D03*
X122750700Y-92500000D03*
X129750000Y-94698200D03*
%TO.N,+4.2V*%
X131550300Y-130338000D03*
X150707000Y-133369900D03*
%TO.N,Net-(D1-A)*%
X134421800Y-72009900D03*
%TO.N,/btnB*%
X146896300Y-83184400D03*
%TO.N,/btnY*%
X140251800Y-87898800D03*
%TO.N,/btn_103-530*%
X146211600Y-105649300D03*
X143036300Y-106761200D03*
%TO.N,/btnA*%
X142981400Y-90624200D03*
%TO.N,/SDA*%
X147915400Y-105897300D03*
X135098500Y-102348500D03*
X135930100Y-70208200D03*
X152512400Y-106761200D03*
X130851700Y-107285600D03*
%TO.N,/SCL*%
X135000000Y-115000000D03*
X149131900Y-115813000D03*
X134961800Y-68145000D03*
X136965200Y-72405400D03*
X150786200Y-74343100D03*
%TO.N,Net-(J1-Pin_1)*%
X151975000Y-126837500D03*
%TO.N,/bt+*%
X131550300Y-127390900D03*
%TO.N,/rx-out*%
X157393800Y-115602500D03*
%TO.N,GND*%
X125732100Y-98488700D03*
X122065300Y-97919900D03*
X122990800Y-80880700D03*
%TO.N,+3.3V*%
X156250000Y-59500000D03*
X145800200Y-59500000D03*
X149545000Y-125246200D03*
X140164800Y-125259200D03*
%TD*%
D33*
%TO.N,GND*%
X122250000Y-139860000D02*
X123995000Y-141605000D01*
X122250000Y-125680300D02*
X122250000Y-139860000D01*
X123508600Y-124421700D02*
X122250000Y-125680300D01*
%TO.N,Net-(U7-SDO{slash}AD0)*%
X131272300Y-120972300D02*
X134300000Y-124000000D01*
X131272300Y-116648900D02*
X131272300Y-120972300D01*
X131250000Y-116626600D02*
X131272300Y-116648900D01*
X131250000Y-115925900D02*
X131250000Y-116626600D01*
%TO.N,/SCL*%
X132600000Y-115000000D02*
X132100000Y-114500000D01*
X135000000Y-115000000D02*
X132600000Y-115000000D01*
%TO.N,Net-(U2-ADC)*%
X132900000Y-116500000D02*
X132100000Y-117300000D01*
X134500000Y-116500000D02*
X132900000Y-116500000D01*
%TO.N,+3.3V*%
X133850000Y-113100000D02*
X132227100Y-113100000D01*
X133360900Y-118639100D02*
X136375000Y-115625000D01*
X133360900Y-122601100D02*
X133360900Y-118639100D01*
X136227100Y-122893800D02*
X133653600Y-122893800D01*
X133653600Y-122893800D02*
X133360900Y-122601100D01*
X137333300Y-124000000D02*
X136227100Y-122893800D01*
X136375000Y-115625000D02*
X133850000Y-113100000D01*
%TO.N,/SDA*%
X130100000Y-106533900D02*
X130100000Y-106100000D01*
X130851700Y-107285600D02*
X130100000Y-106533900D01*
%TO.N,/SCL_1.8*%
X132100000Y-107962500D02*
X132100000Y-108900000D01*
X132402700Y-107659800D02*
X132100000Y-107962500D01*
%TO.N,/SDA*%
X136305400Y-101141600D02*
X136305400Y-70583500D01*
X135098500Y-102348500D02*
X136305400Y-101141600D01*
X136305400Y-70583500D02*
X135930100Y-70208200D01*
%TO.N,/SCL_1.8*%
X128428100Y-96093200D02*
X127543700Y-95208800D01*
X127543700Y-95208800D02*
X127230000Y-95208800D01*
X128041600Y-98332200D02*
X128428100Y-97945700D01*
X128041600Y-105000000D02*
X128041600Y-98332200D01*
X128428100Y-97945700D02*
X128428100Y-96093200D01*
%TO.N,+3.3V*%
X153386800Y-59500000D02*
X151200000Y-61686800D01*
X156250000Y-59500000D02*
X153386800Y-59500000D01*
X151200000Y-61686800D02*
X151200000Y-69500000D01*
%TO.N,+1.8V*%
X129220100Y-108020100D02*
X130100000Y-108900000D01*
X129220100Y-98433900D02*
X129220100Y-108020100D01*
X129750000Y-94698200D02*
X129704800Y-94743400D01*
X129704800Y-94743400D02*
X129704800Y-97949200D01*
X129704800Y-97949200D02*
X129220100Y-98433900D01*
%TO.N,Net-(U7-SDO{slash}AD0)*%
X123277500Y-95608800D02*
X124230000Y-95608800D01*
X123120600Y-95765700D02*
X123277500Y-95608800D01*
%TO.N,+1.8V*%
X125066800Y-121560900D02*
X125066800Y-122945700D01*
X124933400Y-110036700D02*
X124933400Y-121427500D01*
X125066800Y-122945700D02*
X124162500Y-123850000D01*
X122595600Y-107698900D02*
X124933400Y-110036700D01*
X122750700Y-92500000D02*
X122595600Y-92655100D01*
X124933400Y-121427500D02*
X125066800Y-121560900D01*
X123964706Y-95208800D02*
X124230000Y-95208800D01*
X122595600Y-92655100D02*
X122595600Y-107698900D01*
X122750700Y-93994794D02*
X123964706Y-95208800D01*
X122750700Y-92500000D02*
X122750700Y-93994794D01*
%TO.N,Net-(U2-EN)*%
X148194600Y-96623300D02*
X148800000Y-96623300D01*
X147821800Y-96996100D02*
X148194600Y-96623300D01*
X147821800Y-100750000D02*
X147821800Y-96996100D01*
X148800000Y-96623300D02*
X148800000Y-98100000D01*
%TO.N,Net-(U2-ADC)*%
X147973800Y-116826200D02*
X146800000Y-118000000D01*
X147973800Y-116376800D02*
X147973800Y-116826200D01*
X147973800Y-111827100D02*
X147973800Y-116376800D01*
X150800000Y-109000900D02*
X147973800Y-111827100D01*
X150800000Y-98100000D02*
X150800000Y-109000900D01*
%TO.N,Net-(SW4-D)*%
X133800000Y-93606100D02*
X132466700Y-92272800D01*
X133800000Y-93800000D02*
X133800000Y-93606100D01*
%TO.N,Net-(U7-~{CS})*%
X127516900Y-95608800D02*
X127230000Y-95608800D01*
X128062500Y-96154400D02*
X127516900Y-95608800D01*
X128062500Y-97734800D02*
X128062500Y-96154400D01*
X127433400Y-98363900D02*
X128062500Y-97734800D01*
X127433400Y-106929400D02*
X127433400Y-98363900D01*
X127830800Y-107326800D02*
X127433400Y-106929400D01*
X128227600Y-107326800D02*
X127830800Y-107326800D01*
X128579800Y-106974600D02*
X128227600Y-107326800D01*
X128579800Y-98220800D02*
X128579800Y-106974600D01*
X128729800Y-98070800D02*
X128579800Y-98220800D01*
X128729800Y-95180700D02*
X128729800Y-98070800D01*
X122771500Y-89222400D02*
X128729800Y-95180700D01*
X122771500Y-86339300D02*
X122771500Y-89222400D01*
X123600000Y-85510800D02*
X122771500Y-86339300D01*
%TO.N,Net-(U5-ALERT{slash}RDY)*%
X129402000Y-69500000D02*
X130100000Y-69500000D01*
X126751300Y-72150700D02*
X129402000Y-69500000D01*
X126751300Y-78568200D02*
X126751300Y-72150700D01*
X124750000Y-80569500D02*
X126751300Y-78568200D01*
X124750000Y-86850000D02*
X124750000Y-80569500D01*
X123600000Y-88000000D02*
X124750000Y-86850000D01*
%TO.N,Net-(SW4-C)*%
X136405600Y-119171100D02*
X140800000Y-114776700D01*
X136405600Y-122633800D02*
X136405600Y-119171100D01*
X136944100Y-123172300D02*
X136405600Y-122633800D01*
X142572300Y-123172300D02*
X136944100Y-123172300D01*
X143400000Y-124000000D02*
X142572300Y-123172300D01*
X140073300Y-89673300D02*
X138550000Y-88150000D01*
X140073300Y-111096600D02*
X140073300Y-89673300D01*
X140800000Y-111823300D02*
X140073300Y-111096600D01*
X140800000Y-113300000D02*
X140800000Y-111823300D01*
X140800000Y-113300000D02*
X140800000Y-114776700D01*
%TO.N,Net-(U2-EN)*%
X132100000Y-101386500D02*
X131580500Y-100867000D01*
X132100000Y-103300000D02*
X132100000Y-101386500D01*
%TO.N,Net-(U7-REGOUT)*%
X123918500Y-96008800D02*
X124230000Y-96008800D01*
X123500000Y-96427300D02*
X123918500Y-96008800D01*
X123500000Y-103678800D02*
X123500000Y-96427300D01*
%TO.N,/led-output*%
X130956000Y-76756000D02*
X130956000Y-77932400D01*
X130600000Y-76400000D02*
X130956000Y-76756000D01*
X142800000Y-95813900D02*
X142800000Y-98100000D01*
X141311000Y-94324900D02*
X142800000Y-95813900D01*
X141311000Y-88208900D02*
X141311000Y-94324900D01*
X137931300Y-84829200D02*
X141311000Y-88208900D01*
X137931300Y-79544400D02*
X137931300Y-84829200D01*
%TO.N,Net-(Q1-B)*%
X128621000Y-76421000D02*
X128621000Y-77932400D01*
X128600000Y-76400000D02*
X128621000Y-76421000D01*
X123362500Y-77054700D02*
X123362500Y-77850000D01*
X122990800Y-76683000D02*
X123362500Y-77054700D01*
%TO.N,/rx*%
X150800000Y-115200000D02*
X153200000Y-117600000D01*
X150800000Y-113300000D02*
X150800000Y-115200000D01*
%TO.N,/SDA_1.8*%
X148159900Y-92075000D02*
X148009900Y-91925000D01*
X149687500Y-92075000D02*
X148159900Y-92075000D01*
X127230000Y-94126300D02*
X127230000Y-94808800D01*
X125806000Y-92702300D02*
X127230000Y-94126300D01*
X125168500Y-92702300D02*
X125806000Y-92702300D01*
X129031500Y-94174500D02*
X130956000Y-92250000D01*
X129031500Y-98195800D02*
X129031500Y-94174500D01*
X128918400Y-98308900D02*
X129031500Y-98195800D01*
X128918400Y-110518400D02*
X128918400Y-98308900D01*
X130100000Y-111700000D02*
X128918400Y-110518400D01*
%TO.N,/SCL_1.8*%
X149631400Y-91368900D02*
X149687500Y-91425000D01*
X147783500Y-91368900D02*
X149631400Y-91368900D01*
X147483100Y-91669300D02*
X147783500Y-91368900D01*
X147483100Y-94712500D02*
X147483100Y-91669300D01*
X149526700Y-96756100D02*
X147483100Y-94712500D01*
X149526700Y-106772800D02*
X149526700Y-96756100D01*
X149149300Y-107150200D02*
X149526700Y-106772800D01*
%TO.N,+1.8V*%
X160100000Y-91046900D02*
X160100000Y-89800000D01*
X160294200Y-91241100D02*
X160100000Y-91046900D01*
X132100000Y-110900000D02*
X130100000Y-108900000D01*
X132100000Y-111700000D02*
X132100000Y-110900000D01*
X150897300Y-90775000D02*
X149687500Y-90775000D01*
X152050400Y-89621900D02*
X150897300Y-90775000D01*
%TO.N,+4.2V*%
X158473200Y-138100000D02*
X158800000Y-138100000D01*
X154646100Y-134272900D02*
X158473200Y-138100000D01*
X152772900Y-134272900D02*
X151800000Y-133300000D01*
X154646100Y-134272900D02*
X152772900Y-134272900D01*
X154646100Y-130994400D02*
X154646100Y-134272900D01*
X153901700Y-130250000D02*
X154646100Y-130994400D01*
X153400000Y-130250000D02*
X153901700Y-130250000D01*
X127379200Y-122577800D02*
X127379200Y-123850000D01*
X126751400Y-121950000D02*
X127379200Y-122577800D01*
X126437500Y-121950000D02*
X126751400Y-121950000D01*
X151130100Y-133369900D02*
X151500000Y-133000000D01*
X150707000Y-133369900D02*
X151130100Y-133369900D01*
X151500000Y-130250000D02*
X151500000Y-133000000D01*
X151500000Y-133000000D02*
X151800000Y-133300000D01*
X127379200Y-123850000D02*
X126437500Y-123850000D01*
X127379200Y-126166900D02*
X131550300Y-130338000D01*
X127379200Y-123850000D02*
X127379200Y-126166900D01*
%TO.N,Net-(D1-A)*%
X157183000Y-46752000D02*
X157135000Y-46800000D01*
X157602500Y-46752000D02*
X157183000Y-46752000D01*
X157602500Y-46751900D02*
X157602500Y-46752000D01*
X158681100Y-45673300D02*
X157602500Y-46751900D01*
X160668900Y-45673300D02*
X158681100Y-45673300D01*
X160876700Y-45881100D02*
X160668900Y-45673300D01*
X160876700Y-66318900D02*
X160876700Y-45881100D01*
X160668900Y-66526700D02*
X160876700Y-66318900D01*
X158681100Y-66526700D02*
X160668900Y-66526700D01*
X157554500Y-65400100D02*
X158681100Y-66526700D01*
X157554500Y-65400000D02*
X157554500Y-65400100D01*
X157135000Y-65400000D02*
X157554500Y-65400000D01*
X133804000Y-72627700D02*
X134421800Y-72009900D01*
X133804000Y-90631600D02*
X133804000Y-72627700D01*
X133872400Y-90700000D02*
X133804000Y-90631600D01*
X122860000Y-65400000D02*
X122860000Y-46800000D01*
%TO.N,/analog1*%
X130827200Y-71000000D02*
X130100000Y-71000000D01*
X140618700Y-61208500D02*
X130827200Y-71000000D01*
X140618700Y-44590000D02*
X140618700Y-61208500D01*
%TO.N,/analog0*%
X130825300Y-70500000D02*
X130100000Y-70500000D01*
X135391400Y-65933900D02*
X130825300Y-70500000D01*
X135391400Y-59682700D02*
X135391400Y-65933900D01*
X130458700Y-54750000D02*
X135391400Y-59682700D01*
%TO.N,/btnX*%
X144800000Y-98100000D02*
X144800000Y-96623300D01*
X138550000Y-85021200D02*
X138550000Y-77150000D01*
X143508100Y-89979300D02*
X138550000Y-85021200D01*
X143508100Y-95331400D02*
X143508100Y-89979300D01*
X144800000Y-96623300D02*
X143508100Y-95331400D01*
%TO.N,/btnB*%
X160550000Y-76550000D02*
X160550000Y-70050000D01*
X146896300Y-96527000D02*
X146800000Y-96623300D01*
X146896300Y-83184400D02*
X146896300Y-96527000D01*
X146800000Y-98100000D02*
X146800000Y-96623300D01*
%TO.N,/btnY*%
X140800000Y-88447000D02*
X140251800Y-87898800D01*
X140800000Y-98100000D02*
X140800000Y-88447000D01*
%TO.N,/btn_103-530*%
X142644500Y-114776700D02*
X142800000Y-114776700D01*
X137333300Y-120087900D02*
X142644500Y-114776700D01*
X137333300Y-122000000D02*
X137333300Y-120087900D01*
X142800000Y-113300000D02*
X142800000Y-114776700D01*
X143036300Y-111587000D02*
X142800000Y-111823300D01*
X143036300Y-106761200D02*
X143036300Y-111587000D01*
X142800000Y-113300000D02*
X142800000Y-111823300D01*
X146038100Y-105475800D02*
X146211600Y-105649300D01*
X146038100Y-96271800D02*
X146038100Y-105475800D01*
X146369600Y-95940300D02*
X146038100Y-96271800D01*
X146369600Y-80727300D02*
X146369600Y-95940300D01*
X150259500Y-76837400D02*
X146369600Y-80727300D01*
X150259500Y-54634200D02*
X150259500Y-76837400D01*
X153318700Y-51575000D02*
X150259500Y-54634200D01*
%TO.N,/btnA*%
X144800000Y-113300000D02*
X144800000Y-111823300D01*
X141369900Y-122000000D02*
X140366700Y-122000000D01*
X144800000Y-118569900D02*
X141369900Y-122000000D01*
X144800000Y-113300000D02*
X144800000Y-118569900D01*
X142981400Y-95568600D02*
X142981400Y-90624200D01*
X144073300Y-96660500D02*
X142981400Y-95568600D01*
X144073300Y-111096600D02*
X144073300Y-96660500D01*
X144800000Y-111823300D02*
X144073300Y-111096600D01*
%TO.N,/SDA*%
X146800000Y-113300000D02*
X146800000Y-111823300D01*
X135221900Y-69500000D02*
X135930100Y-70208200D01*
X134500000Y-69500000D02*
X135221900Y-69500000D01*
X152013200Y-93974300D02*
X153912500Y-92075000D01*
X152013200Y-106262000D02*
X152013200Y-93974300D01*
X152512400Y-106761200D02*
X152013200Y-106262000D01*
X146800000Y-107012700D02*
X147915400Y-105897300D01*
X146800000Y-111823300D02*
X146800000Y-107012700D01*
%TO.N,/SCL*%
X148800000Y-113300000D02*
X148800000Y-111823300D01*
X149131900Y-115108600D02*
X148800000Y-114776700D01*
X149131900Y-115813000D02*
X149131900Y-115108600D01*
X148800000Y-113300000D02*
X148800000Y-114776700D01*
X134500000Y-68606800D02*
X134500000Y-69000000D01*
X134961800Y-68145000D02*
X134500000Y-68606800D01*
X136965200Y-70148400D02*
X136965200Y-72405400D01*
X134961800Y-68145000D02*
X136965200Y-70148400D01*
X151649900Y-108973400D02*
X148800000Y-111823300D01*
X151649900Y-92374200D02*
X151649900Y-108973400D01*
X152599100Y-91425000D02*
X151649900Y-92374200D01*
X153912500Y-91425000D02*
X152599100Y-91425000D01*
X152599100Y-89331000D02*
X152599100Y-91425000D01*
X150786200Y-87518100D02*
X152599100Y-89331000D01*
X150786200Y-74343100D02*
X150786200Y-87518100D01*
X136965200Y-72405400D02*
X136965200Y-72810300D01*
X136965200Y-72810300D02*
X136965200Y-72405400D01*
%TO.N,/tx*%
X152800000Y-113300000D02*
X152800000Y-114776700D01*
X154049800Y-119150200D02*
X153200000Y-120000000D01*
X154049800Y-116026500D02*
X154049800Y-119150200D01*
X152800000Y-114776700D02*
X154049800Y-116026500D01*
%TO.N,Net-(J1-Pin_1)*%
X151975000Y-126100400D02*
X151975000Y-126837500D01*
X152906200Y-125169200D02*
X151975000Y-126100400D01*
X152906200Y-122986200D02*
X152906200Y-125169200D01*
X154371300Y-121521100D02*
X152906200Y-122986200D01*
X154371300Y-114888700D02*
X154371300Y-121521100D01*
X153526700Y-114044100D02*
X154371300Y-114888700D01*
X153526700Y-100303400D02*
X153526700Y-114044100D01*
X152800000Y-99576700D02*
X153526700Y-100303400D01*
X152800000Y-98100000D02*
X152800000Y-99576700D01*
%TO.N,/bt+*%
X130100000Y-125940600D02*
X131550300Y-127390900D01*
X130100000Y-117300000D02*
X130100000Y-125940600D01*
X142300000Y-83100000D02*
X142300000Y-84361700D01*
X145680200Y-128830200D02*
X146995000Y-130145000D01*
X145680100Y-128830200D02*
X145680200Y-128830200D01*
X145680100Y-96112600D02*
X145680100Y-128830200D01*
X143809800Y-94242300D02*
X145680100Y-96112600D01*
X143809800Y-85871500D02*
X143809800Y-94242300D01*
X142300000Y-84361700D02*
X143809800Y-85871500D01*
%TO.N,/rx-out*%
X157197500Y-115602500D02*
X155200000Y-117600000D01*
X157393800Y-115602500D02*
X157197500Y-115602500D01*
%TO.N,Net-(D1-K)*%
X125400000Y-46800000D02*
X125400000Y-65400000D01*
X125237500Y-66689200D02*
X125237500Y-78800000D01*
X125400000Y-66526700D02*
X125237500Y-66689200D01*
X125400000Y-65400000D02*
X125400000Y-66526700D01*
X158671700Y-63270000D02*
X159675000Y-64273300D01*
X158671700Y-48930000D02*
X158671700Y-63270000D01*
X159675000Y-47926700D02*
X158671700Y-48930000D01*
X159675000Y-46800000D02*
X159675000Y-47926700D01*
X159675000Y-65400000D02*
X159675000Y-64273300D01*
%TO.N,/tx-out*%
X158143300Y-120000000D02*
X158723300Y-119420000D01*
X155200000Y-120000000D02*
X158143300Y-120000000D01*
X159800000Y-119420000D02*
X158723300Y-119420000D01*
%TO.N,GND*%
X156050000Y-70050000D02*
X156050000Y-76550000D01*
X156050000Y-79350000D02*
X156050000Y-76550000D01*
X155000000Y-80400000D02*
X156050000Y-79350000D01*
X131089000Y-69331400D02*
X130757600Y-69000000D01*
X131089000Y-69663000D02*
X131089000Y-69331400D01*
X130752000Y-70000000D02*
X131089000Y-69663000D01*
X130100000Y-70000000D02*
X130752000Y-70000000D01*
X130757600Y-69000000D02*
X130100000Y-69000000D01*
X148700000Y-69000000D02*
X145050000Y-72650000D01*
X147286200Y-67586200D02*
X148700000Y-69000000D01*
X147286200Y-62370000D02*
X147286200Y-67586200D01*
X148700000Y-69000000D02*
X149200000Y-69500000D01*
X158100000Y-90800000D02*
X158100000Y-89800000D01*
X160100000Y-92800000D02*
X158100000Y-90800000D01*
X158100000Y-83500000D02*
X155000000Y-80400000D01*
X158100000Y-89800000D02*
X158100000Y-83500000D01*
X148238700Y-48082500D02*
X148238700Y-51575000D01*
X147286200Y-47130000D02*
X148238700Y-48082500D01*
X147074400Y-62158200D02*
X147286200Y-62370000D01*
X147074400Y-52739300D02*
X147074400Y-62158200D01*
X148238700Y-51575000D02*
X147074400Y-52739300D01*
X134300000Y-119276700D02*
X134300000Y-122000000D01*
X138800000Y-114776700D02*
X134300000Y-119276700D01*
X125500000Y-106600000D02*
X125500000Y-103678800D01*
X160403800Y-129688300D02*
X159800000Y-129688300D01*
X160876700Y-129215400D02*
X160403800Y-129688300D01*
X160876700Y-123524500D02*
X160876700Y-129215400D01*
X160388900Y-123036700D02*
X160876700Y-123524500D01*
X159800000Y-123036700D02*
X160388900Y-123036700D01*
X159800000Y-130765000D02*
X159800000Y-129688300D01*
X159800000Y-121960000D02*
X159800000Y-122498300D01*
X159800000Y-122498300D02*
X159800000Y-123036700D01*
X123231200Y-124144300D02*
X123508600Y-124421700D01*
X123231200Y-117868800D02*
X123231200Y-124144300D01*
X123800000Y-117300000D02*
X123231200Y-117868800D01*
X124873900Y-124421700D02*
X123508600Y-124421700D01*
X125070000Y-124225600D02*
X124873900Y-124421700D01*
X125070000Y-124010000D02*
X125070000Y-124225600D01*
X126180000Y-122900000D02*
X125070000Y-124010000D01*
X126437500Y-122900000D02*
X126180000Y-122900000D01*
X144356500Y-138966500D02*
X146995000Y-141605000D01*
X144356500Y-122956500D02*
X144356500Y-138966500D01*
X143400000Y-122000000D02*
X144356500Y-122956500D01*
X152450000Y-130250000D02*
X152450000Y-129623300D01*
X156101700Y-122498300D02*
X153800000Y-124800000D01*
X159800000Y-122498300D02*
X156101700Y-122498300D01*
X126730000Y-102448800D02*
X126730000Y-97308800D01*
X125500000Y-103678800D02*
X126730000Y-102448800D01*
X152450000Y-131950000D02*
X152450000Y-130250000D01*
X153800000Y-133300000D02*
X152450000Y-131950000D01*
X149086900Y-131667500D02*
X151131100Y-129623300D01*
X149086900Y-139513100D02*
X149086900Y-131667500D01*
X146995000Y-141605000D02*
X149086900Y-139513100D01*
X148800000Y-127292200D02*
X151131100Y-129623300D01*
X148800000Y-118000000D02*
X148800000Y-127292200D01*
X151131100Y-129623300D02*
X152450000Y-129623300D01*
X123800000Y-117300000D02*
X123800000Y-113450000D01*
X152501700Y-126098300D02*
X153800000Y-124800000D01*
X152501700Y-129571600D02*
X152501700Y-126098300D01*
X152450000Y-129623300D02*
X152501700Y-129571600D01*
X125732100Y-103446700D02*
X125732100Y-98488700D01*
X125500000Y-103678800D02*
X125732100Y-103446700D01*
X122065300Y-97919900D02*
X122225700Y-97919900D01*
X122225700Y-111875700D02*
X122225700Y-97919900D01*
X123800000Y-113450000D02*
X122225700Y-111875700D01*
X122225700Y-80886800D02*
X123362500Y-79750000D01*
X122225700Y-97919900D02*
X122225700Y-80886800D01*
X123362500Y-80509000D02*
X123362500Y-79750000D01*
X122990800Y-80880700D02*
X123362500Y-80509000D01*
X138800000Y-113962500D02*
X138800000Y-114776700D01*
X138800000Y-113962500D02*
X138800000Y-113300000D01*
X137312600Y-73887400D02*
X138550000Y-72650000D01*
X137312600Y-94515900D02*
X137312600Y-73887400D01*
X139526700Y-96730000D02*
X137312600Y-94515900D01*
X139526700Y-111096600D02*
X139526700Y-96730000D01*
X138800000Y-111823300D02*
X139526700Y-111096600D01*
X138800000Y-113300000D02*
X138800000Y-111823300D01*
X149726700Y-90085800D02*
X149687500Y-90125000D01*
X149726700Y-81626700D02*
X149726700Y-90085800D01*
X148500000Y-80400000D02*
X149726700Y-81626700D01*
X127408100Y-97308800D02*
X126730000Y-97308800D01*
X127755700Y-96961200D02*
X127408100Y-97308800D01*
X127755700Y-96583000D02*
X127755700Y-96961200D01*
X127581500Y-96408800D02*
X127755700Y-96583000D01*
X127230000Y-96408800D02*
X127581500Y-96408800D01*
X133951200Y-65806400D02*
X130757600Y-69000000D01*
X133951200Y-62370000D02*
X133951200Y-65806400D01*
%TO.N,+3.3V*%
X131872400Y-93727600D02*
X131800000Y-93800000D01*
X131872400Y-90700000D02*
X131872400Y-93727600D01*
X130100000Y-95500000D02*
X130100000Y-103300000D01*
X131800000Y-93800000D02*
X130100000Y-95500000D01*
X156075000Y-90775000D02*
X158100000Y-92800000D01*
X153912500Y-90775000D02*
X156075000Y-90775000D01*
X140366700Y-124000000D02*
X137333300Y-124000000D01*
X132100000Y-105300000D02*
X132100000Y-106100000D01*
X130100000Y-103300000D02*
X132100000Y-105300000D01*
X125800000Y-114500000D02*
X130100000Y-114500000D01*
X125800000Y-114500000D02*
X125800000Y-117300000D01*
X125600000Y-88000000D02*
X125600000Y-85510800D01*
X138800000Y-98100000D02*
X138800000Y-99576700D01*
X125800000Y-114500000D02*
X125800000Y-113450000D01*
X138623300Y-99576700D02*
X132100000Y-106100000D01*
X138800000Y-99576700D02*
X138623300Y-99576700D01*
X127524700Y-83586100D02*
X131872400Y-83586100D01*
X125600000Y-85510800D02*
X127524700Y-83586100D01*
X131872400Y-83586100D02*
X131872400Y-90700000D01*
X124500000Y-97538800D02*
X124500000Y-106600000D01*
X124730000Y-97308800D02*
X124500000Y-97538800D01*
X124500000Y-106600000D02*
X123500000Y-106600000D01*
X125800000Y-110370700D02*
X125800000Y-113450000D01*
X124500000Y-109070700D02*
X125800000Y-110370700D01*
X124500000Y-106600000D02*
X124500000Y-109070700D01*
X153912500Y-90775000D02*
X153912500Y-90125000D01*
X151500000Y-127850000D02*
X151500000Y-127223300D01*
X151448300Y-127171600D02*
X151500000Y-127223300D01*
X151448300Y-125246200D02*
X151448300Y-127171600D01*
X140366700Y-125057300D02*
X140366700Y-124000000D01*
X140164800Y-125259200D02*
X140366700Y-125057300D01*
X151448300Y-125246200D02*
X149545000Y-125246200D01*
X151448300Y-125151700D02*
X151448300Y-125246200D01*
X151800000Y-124800000D02*
X151448300Y-125151700D01*
X132927700Y-112399400D02*
X132227100Y-113100000D01*
X132927700Y-106927700D02*
X132927700Y-112399400D01*
X132100000Y-106100000D02*
X132927700Y-106927700D01*
X131500000Y-113100000D02*
X130100000Y-114500000D01*
X132227100Y-113100000D02*
X131500000Y-113100000D01*
X131872400Y-71653800D02*
X133526200Y-70000000D01*
X131872400Y-83586100D02*
X131872400Y-71653800D01*
X145471300Y-59171100D02*
X143158700Y-59171100D01*
X145800200Y-59500000D02*
X145471300Y-59171100D01*
X143158700Y-59171100D02*
X143158700Y-44590000D01*
X134500000Y-70000000D02*
X133526200Y-70000000D01*
X133526200Y-68803600D02*
X143158700Y-59171100D01*
X133526200Y-70000000D02*
X133526200Y-68803600D01*
X151312900Y-69612900D02*
X151200000Y-69500000D01*
X151312900Y-87525400D02*
X151312900Y-69612900D01*
X153912500Y-90125000D02*
X151312900Y-87525400D01*
%TD*%
M02*
