M48
; DRILL file {KiCad 8.0.5} date 2026-01-01T16:10:50+0200
; FORMAT={-:-/ absolute / inch / decimal}
; #@! TF.CreationDate,2026-01-01T16:10:50+02:00
; #@! TF.GenerationSoftware,Kicad,Pcbnew,8.0.5
; #@! TF.FileFunction,Plated,1,2,PTH
FMAT,2
INCH
; #@! TA.AperFunction,Plated,PTH,ViaDrill
T1C0.0118
; #@! TA.AperFunction,Plated,PTH,ComponentDrill
T2C0.0350
; #@! TA.AperFunction,Plated,PTH,ComponentDrill
T3C0.0354
; #@! TA.AperFunction,Plated,PTH,ComponentDrill
T4C0.0394
; #@! TA.AperFunction,Plated,PTH,ComponentDrill
T5C0.0433
; #@! TA.AperFunction,Plated,PTH,ComponentDrill
T6C0.0543
; #@! TA.AperFunction,Plated,PTH,ComponentDrill
T7C0.0550
%
G90
G05
T1
X4.8362Y-3.8457
X4.8422Y-4.5458
X4.8622Y-3.6102
X4.87Y-3.8724
X4.9055Y-3.6142
X4.9511Y-3.6237
X4.9593Y-3.1611
X4.9649Y-3.8516
X5.0023Y-4.1829
X5.0389Y-3.8447
X5.0575Y-3.7772
X5.1179Y-3.7706
X5.1179Y-3.8833
X5.125Y-3.9313
X5.1339Y-3.507
X5.1405Y-4.7072
X5.1737Y-4.1273
X5.248Y-3.7717
X5.2611Y-3.9197
X5.2977Y-4.5513
X5.3978Y-4.6861
X5.5183Y-4.8994
X5.6356Y-3.7433
X5.7533Y-4.2296
X5.7589Y-4.7568
X5.7676Y-3.7468
X5.8304Y-4.7563
X5.8504Y-4.5595
X5.8647Y-3.9694
X5.8744Y-3.4155
X5.8783Y-3.8225
X5.8884Y-3.507
X5.9252Y-3.6575
X5.9653Y-2.3525
X5.9839Y-5.0153
X5.9882Y-5.2243
X6.0652Y-5.3425
X6.0888Y-3.8262
X6.0982Y-5.2195
X6.1462Y-5.0496
X6.1505Y-4.8399
X6.167Y-3.7391
X6.167Y-3.9244
X6.1819Y-4.8968
X6.2065Y-4.7481
X6.2412Y-3.507
X6.2668Y-4.7385
X6.2747Y-3.9952
X6.291Y-3.8356
T2
X5.1362Y-2.0555
X5.1362Y-2.1555
X5.1362Y-2.2555
X5.4362Y-1.7555
X5.5362Y-1.7555
X5.6362Y-1.7555
T3
X4.837Y-1.8425
X4.837Y-2.5748
X4.937Y-1.8425
X4.937Y-2.5748
X5.8362Y-2.0305
X5.8362Y-2.2805
X6.0362Y-2.0305
X6.0362Y-2.2805
X6.1864Y-1.8425
X6.1864Y-2.5748
X6.2864Y-1.8425
X6.2864Y-2.5748
T4
X4.8553Y-5.5787
X4.8896Y-4.8939
X4.8896Y-5.4451
X4.9009Y-4.6378
X4.9553Y-5.5787
X5.0387Y-4.6378
X5.0472Y-4.0157
X5.0472Y-4.1157
X5.0472Y-4.2157
X5.0472Y-4.3157
X5.7951Y-4.8939
X5.7951Y-4.9939
X5.7951Y-5.3451
X5.7951Y-5.4451
X6.3071Y-5.2906
X6.3071Y-5.3906
X6.3071Y-5.4906
X6.3071Y-5.5906
T5
X5.061Y-3.1634
X5.061Y-3.3406
X5.3169Y-3.1634
X5.3169Y-3.3406
X5.4547Y-2.8602
X5.4547Y-3.0374
X5.4547Y-3.4705
X5.4547Y-3.6476
X5.7106Y-2.8602
X5.7106Y-3.0374
X5.7106Y-3.4705
X5.7106Y-3.6476
X5.8465Y-3.1654
X5.8465Y-3.3425
X6.1024Y-3.1654
X6.1024Y-3.3425
X6.1437Y-2.7579
X6.1437Y-3.0138
X6.3209Y-2.7579
X6.3209Y-3.0138
T7
X5.2737Y-1.8555
X5.2737Y-2.4555
X5.7987Y-1.8555
X5.7987Y-2.4555
T6
G00X5.6224Y-2.7008
M15
G01X5.5823Y-2.7008
M16
G05
G00X5.6224Y-5.5709
M15
G01X5.5823Y-5.5709
M16
G05
M30
