%TF.GenerationSoftware,KiCad,Pcbnew,8.0.5*%
%TF.CreationDate,2026-01-01T16:10:54+02:00*%
%TF.ProjectId,scheme,73636865-6d65-42e6-9b69-6361645f7063,rev?*%
%TF.SameCoordinates,Original*%
%TF.FileFunction,Soldermask,Bot*%
%TF.FilePolarity,Negative*%
%FSLAX46Y46*%
G04 Gerber Fmt 4.6, Leading zero omitted, Abs format (unit mm)*
G04 Created by KiCad (PCBNEW 8.0.5) date 2026-01-01 16:10:54*
%MOMM*%
%LPD*%
G01*
G04 APERTURE LIST*
%ADD10R,1.800000X1.800000*%
%ADD11C,1.800000*%
%ADD12C,2.000000*%
%ADD13C,1.982000*%
%ADD14C,2.490000*%
%ADD15R,1.700000X1.700000*%
%ADD16O,1.700000X1.700000*%
%ADD17C,3.200000*%
%ADD18O,4.344000X2.274000*%
%ADD19R,2.000000X2.000000*%
G04 APERTURE END LIST*
D10*
%TO.C,D2*%
X125400000Y-46800000D03*
D11*
X122860000Y-46800000D03*
%TD*%
D12*
%TO.C,SW3*%
X128550000Y-80350000D03*
X135050000Y-80350000D03*
X128550000Y-84850000D03*
X135050000Y-84850000D03*
%TD*%
D13*
%TO.C,U1*%
X153318700Y-51575000D03*
X153318700Y-57925000D03*
X148238700Y-51575000D03*
X148238700Y-57925000D03*
X130458700Y-52210000D03*
X130458700Y-54750000D03*
X130458700Y-57290000D03*
D14*
X147286200Y-47130000D03*
X133951200Y-47130000D03*
X147286200Y-62370000D03*
X133951200Y-62370000D03*
D13*
X143158700Y-44590000D03*
X140618700Y-44590000D03*
X138078700Y-44590000D03*
%TD*%
D10*
%TO.C,D3*%
X159675000Y-65400000D03*
D11*
X157135000Y-65400000D03*
%TD*%
D15*
%TO.C,J1*%
X123325000Y-141700000D03*
D16*
X125865000Y-141700000D03*
%TD*%
D12*
%TO.C,SW4*%
X138550000Y-88150000D03*
X145050000Y-88150000D03*
X138550000Y-92650000D03*
X145050000Y-92650000D03*
%TD*%
D15*
%TO.C,ICM-conn1*%
X128200000Y-102000000D03*
D16*
X128200000Y-104540000D03*
X128200000Y-107080000D03*
X128200000Y-109620000D03*
%TD*%
D10*
%TO.C,D1*%
X159675000Y-46800000D03*
D11*
X157135000Y-46800000D03*
%TD*%
D10*
%TO.C,D4*%
X125400000Y-65400000D03*
D11*
X122860000Y-65400000D03*
%TD*%
D12*
%TO.C,TP4056-module1*%
X124195000Y-124305000D03*
X124195000Y-138305000D03*
X147195000Y-124305000D03*
X147195000Y-138305000D03*
X147195000Y-126845000D03*
X147195000Y-135765000D03*
%TD*%
%TO.C,SW2*%
X148500000Y-80400000D03*
X155000000Y-80400000D03*
X148500000Y-84900000D03*
X155000000Y-84900000D03*
%TD*%
%TO.C,SW1*%
X138550000Y-72650000D03*
X145050000Y-72650000D03*
X138550000Y-77150000D03*
X145050000Y-77150000D03*
%TD*%
D17*
%TO.C,BT1*%
X142300000Y-77095000D03*
X142300000Y-132710000D03*
D18*
X142300000Y-68600000D03*
X142300000Y-141500000D03*
%TD*%
D15*
%TO.C,prog1*%
X160200000Y-142000000D03*
D16*
X160200000Y-139460000D03*
X160200000Y-136920000D03*
X160200000Y-134380000D03*
%TD*%
D12*
%TO.C,SW5*%
X156050000Y-70050000D03*
X156050000Y-76550000D03*
X160550000Y-70050000D03*
X160550000Y-76550000D03*
%TD*%
D19*
%TO.C,C7*%
X124482300Y-117800000D03*
D12*
X127982300Y-117800000D03*
%TD*%
M02*
