%TF.GenerationSoftware,KiCad,Pcbnew,8.0.5*%
%TF.CreationDate,2026-01-06T21:14:37+02:00*%
%TF.ProjectId,scheme,73636865-6d65-42e6-9b69-6361645f7063,rev?*%
%TF.SameCoordinates,Original*%
%TF.FileFunction,Legend,Bot*%
%TF.FilePolarity,Positive*%
%FSLAX46Y46*%
G04 Gerber Fmt 4.6, Leading zero omitted, Abs format (unit mm)*
G04 Created by KiCad (PCBNEW 8.0.5) date 2026-01-06 21:14:37*
%MOMM*%
%LPD*%
G01*
G04 APERTURE LIST*
%ADD10C,0.150000*%
%ADD11C,0.120023*%
%ADD12C,0.127000*%
%ADD13C,0.200000*%
%ADD14C,0.120000*%
G04 APERTURE END LIST*
D10*
X130801009Y-81859285D02*
X130848628Y-82002142D01*
X130848628Y-82002142D02*
X130896247Y-82049761D01*
X130896247Y-82049761D02*
X130991485Y-82097380D01*
X130991485Y-82097380D02*
X131134342Y-82097380D01*
X131134342Y-82097380D02*
X131229580Y-82049761D01*
X131229580Y-82049761D02*
X131277200Y-82002142D01*
X131277200Y-82002142D02*
X131324819Y-81906904D01*
X131324819Y-81906904D02*
X131324819Y-81525952D01*
X131324819Y-81525952D02*
X130324819Y-81525952D01*
X130324819Y-81525952D02*
X130324819Y-81859285D01*
X130324819Y-81859285D02*
X130372438Y-81954523D01*
X130372438Y-81954523D02*
X130420057Y-82002142D01*
X130420057Y-82002142D02*
X130515295Y-82049761D01*
X130515295Y-82049761D02*
X130610533Y-82049761D01*
X130610533Y-82049761D02*
X130705771Y-82002142D01*
X130705771Y-82002142D02*
X130753390Y-81954523D01*
X130753390Y-81954523D02*
X130801009Y-81859285D01*
X130801009Y-81859285D02*
X130801009Y-81525952D01*
X130324819Y-82383095D02*
X130324819Y-82954523D01*
X131324819Y-82668809D02*
X130324819Y-82668809D01*
X131324819Y-83811666D02*
X131324819Y-83240238D01*
X131324819Y-83525952D02*
X130324819Y-83525952D01*
X130324819Y-83525952D02*
X130467676Y-83430714D01*
X130467676Y-83430714D02*
X130562914Y-83335476D01*
X130562914Y-83335476D02*
X130610533Y-83240238D01*
D11*
X160692996Y-139634216D02*
X160715857Y-139702801D01*
X160715857Y-139702801D02*
X160715857Y-139817108D01*
X160715857Y-139817108D02*
X160692996Y-139862831D01*
X160692996Y-139862831D02*
X160670134Y-139885692D01*
X160670134Y-139885692D02*
X160624411Y-139908553D01*
X160624411Y-139908553D02*
X160578688Y-139908553D01*
X160578688Y-139908553D02*
X160532966Y-139885692D01*
X160532966Y-139885692D02*
X160510104Y-139862831D01*
X160510104Y-139862831D02*
X160487243Y-139817108D01*
X160487243Y-139817108D02*
X160464381Y-139725662D01*
X160464381Y-139725662D02*
X160441520Y-139679939D01*
X160441520Y-139679939D02*
X160418658Y-139657078D01*
X160418658Y-139657078D02*
X160372936Y-139634216D01*
X160372936Y-139634216D02*
X160327213Y-139634216D01*
X160327213Y-139634216D02*
X160281490Y-139657078D01*
X160281490Y-139657078D02*
X160258628Y-139679939D01*
X160258628Y-139679939D02*
X160235767Y-139725662D01*
X160235767Y-139725662D02*
X160235767Y-139839969D01*
X160235767Y-139839969D02*
X160258628Y-139908553D01*
X160715857Y-140365782D02*
X160715857Y-140091445D01*
X160715857Y-140228614D02*
X160235767Y-140228614D01*
X160235767Y-140228614D02*
X160304351Y-140182891D01*
X160304351Y-140182891D02*
X160350074Y-140137168D01*
X160350074Y-140137168D02*
X160372936Y-140091445D01*
D10*
X160133333Y-61724819D02*
X160133333Y-62439104D01*
X160133333Y-62439104D02*
X160180952Y-62581961D01*
X160180952Y-62581961D02*
X160276190Y-62677200D01*
X160276190Y-62677200D02*
X160419047Y-62724819D01*
X160419047Y-62724819D02*
X160514285Y-62724819D01*
X159704761Y-61820057D02*
X159657142Y-61772438D01*
X159657142Y-61772438D02*
X159561904Y-61724819D01*
X159561904Y-61724819D02*
X159323809Y-61724819D01*
X159323809Y-61724819D02*
X159228571Y-61772438D01*
X159228571Y-61772438D02*
X159180952Y-61820057D01*
X159180952Y-61820057D02*
X159133333Y-61915295D01*
X159133333Y-61915295D02*
X159133333Y-62010533D01*
X159133333Y-62010533D02*
X159180952Y-62153390D01*
X159180952Y-62153390D02*
X159752380Y-62724819D01*
X159752380Y-62724819D02*
X159133333Y-62724819D01*
X161704761Y-126618152D02*
X161704761Y-127618152D01*
X161704761Y-126665771D02*
X161609523Y-126618152D01*
X161609523Y-126618152D02*
X161419047Y-126618152D01*
X161419047Y-126618152D02*
X161323809Y-126665771D01*
X161323809Y-126665771D02*
X161276190Y-126713390D01*
X161276190Y-126713390D02*
X161228571Y-126808628D01*
X161228571Y-126808628D02*
X161228571Y-127094342D01*
X161228571Y-127094342D02*
X161276190Y-127189580D01*
X161276190Y-127189580D02*
X161323809Y-127237200D01*
X161323809Y-127237200D02*
X161419047Y-127284819D01*
X161419047Y-127284819D02*
X161609523Y-127284819D01*
X161609523Y-127284819D02*
X161704761Y-127237200D01*
X160799999Y-127284819D02*
X160799999Y-126618152D01*
X160799999Y-126808628D02*
X160752380Y-126713390D01*
X160752380Y-126713390D02*
X160704761Y-126665771D01*
X160704761Y-126665771D02*
X160609523Y-126618152D01*
X160609523Y-126618152D02*
X160514285Y-126618152D01*
X160038094Y-127284819D02*
X160133332Y-127237200D01*
X160133332Y-127237200D02*
X160180951Y-127189580D01*
X160180951Y-127189580D02*
X160228570Y-127094342D01*
X160228570Y-127094342D02*
X160228570Y-126808628D01*
X160228570Y-126808628D02*
X160180951Y-126713390D01*
X160180951Y-126713390D02*
X160133332Y-126665771D01*
X160133332Y-126665771D02*
X160038094Y-126618152D01*
X160038094Y-126618152D02*
X159895237Y-126618152D01*
X159895237Y-126618152D02*
X159799999Y-126665771D01*
X159799999Y-126665771D02*
X159752380Y-126713390D01*
X159752380Y-126713390D02*
X159704761Y-126808628D01*
X159704761Y-126808628D02*
X159704761Y-127094342D01*
X159704761Y-127094342D02*
X159752380Y-127189580D01*
X159752380Y-127189580D02*
X159799999Y-127237200D01*
X159799999Y-127237200D02*
X159895237Y-127284819D01*
X159895237Y-127284819D02*
X160038094Y-127284819D01*
X158847618Y-126618152D02*
X158847618Y-127427676D01*
X158847618Y-127427676D02*
X158895237Y-127522914D01*
X158895237Y-127522914D02*
X158942856Y-127570533D01*
X158942856Y-127570533D02*
X159038094Y-127618152D01*
X159038094Y-127618152D02*
X159180951Y-127618152D01*
X159180951Y-127618152D02*
X159276189Y-127570533D01*
X158847618Y-127237200D02*
X158942856Y-127284819D01*
X158942856Y-127284819D02*
X159133332Y-127284819D01*
X159133332Y-127284819D02*
X159228570Y-127237200D01*
X159228570Y-127237200D02*
X159276189Y-127189580D01*
X159276189Y-127189580D02*
X159323808Y-127094342D01*
X159323808Y-127094342D02*
X159323808Y-126808628D01*
X159323808Y-126808628D02*
X159276189Y-126713390D01*
X159276189Y-126713390D02*
X159228570Y-126665771D01*
X159228570Y-126665771D02*
X159133332Y-126618152D01*
X159133332Y-126618152D02*
X158942856Y-126618152D01*
X158942856Y-126618152D02*
X158847618Y-126665771D01*
X157847618Y-127284819D02*
X158419046Y-127284819D01*
X158133332Y-127284819D02*
X158133332Y-126284819D01*
X158133332Y-126284819D02*
X158228570Y-126427676D01*
X158228570Y-126427676D02*
X158323808Y-126522914D01*
X158323808Y-126522914D02*
X158419046Y-126570533D01*
X154457200Y-71966667D02*
X154504819Y-72109524D01*
X154504819Y-72109524D02*
X154504819Y-72347619D01*
X154504819Y-72347619D02*
X154457200Y-72442857D01*
X154457200Y-72442857D02*
X154409580Y-72490476D01*
X154409580Y-72490476D02*
X154314342Y-72538095D01*
X154314342Y-72538095D02*
X154219104Y-72538095D01*
X154219104Y-72538095D02*
X154123866Y-72490476D01*
X154123866Y-72490476D02*
X154076247Y-72442857D01*
X154076247Y-72442857D02*
X154028628Y-72347619D01*
X154028628Y-72347619D02*
X153981009Y-72157143D01*
X153981009Y-72157143D02*
X153933390Y-72061905D01*
X153933390Y-72061905D02*
X153885771Y-72014286D01*
X153885771Y-72014286D02*
X153790533Y-71966667D01*
X153790533Y-71966667D02*
X153695295Y-71966667D01*
X153695295Y-71966667D02*
X153600057Y-72014286D01*
X153600057Y-72014286D02*
X153552438Y-72061905D01*
X153552438Y-72061905D02*
X153504819Y-72157143D01*
X153504819Y-72157143D02*
X153504819Y-72395238D01*
X153504819Y-72395238D02*
X153552438Y-72538095D01*
X153504819Y-72871429D02*
X154504819Y-73109524D01*
X154504819Y-73109524D02*
X153790533Y-73300000D01*
X153790533Y-73300000D02*
X154504819Y-73490476D01*
X154504819Y-73490476D02*
X153504819Y-73728572D01*
X153504819Y-74585714D02*
X153504819Y-74109524D01*
X153504819Y-74109524D02*
X153981009Y-74061905D01*
X153981009Y-74061905D02*
X153933390Y-74109524D01*
X153933390Y-74109524D02*
X153885771Y-74204762D01*
X153885771Y-74204762D02*
X153885771Y-74442857D01*
X153885771Y-74442857D02*
X153933390Y-74538095D01*
X153933390Y-74538095D02*
X153981009Y-74585714D01*
X153981009Y-74585714D02*
X154076247Y-74633333D01*
X154076247Y-74633333D02*
X154314342Y-74633333D01*
X154314342Y-74633333D02*
X154409580Y-74585714D01*
X154409580Y-74585714D02*
X154457200Y-74538095D01*
X154457200Y-74538095D02*
X154504819Y-74442857D01*
X154504819Y-74442857D02*
X154504819Y-74204762D01*
X154504819Y-74204762D02*
X154457200Y-74109524D01*
X154457200Y-74109524D02*
X154409580Y-74061905D01*
D12*
%TO.C,BT1*%
X142290000Y-160310000D02*
X142290000Y-158310000D01*
X152780000Y-80200000D02*
X152780000Y-156200000D01*
X152780000Y-156200000D02*
X131800000Y-156200000D01*
X131800000Y-80200000D02*
X152780000Y-80200000D01*
X131800000Y-156200000D02*
X131800000Y-80200000D01*
X143290000Y-78050000D02*
X141290000Y-78050000D01*
X142290000Y-79050000D02*
X142290000Y-77050000D01*
%TO.C,S1*%
X156650000Y-142400000D02*
X157500000Y-142400000D01*
X160200000Y-142400000D02*
X160950000Y-142400000D01*
X160950000Y-142400000D02*
X160950000Y-133800000D01*
X156650000Y-133800000D02*
X156650000Y-142400000D01*
X157400000Y-133800000D02*
X156650000Y-133800000D01*
X160950000Y-133800000D02*
X160200000Y-133800000D01*
D13*
X158950000Y-143950000D02*
G75*
G02*
X158750000Y-143950000I-100000J0D01*
G01*
X158750000Y-143950000D02*
G75*
G02*
X158950000Y-143950000I100000J0D01*
G01*
D14*
%TO.C,J2*%
X161130000Y-60830000D02*
X159800000Y-60830000D01*
X161130000Y-59500000D02*
X161130000Y-60830000D01*
X161130000Y-58230000D02*
X158470000Y-58230000D01*
X161130000Y-50550000D02*
X161130000Y-58230000D01*
X161130000Y-50550000D02*
X158470000Y-50550000D01*
X158470000Y-50550000D02*
X158470000Y-58230000D01*
%TO.C,prog1*%
X158470000Y-115550000D02*
X158470000Y-123230000D01*
X158470000Y-125830000D02*
X158470000Y-124500000D01*
X159800000Y-125830000D02*
X158470000Y-125830000D01*
X161130000Y-115550000D02*
X158470000Y-115550000D01*
X161130000Y-115550000D02*
X161130000Y-123230000D01*
X161130000Y-123230000D02*
X158470000Y-123230000D01*
%TO.C,SW5*%
X155050000Y-71050000D02*
X155050000Y-75550000D01*
X157550000Y-76800000D02*
X159050000Y-76800000D01*
X159050000Y-69800000D02*
X157550000Y-69800000D01*
X161550000Y-75550000D02*
X161550000Y-71050000D01*
%TD*%
M02*
