%TF.GenerationSoftware,KiCad,Pcbnew,8.0.5*%
%TF.CreationDate,2026-01-06T21:14:37+02:00*%
%TF.ProjectId,scheme,73636865-6d65-42e6-9b69-6361645f7063,rev?*%
%TF.SameCoordinates,Original*%
%TF.FileFunction,Copper,L2,Bot*%
%TF.FilePolarity,Positive*%
%FSLAX46Y46*%
G04 Gerber Fmt 4.6, Leading zero omitted, Abs format (unit mm)*
G04 Created by KiCad (PCBNEW 8.0.5) date 2026-01-06 21:14:37*
%MOMM*%
%LPD*%
G01*
G04 APERTURE LIST*
%TA.AperFunction,ComponentPad*%
%ADD10O,4.140000X2.070000*%
%TD*%
%TA.AperFunction,ComponentPad*%
%ADD11R,1.800000X1.800000*%
%TD*%
%TA.AperFunction,ComponentPad*%
%ADD12C,1.800000*%
%TD*%
%TA.AperFunction,ComponentPad*%
%ADD13C,2.000000*%
%TD*%
%TA.AperFunction,ComponentPad*%
%ADD14C,1.778000*%
%TD*%
%TA.AperFunction,ComponentPad*%
%ADD15C,2.286000*%
%TD*%
%TA.AperFunction,ComponentPad*%
%ADD16R,1.700000X1.700000*%
%TD*%
%TA.AperFunction,ComponentPad*%
%ADD17O,1.700000X1.700000*%
%TD*%
%TA.AperFunction,ComponentPad*%
%ADD18R,1.308000X1.308000*%
%TD*%
%TA.AperFunction,ComponentPad*%
%ADD19C,1.308000*%
%TD*%
%TA.AperFunction,ViaPad*%
%ADD20C,0.600000*%
%TD*%
%TA.AperFunction,Conductor*%
%ADD21C,0.150000*%
%TD*%
G04 APERTURE END LIST*
D10*
%TO.P,BT1,-*%
%TO.N,Net-(TP4056-module1-b-)*%
X142300000Y-153100000D03*
%TO.P,BT1,+*%
%TO.N,/bt+*%
X142300000Y-83100000D03*
%TD*%
D11*
%TO.P,D1,1,K*%
%TO.N,Net-(D1-K)*%
X125400000Y-46800000D03*
D12*
%TO.P,D1,2,A*%
%TO.N,Net-(D1-A)*%
X122860000Y-46800000D03*
%TD*%
D13*
%TO.P,SW3,1,C*%
%TO.N,GND*%
X128550000Y-80350000D03*
X135050000Y-80350000D03*
%TO.P,SW3,2,D*%
%TO.N,/btnA*%
X128550000Y-84850000D03*
X135050000Y-84850000D03*
%TD*%
D14*
%TO.P,U1,B1A,B1A*%
%TO.N,/btn_103-530*%
X153318700Y-51575000D03*
%TO.P,U1,B1B,B1B*%
%TO.N,unconnected-(U1-PadB1B)*%
X153318700Y-57925000D03*
%TO.P,U1,B2A,B2A*%
%TO.N,GND*%
X148238700Y-51575000D03*
%TO.P,U1,B2B,B2B*%
%TO.N,unconnected-(U1-PadB2B)*%
X148238700Y-57925000D03*
%TO.P,U1,H1,H+*%
%TO.N,GND*%
X130458700Y-52210000D03*
%TO.P,U1,H2,H*%
%TO.N,/analog0*%
X130458700Y-54750000D03*
%TO.P,U1,H3,H-*%
%TO.N,+3.3V*%
X130458700Y-57290000D03*
D15*
%TO.P,U1,S1,SHIELD*%
%TO.N,GND*%
X147286200Y-47130000D03*
X133951200Y-47130000D03*
X147286200Y-62370000D03*
X133951200Y-62370000D03*
D14*
%TO.P,U1,V1,V+*%
%TO.N,+3.3V*%
X143158700Y-44590000D03*
%TO.P,U1,V2,V*%
%TO.N,/analog1*%
X140618700Y-44590000D03*
%TO.P,U1,V3,V-*%
%TO.N,GND*%
X138078700Y-44590000D03*
%TD*%
D11*
%TO.P,D4,1,K*%
%TO.N,Net-(D1-K)*%
X159675000Y-65400000D03*
D12*
%TO.P,D4,2,A*%
%TO.N,Net-(D1-A)*%
X157135000Y-65400000D03*
%TD*%
D16*
%TO.P,J1,1,Pin_1*%
%TO.N,Net-(J1-Pin_1)*%
X159800000Y-128225000D03*
D17*
%TO.P,J1,2,Pin_2*%
%TO.N,GND*%
X159800000Y-130765000D03*
%TD*%
D13*
%TO.P,SW2,1,C*%
%TO.N,Net-(SW4-C)*%
X138550000Y-88150000D03*
X145050000Y-88150000D03*
%TO.P,SW2,2,D*%
%TO.N,Net-(SW4-D)*%
X138550000Y-92650000D03*
X145050000Y-92650000D03*
%TD*%
D11*
%TO.P,D2,1,K*%
%TO.N,Net-(D1-K)*%
X159675000Y-46800000D03*
D12*
%TO.P,D2,2,A*%
%TO.N,Net-(D1-A)*%
X157135000Y-46800000D03*
%TD*%
D11*
%TO.P,D3,1,K*%
%TO.N,Net-(D1-K)*%
X125400000Y-65400000D03*
D12*
%TO.P,D3,2,A*%
%TO.N,Net-(D1-A)*%
X122860000Y-65400000D03*
%TD*%
D13*
%TO.P,TP1,1,dc+*%
%TO.N,+5C*%
X123995000Y-127605000D03*
%TO.P,TP1,2,dc-*%
%TO.N,GND*%
X123995000Y-141605000D03*
%TO.P,TP1,3,out+*%
%TO.N,Net-(TP4056-module1-out+)*%
X146995000Y-127605000D03*
%TO.P,TP1,4,out-*%
%TO.N,GND*%
X146995000Y-141605000D03*
%TO.P,TP1,5,b+*%
%TO.N,/bt+*%
X146995000Y-130145000D03*
%TO.P,TP1,6,b-*%
%TO.N,Net-(TP4056-module1-b-)*%
X146995000Y-139065000D03*
%TD*%
%TO.P,SW4,1,C*%
%TO.N,GND*%
X148500000Y-80400000D03*
X155000000Y-80400000D03*
%TO.P,SW4,2,D*%
%TO.N,/btnY*%
X148500000Y-84900000D03*
X155000000Y-84900000D03*
%TD*%
%TO.P,SW1,1,C*%
%TO.N,GND*%
X138550000Y-72650000D03*
X145050000Y-72650000D03*
%TO.P,SW1,2,D*%
%TO.N,/btnX*%
X138550000Y-77150000D03*
X145050000Y-77150000D03*
%TD*%
D18*
%TO.P,S1,1,1*%
%TO.N,Net-(TP4056-module1-out+)*%
X158800000Y-140100000D03*
D19*
%TO.P,S1,2,2*%
%TO.N,+4.2V*%
X158800000Y-138100000D03*
%TO.P,S1,3,3*%
%TO.N,unconnected-(S1-Pad3)*%
X158800000Y-136100000D03*
%TD*%
D16*
%TO.P,J2,1,Pin_1*%
%TO.N,+3.3V*%
X159800000Y-59500000D03*
D17*
%TO.P,J2,2,Pin_2*%
%TO.N,GND*%
X159800000Y-56960000D03*
%TO.P,J2,3,Pin_3*%
%TO.N,/SCL*%
X159800000Y-54420000D03*
%TO.P,J2,4,Pin_4*%
%TO.N,/SDA*%
X159800000Y-51880000D03*
%TD*%
D16*
%TO.P,prog1,1,Pin_1*%
%TO.N,+5C*%
X159800000Y-124500000D03*
D17*
%TO.P,prog1,2,Pin_2*%
%TO.N,GND*%
X159800000Y-121960000D03*
%TO.P,prog1,3,Pin_3*%
%TO.N,/tx-out*%
X159800000Y-119420000D03*
%TO.P,prog1,4,Pin_4*%
%TO.N,/rx-out*%
X159800000Y-116880000D03*
%TD*%
D13*
%TO.P,SW5,1,C*%
%TO.N,GND*%
X156050000Y-70050000D03*
X156050000Y-76550000D03*
%TO.P,SW5,2,D*%
%TO.N,/btnB*%
X160550000Y-70050000D03*
X160550000Y-76550000D03*
%TD*%
D20*
%TO.N,Net-(U2-ADC)*%
X134500000Y-116500000D03*
X147973800Y-116376800D03*
%TO.N,Net-(SW4-D)*%
X132466700Y-92272800D03*
%TO.N,Net-(U7-SDO{slash}AD0)*%
X123120600Y-95765700D03*
X131250000Y-115925900D03*
%TO.N,Net-(U2-EN)*%
X131580500Y-100867000D03*
X147821800Y-100750000D03*
%TO.N,/led-output*%
X130956000Y-77932400D03*
X137931300Y-79544400D03*
%TO.N,Net-(Q1-B)*%
X128621000Y-77932400D03*
X122990800Y-76683000D03*
%TO.N,/SDA_1.8*%
X148009900Y-91925000D03*
X125168500Y-92702300D03*
X130956000Y-92250000D03*
%TO.N,/SCL_1.8*%
X149149300Y-107150200D03*
X132402700Y-107659800D03*
X128041600Y-105000000D03*
%TO.N,+1.8V*%
X152050400Y-89621900D03*
X160294200Y-91241100D03*
X122750700Y-92500000D03*
X129750000Y-94698200D03*
%TO.N,+4.2V*%
X131550300Y-130338000D03*
X150707000Y-133369900D03*
%TO.N,Net-(D1-A)*%
X134421800Y-72009900D03*
%TO.N,/btnB*%
X146896300Y-83184400D03*
%TO.N,/btnY*%
X140251800Y-87898800D03*
%TO.N,/btn_103-530*%
X146211600Y-105649300D03*
X143036300Y-106761200D03*
%TO.N,/btnA*%
X142981400Y-90624200D03*
%TO.N,/SDA*%
X147915400Y-105897300D03*
X135098500Y-102348500D03*
X135930100Y-70208200D03*
X152512400Y-106761200D03*
X130851700Y-107285600D03*
%TO.N,/SCL*%
X135000000Y-115000000D03*
X149131900Y-115813000D03*
X134961800Y-68145000D03*
X136965200Y-72405400D03*
X150786200Y-74343100D03*
%TO.N,Net-(J1-Pin_1)*%
X151975000Y-126837500D03*
%TO.N,/bt+*%
X131550300Y-127390900D03*
%TO.N,/rx-out*%
X157393800Y-115602500D03*
%TO.N,GND*%
X125732100Y-98488700D03*
X122065300Y-97919900D03*
X122990800Y-80880700D03*
%TO.N,+3.3V*%
X156250000Y-59500000D03*
X145800200Y-59500000D03*
X149545000Y-125246200D03*
X140164800Y-125259200D03*
%TD*%
D21*
%TO.N,Net-(U7-SDO{slash}AD0)*%
X123776200Y-95765700D02*
X123120600Y-95765700D01*
X126305400Y-98294900D02*
X123776200Y-95765700D01*
X126305400Y-110016100D02*
X126305400Y-98294900D01*
X131250000Y-114960700D02*
X126305400Y-110016100D01*
X131250000Y-115925900D02*
X131250000Y-114960700D01*
%TO.N,/SCL*%
X148921400Y-115602500D02*
X149131900Y-115813000D01*
X135000000Y-115000000D02*
X135602500Y-115602500D01*
X135602500Y-115602500D02*
X148921400Y-115602500D01*
%TO.N,Net-(U2-ADC)*%
X147612300Y-116015300D02*
X147973800Y-116376800D01*
X134984700Y-116015300D02*
X147612300Y-116015300D01*
X134500000Y-116500000D02*
X134984700Y-116015300D01*
%TO.N,/SDA*%
X131142800Y-106994500D02*
X134046200Y-106994500D01*
X130851700Y-107285600D02*
X131142800Y-106994500D01*
%TO.N,/SCL_1.8*%
X148639700Y-107659800D02*
X149149300Y-107150200D01*
X132402700Y-107659800D02*
X148639700Y-107659800D01*
X130705637Y-107882000D02*
X128041600Y-105217963D01*
X132180500Y-107882000D02*
X130705637Y-107882000D01*
X132402700Y-107659800D02*
X132180500Y-107882000D01*
X128041600Y-105217963D02*
X128041600Y-105000000D01*
%TO.N,/SDA*%
X134046200Y-106994500D02*
X134046200Y-103400800D01*
X134046200Y-103400800D02*
X135098500Y-102348500D01*
%TO.N,+3.3V*%
X156250000Y-59500000D02*
X159800000Y-59500000D01*
X145800200Y-59500000D02*
X156250000Y-59500000D01*
%TO.N,+1.8V*%
X146974100Y-94698200D02*
X152050400Y-89621900D01*
X124967200Y-94716500D02*
X122750700Y-92500000D01*
X129731700Y-94716500D02*
X124967200Y-94716500D01*
X129750000Y-94698200D02*
X146974100Y-94698200D01*
X129750000Y-94698200D02*
X129731700Y-94716500D01*
%TO.N,Net-(U2-EN)*%
X145045100Y-100867000D02*
X131580500Y-100867000D01*
X145162100Y-100750000D02*
X145045100Y-100867000D01*
X147821800Y-100750000D02*
X145162100Y-100750000D01*
%TO.N,Net-(TP4056-module1-out+)*%
X157750000Y-139500000D02*
X158350000Y-140100000D01*
X157750000Y-139000000D02*
X157750000Y-139500000D01*
X158350000Y-140100000D02*
X158800000Y-140100000D01*
X146995000Y-128245000D02*
X157750000Y-139000000D01*
X146995000Y-127605000D02*
X146995000Y-128245000D01*
%TO.N,Net-(SW4-D)*%
X145050000Y-92650000D02*
X138550000Y-92650000D01*
X132843900Y-92650000D02*
X138550000Y-92650000D01*
X132466700Y-92272800D02*
X132843900Y-92650000D01*
%TO.N,Net-(SW4-C)*%
X144774500Y-88425500D02*
X145050000Y-88150000D01*
X138825500Y-88425500D02*
X144774500Y-88425500D01*
X138550000Y-88150000D02*
X138825500Y-88425500D01*
%TO.N,/led-output*%
X136319300Y-77932400D02*
X137931300Y-79544400D01*
X130956000Y-77932400D02*
X136319300Y-77932400D01*
%TO.N,Net-(Q1-B)*%
X124240200Y-77932400D02*
X122990800Y-76683000D01*
X128621000Y-77932400D02*
X124240200Y-77932400D01*
%TO.N,/SDA_1.8*%
X131834300Y-91371700D02*
X130956000Y-92250000D01*
X147456600Y-91371700D02*
X131834300Y-91371700D01*
X148009900Y-91925000D02*
X147456600Y-91371700D01*
X125620800Y-92250000D02*
X125168500Y-92702300D01*
X130956000Y-92250000D02*
X125620800Y-92250000D01*
%TO.N,+1.8V*%
X158675000Y-89621900D02*
X152050400Y-89621900D01*
X160294200Y-91241100D02*
X158675000Y-89621900D01*
%TO.N,+4.2V*%
X134582200Y-133369900D02*
X150707000Y-133369900D01*
X131550300Y-130338000D02*
X134582200Y-133369900D01*
%TO.N,Net-(D1-A)*%
X129469900Y-72009900D02*
X122860000Y-65400000D01*
X134421800Y-72009900D02*
X129469900Y-72009900D01*
X157133500Y-65401500D02*
X157135000Y-65400000D01*
X141908300Y-65401500D02*
X157133500Y-65401500D01*
X141908300Y-65401600D02*
X141908300Y-65401500D01*
X135300000Y-72009900D02*
X141908300Y-65401600D01*
X134421800Y-72009900D02*
X135300000Y-72009900D01*
%TO.N,/btnX*%
X138550000Y-77150000D02*
X145050000Y-77150000D01*
%TO.N,/btnB*%
X153995300Y-83184400D02*
X146896300Y-83184400D01*
X160550000Y-76629700D02*
X153995300Y-83184400D01*
X160550000Y-76550000D02*
X160550000Y-76629700D01*
%TO.N,/btnY*%
X155000000Y-84900000D02*
X148500000Y-84900000D01*
X143250600Y-84900000D02*
X148500000Y-84900000D01*
X140251800Y-87898800D02*
X143250600Y-84900000D01*
%TO.N,/btn_103-530*%
X145099700Y-106761200D02*
X143036300Y-106761200D01*
X146211600Y-105649300D02*
X145099700Y-106761200D01*
%TO.N,/btnA*%
X135050000Y-84850000D02*
X128550000Y-84850000D01*
X139239800Y-90624200D02*
X142981400Y-90624200D01*
X135050000Y-86434400D02*
X139239800Y-90624200D01*
X135050000Y-84850000D02*
X135050000Y-86434400D01*
%TO.N,/SDA*%
X159800000Y-51880000D02*
X159800000Y-52956700D01*
X151648500Y-105897300D02*
X152512400Y-106761200D01*
X147915400Y-105897300D02*
X151648500Y-105897300D01*
X146507900Y-107304800D02*
X147915400Y-105897300D01*
X134356500Y-107304800D02*
X146507900Y-107304800D01*
X134046200Y-106994500D02*
X134356500Y-107304800D01*
X159934700Y-52956700D02*
X159800000Y-52956700D01*
X161192000Y-54214000D02*
X159934700Y-52956700D01*
X161192000Y-60626200D02*
X161192000Y-54214000D01*
X157846600Y-63971600D02*
X161192000Y-60626200D01*
X142166700Y-63971600D02*
X157846600Y-63971600D01*
X135930100Y-70208200D02*
X142166700Y-63971600D01*
%TO.N,/SCL*%
X132569100Y-65752300D02*
X134961800Y-68145000D01*
X132569100Y-61780400D02*
X132569100Y-65752300D01*
X133528500Y-60821000D02*
X132569100Y-61780400D01*
X160570500Y-60821000D02*
X133528500Y-60821000D01*
X160890300Y-60501200D02*
X160570500Y-60821000D01*
X160890300Y-56513300D02*
X160890300Y-60501200D01*
X159873700Y-55496700D02*
X160890300Y-56513300D01*
X159800000Y-55496700D02*
X159873700Y-55496700D01*
X159800000Y-54420000D02*
X159800000Y-55496700D01*
X138498000Y-74343100D02*
X150786200Y-74343100D01*
X136965200Y-72810300D02*
X138498000Y-74343100D01*
X136965200Y-72405400D02*
X136965200Y-72810300D01*
X136965200Y-72405400D02*
X136965200Y-72810300D01*
X136965200Y-72810300D02*
X136965200Y-72405400D01*
%TO.N,Net-(J1-Pin_1)*%
X157335800Y-126837500D02*
X158723300Y-128225000D01*
X151975000Y-126837500D02*
X157335800Y-126837500D01*
X159800000Y-128225000D02*
X158723300Y-128225000D01*
%TO.N,/bt+*%
X144240900Y-127390900D02*
X146995000Y-130145000D01*
X131550300Y-127390900D02*
X144240900Y-127390900D01*
%TO.N,/rx-out*%
X158671300Y-116880000D02*
X157393800Y-115602500D01*
X159800000Y-116880000D02*
X158671300Y-116880000D01*
%TO.N,Net-(D1-K)*%
X158548300Y-65118200D02*
X158548300Y-65400000D01*
X157703400Y-64273300D02*
X158548300Y-65118200D01*
X142503800Y-64273300D02*
X157703400Y-64273300D01*
X141571300Y-65205800D02*
X142503800Y-64273300D01*
X141571300Y-65311900D02*
X141571300Y-65205800D01*
X136085900Y-70797300D02*
X141571300Y-65311900D01*
X131924000Y-70797300D02*
X136085900Y-70797300D01*
X126526700Y-65400000D02*
X131924000Y-70797300D01*
X125400000Y-65400000D02*
X126526700Y-65400000D01*
X159675000Y-65400000D02*
X158548300Y-65400000D01*
%TO.N,+5C*%
X127100000Y-124500000D02*
X123995000Y-127605000D01*
X159800000Y-124500000D02*
X127100000Y-124500000D01*
%TO.N,GND*%
X138078700Y-47130000D02*
X138078700Y-44590000D01*
X138078700Y-47130000D02*
X147286200Y-47130000D01*
X133951200Y-47130000D02*
X138078700Y-47130000D01*
X133951200Y-48717500D02*
X130458700Y-52210000D01*
X133951200Y-47130000D02*
X133951200Y-48717500D01*
X146995000Y-141605000D02*
X123995000Y-141605000D01*
X133951200Y-62370000D02*
X147286200Y-62370000D01*
X159800000Y-56960000D02*
X158723300Y-56960000D01*
X138550000Y-72650000D02*
X145050000Y-72650000D01*
X147650000Y-70050000D02*
X156050000Y-70050000D01*
X145050000Y-72650000D02*
X147650000Y-70050000D01*
X155000000Y-80400000D02*
X148500000Y-80400000D01*
X135100000Y-80400000D02*
X135050000Y-80350000D01*
X148500000Y-80400000D02*
X135100000Y-80400000D01*
X158361800Y-56598500D02*
X158723300Y-56960000D01*
X153262200Y-56598500D02*
X158361800Y-56598500D01*
X148238700Y-51575000D02*
X153262200Y-56598500D01*
X125163300Y-97919900D02*
X122065300Y-97919900D01*
X125732100Y-98488700D02*
X125163300Y-97919900D01*
X135050000Y-80350000D02*
X128550000Y-80350000D01*
X123521500Y-80350000D02*
X122990800Y-80880700D01*
X128550000Y-80350000D02*
X123521500Y-80350000D01*
%TO.N,+3.3V*%
X132668700Y-59500000D02*
X145800200Y-59500000D01*
X130458700Y-57290000D02*
X132668700Y-59500000D01*
X140177800Y-125246200D02*
X140164800Y-125259200D01*
X149545000Y-125246200D02*
X140177800Y-125246200D01*
%TD*%
M02*
